<?xml version="1.0" encoding="utf-8"?>
<!-- Generator: Adobe Illustrator 27.8.1, SVG Export Plug-In . SVG Version: 6.00 Build 0)  -->
<svg version="1.1" id="Layer_1" xmlns="http://www.w3.org/2000/svg" xmlns:xlink="http://www.w3.org/1999/xlink" x="0px" y="0px"
	 viewBox="0 0 93.54 155.91" style="enable-background:new 0 0 93.54 155.91;" xml:space="preserve">
<g>
	<g>
		<path d="M18.48,102.21h10.68l7.69,30.31h-8.57l-1.6-7.73h-5.68l-1.6,7.73h-8.57L18.48,102.21L18.48,102.21z M21.85,119.06
			L21.85,119.06h3.95l-1.43-7.23c-0.08-0.42-0.17-1.01-0.3-1.64c-0.12-1.09-0.17-1.64-0.21-3.07c-0.08,1.43-0.13,2.02-0.26,3.07
			c-0.12,0.59-0.21,1.18-0.29,1.64L21.85,119.06L21.85,119.06z"/>
		<path d="M56.45,108.43c-1.39-0.46-2.4-0.63-3.49-0.63c-4.12,0-5.93,2.98-5.93,9.79c0,6.51,1.85,9.42,6.01,9.42
			c1.35,0,2.73-0.29,4.33-1.05l0.71,5.8c-2.56,0.89-4.79,1.31-7.06,1.31c-8.11,0-12.69-5.63-12.69-15.55
			c0-9.88,4.66-15.76,12.61-15.76c2.19,0,4.33,0.38,6.52,1.18L56.45,108.43L56.45,108.43z"/>
		<polygon points="60.91,102.21 82.44,102.21 82.44,107.97 75.88,108.51 75.88,132.51 67.39,132.51 67.39,108.51 60.91,107.93 
			60.91,102.21 		"/>
		<path d="M17.23,137.59c-0.77-0.52-1.45-0.77-2.17-0.77c-0.85,0-1.6,0.44-1.97,1.19c-0.39,0.75-0.56,1.74-0.56,3.37
			c0,1.49,0.15,2.3,0.51,3.07c0.37,0.77,1.1,1.17,2.08,1.17c0.57,0,1.05-0.12,1.63-0.41v-3.42h-2.3v-1.1h3.81v5.36
			c-1.47,0.59-2.27,0.78-3.27,0.78c-2.76,0-4.15-1.82-4.15-5.43c0-3.79,1.4-5.76,4.08-5.76c1.02,0,1.88,0.3,2.83,0.93L17.23,137.59
			L17.23,137.59z"/>
		<path d="M22.89,138.94c2.15,0,3.27,1.35,3.27,3.96c0,2.62-1.11,3.98-3.27,3.98c-2.16,0-3.27-1.35-3.27-3.98
			C19.62,140.29,20.73,138.94,22.89,138.94L22.89,138.94z M21.12,142.89L21.12,142.89c0,1.91,0.6,2.91,1.76,2.91
			c1.14,0,1.74-1.01,1.74-2.91c0-1.88-0.6-2.88-1.74-2.88C21.73,140.02,21.12,141.01,21.12,142.89L21.12,142.89z"/>
		<path d="M28.04,138.94l1.67,5.64c0.07,0.23,0.13,0.53,0.19,0.95c0.06-0.42,0.15-0.81,0.19-0.95l1.63-5.46h1.46l-2.42,7.56h-1.82
			l-2.41-7.54L28.04,138.94L28.04,138.94z"/>
		<path d="M35.16,143.38c0.12,1.5,0.99,2.33,2.41,2.33c0.51,0,1.04-0.11,1.75-0.38l0.27,1.08c-0.8,0.27-1.58,0.42-2.33,0.42
			c-2.35,0-3.68-1.49-3.68-4.05c0-2.39,1.2-3.85,3.22-3.85c1.96,0,3.04,1.35,3.04,3.77c0,0.15,0,0.36-0.01,0.66H35.16L35.16,143.38z
			 M35.04,142.4L35.04,142.4h3.4v-0.03c0-1.53-0.59-2.35-1.65-2.35C35.68,140.02,35.06,140.88,35.04,142.4L35.04,142.4z"/>
		<path d="M41.15,139.13l1.43-0.06v0.6c0.63-0.5,1.1-0.68,1.88-0.68l-0.16,1.37c-0.21-0.04-0.32-0.04-0.49-0.04
			c-0.48,0-0.84,0.11-1.23,0.39v5.96h-1.43V139.13L41.15,139.13z"/>
		<path d="M45.36,139.13l1.4-0.19v0.71c0.8-0.51,1.47-0.74,2.2-0.74c0.71,0,1.34,0.22,1.76,0.63c0.44,0.42,0.59,0.89,0.59,1.88v5.26
			h-1.41v-4.94c0-0.29-0.01-0.52-0.06-0.69c-0.1-0.57-0.63-0.95-1.34-0.95c-0.54,0-1.1,0.21-1.72,0.65v5.93h-1.42V139.13
			L45.36,139.13z"/>
		<path d="M52.96,139.13l1.41-0.16v0.57c0.69-0.44,1.29-0.63,1.92-0.63c0.64,0,1.22,0.19,1.61,0.57c0.11,0.1,0.18,0.17,0.31,0.36
			c0.78-0.6,1.54-0.9,2.32-0.9c0.69,0,1.29,0.24,1.7,0.66c0.42,0.45,0.56,0.87,0.56,1.88v5.2h-1.41v-4.88
			c0-0.32-0.01-0.54-0.05-0.72c-0.1-0.57-0.63-0.98-1.28-0.98c-0.51,0-0.96,0.21-1.49,0.67v5.91h-1.41v-4.85
			c0-0.39,0-0.59-0.02-0.74c-0.09-0.57-0.63-0.99-1.32-0.99c-0.51,0-0.93,0.16-1.43,0.57v6.01h-1.41V139.13L52.96,139.13z"/>
		<path d="M65.73,143.38c0.12,1.5,0.99,2.33,2.41,2.33c0.51,0,1.04-0.11,1.75-0.38l0.27,1.08c-0.8,0.27-1.58,0.42-2.33,0.42
			c-2.35,0-3.67-1.49-3.67-4.05c0-2.39,1.2-3.85,3.22-3.85c1.96,0,3.04,1.35,3.04,3.77c0,0.15,0,0.36-0.01,0.66H65.73L65.73,143.38z
			 M65.61,142.4L65.61,142.4h3.41v-0.03c0-1.53-0.59-2.35-1.66-2.35C66.26,140.02,65.64,140.88,65.61,142.4L65.61,142.4z"/>
		<path d="M71.72,139.13l1.4-0.19v0.71c0.8-0.51,1.48-0.74,2.2-0.74c0.71,0,1.34,0.22,1.76,0.63c0.44,0.42,0.59,0.89,0.59,1.88v5.26
			h-1.41v-4.94c0-0.29-0.02-0.52-0.06-0.69c-0.11-0.57-0.63-0.95-1.34-0.95c-0.54,0-1.1,0.21-1.71,0.65v5.93h-1.41V139.13
			L71.72,139.13z"/>
		<path d="M78.6,139.12h0.93v-1.25l1.42-0.23v1.48h1.49v0.95l-1.48,0.13v4.52c0,0.29,0,0.42,0.02,0.53
			c0.03,0.31,0.29,0.51,0.68,0.51c0.24,0,0.46-0.05,0.78-0.15v1.03c-0.39,0.14-0.8,0.21-1.24,0.21c-0.59,0-1.05-0.16-1.34-0.44
			c-0.24-0.25-0.33-0.62-0.33-1.26v-4.97l-0.93-0.09V139.12L78.6,139.12z"/>
	</g>
	<g>
		<path d="M52.97,38.75c0-0.02,0-0.04,0-0.05c-0.02-0.33-0.27-0.64-0.5-0.75c-0.19-0.09-0.58-0.05-0.95,0.05
			c0.09,0.11,0.17,0.22,0.22,0.31l0.05,0.09l0.08,0.17c0.05,0.13,0.13,0.32,0.28,0.46h0.76C52.95,38.94,52.97,38.85,52.97,38.75
			L52.97,38.75z"/>
		<path d="M51.63,38.66l-0.05-0.11l-0.06-0.11c-0.07-0.12-0.16-0.3-0.34-0.44l-0.07-0.05c-0.22-0.11-1.26-0.24-1.94-0.02
			c0.12,0.13,0.22,0.27,0.29,0.38l0.05,0.1l0.08,0.16c0.05,0.14,0.13,0.32,0.28,0.47h1.97C51.73,38.89,51.67,38.76,51.63,38.66
			L51.63,38.66z"/>
		<path d="M49.35,38.66l-0.05-0.12v0l-0.07-0.11c-0.08-0.14-0.19-0.34-0.42-0.48c-0.22-0.11-1.26-0.24-1.94-0.02
			c0.13,0.13,0.23,0.27,0.29,0.38l0.05,0.09l0.08,0.17c0.05,0.13,0.13,0.32,0.28,0.46h1.97C49.44,38.89,49.38,38.75,49.35,38.66
			L49.35,38.66z"/>
		<path d="M47.06,38.66l-0.05-0.11l-0.07-0.11c-0.08-0.15-0.19-0.34-0.41-0.48c-0.22-0.11-1.26-0.24-1.94-0.02
			c0.13,0.13,0.23,0.27,0.29,0.38l0.06,0.09l0.08,0.17c0.05,0.13,0.13,0.32,0.28,0.46h1.97C47.16,38.89,47.1,38.76,47.06,38.66
			L47.06,38.66z"/>
		<path d="M44.78,38.66l-0.05-0.11l-0.07-0.11c-0.08-0.15-0.19-0.34-0.41-0.48c-0.23-0.12-1.28-0.24-1.97-0.02
			c0.12,0.12,0.21,0.24,0.27,0.34l0.06,0.08l0.08,0.16c0.07,0.15,0.17,0.37,0.41,0.52h1.87C44.87,38.89,44.81,38.76,44.78,38.66
			L44.78,38.66z"/>
		<path d="M42.46,38.61l-0.05-0.11l-0.06-0.1c-0.08-0.13-0.19-0.31-0.37-0.42l-0.07-0.05c-0.27-0.12-0.71-0.04-0.98,0.19
			c-0.09,0.07-0.11,0.19-0.11,0.28v0.03c0,0.2,0.08,0.42,0.21,0.59h1.7C42.58,38.88,42.5,38.72,42.46,38.61L42.46,38.61z"/>
		<path d="M51.3,24.76c-1.36-1.63-3.05-2.17-4.17-2.29l-0.16-0.37l0.43,0.2v-0.65l-0.43,0.2l0.19-0.43h-0.65l0.21,0.44l-0.45-0.2
			v0.65l0.45-0.21l-0.17,0.36c-1.12,0.05-2.82,0.67-4.18,2.31c-0.07,0.08-0.13,0.29-0.03,0.4c0.11,0.12,0.17,0.14,0.27,0.25
			c0.11,0.1,0.42,0.77,0.49,0.95c0.06,0.18,0.08,0.45,0.08,0.45s-0.04,0.34,0.09,0.47c0.1,0.1,0.31,0.09,0.35,0.16
			c0.04,0.07,0.03,0.16,0.32,0.09c0.29-0.07,1.46-0.52,2.89-0.51c1.44,0,2.61,0.44,2.9,0.51c0.29,0.07,0.28-0.03,0.31-0.09
			c0.04-0.07,0.25-0.06,0.35-0.16c0.13-0.13,0.09-0.47,0.09-0.47s0.01-0.26,0.08-0.45c0.07-0.18,0.38-0.85,0.49-0.95
			c0.1-0.11,0.17-0.13,0.27-0.25C51.43,25.05,51.36,24.84,51.3,24.76L51.3,24.76z M46.4,25.82L46.4,25.82
			c-0.19,0.09-0.4,0.13-0.55,0.15c-0.5,0.05-0.59-0.09-0.63-0.16c-0.13-0.22,0.12-0.63,0.45-0.55c0,0-0.1-0.57-0.66-0.19
			c0,0-0.01-0.5-0.42-0.6c-0.27,0.32,0.03,0.73,0.03,0.73c-0.69,0-0.41,0.55-0.41,0.55c0.22-0.26,0.68-0.11,0.66,0.19
			c-0.01,0.17-0.5,0.35-0.88,0.2c-0.38-0.15-0.69-0.9-0.6-1.05c0.67-1.05,2.19-1.53,2.39-1.61c0.21-0.08,0.34,0,0.38,0.1
			c0.03,0.09,0.24,0.43,0.4,0.77H46.3l0.34,0.65l-0.74-0.3v0.95l0.74-0.31L46.4,25.82L46.4,25.82z M49.68,26.15L49.68,26.15
			c-0.38,0.14-0.88-0.04-0.88-0.2c-0.01-0.3,0.45-0.45,0.67-0.19c0,0,0.27-0.55-0.42-0.55c0,0,0.3-0.4,0.03-0.73
			c-0.41,0.09-0.42,0.6-0.42,0.6c-0.56-0.38-0.66,0.19-0.66,0.19c0.33-0.08,0.58,0.33,0.45,0.55c-0.04,0.07-0.13,0.21-0.63,0.16
			c-0.15-0.01-0.36-0.06-0.54-0.15l-0.23-0.45l0.71,0.3v-0.95L47.04,25l0.32-0.63h-0.25c0.16-0.35,0.36-0.68,0.4-0.77
			c0.04-0.1,0.17-0.18,0.38-0.1c0.21,0.08,1.72,0.55,2.39,1.61C50.37,25.24,50.06,26,49.68,26.15L49.68,26.15z"/>
		<path d="M46.91,27.55h-0.09h-6.25v0.63c0,0,0.62-0.01,1.17,0.29c0.44,0.24,0.63,0.73,0.69,0.9v7.18h-0.38l0.75,1.3l0.75-1.3h-0.37
			v-0.62h1.96v0.62h-0.38l0.75,1.3l0.75-1.3h-0.37v-0.62h1.96v0.62h-0.37l0.75,1.3l0.75-1.3H48.6v-0.62h1.96v0.62h-0.37l0.75,1.3
			l0.75-1.3h-0.37v-7.2c0.06-0.19,0.25-0.66,0.68-0.89c0.54-0.3,1.17-0.29,1.17-0.29v-0.63H46.91L46.91,27.55z M50.55,31.33
			L50.55,31.33H48.6v-2.92h1.96V31.33L50.55,31.33z M46.85,28.41L46.85,28.41h0.03h0.96v2.92h-1.96v-2.92H46.85L46.85,28.41z
			 M43.18,28.41L43.18,28.41h1.96v2.92h-1.96V28.41L43.18,28.41z M43.18,32.18L43.18,32.18h1.96v2.9h-1.96V32.18L43.18,32.18z
			 M45.89,32.18L45.89,32.18h1.96v2.9h-1.96V32.18L45.89,32.18z M48.6,32.18L48.6,32.18h1.96v2.9H48.6V32.18L48.6,32.18z"/>
		<path d="M40.72,28.4c0,0.4,0.32,0.72,0.72,0.72c0.4,0,0.72-0.33,0.72-0.72c0-0.4-0.32-0.72-0.72-0.72
			C41.05,27.68,40.72,28,40.72,28.4L40.72,28.4z M41.04,28.4L41.04,28.4c0-0.22,0.18-0.4,0.4-0.4c0.22,0,0.4,0.18,0.4,0.4
			c0,0.22-0.18,0.4-0.4,0.4C41.22,28.8,41.04,28.62,41.04,28.4L41.04,28.4z"/>
		<path d="M40.77,29.23l-0.16,1.17l1.01,0.14l0.18-1.33l-1.01-0.14L40.77,29.23L40.77,29.23z M41.07,29.43L41.07,29.43
			c0.13,0.02,0.24,0.03,0.38,0.05c-0.02,0.18-0.07,0.5-0.09,0.69c-0.14-0.02-0.24-0.03-0.38-0.05C41,29.93,41.04,29.61,41.07,29.43
			L41.07,29.43z"/>
		<path d="M40.58,30.75l-0.04,1.14l1.02,0.03l0.04-1.31l-1.02-0.03L40.58,30.75L40.58,30.75z M40.9,30.92L40.9,30.92
			c0.13,0,0.24,0.01,0.38,0.01c0,0.18-0.01,0.48-0.02,0.66c-0.13-0.01-0.25-0.01-0.38-0.01C40.88,31.4,40.89,31.1,40.9,30.92
			L40.9,30.92z"/>
		<path d="M41.37,32.02l-0.86,0.01l0.01,1.34l1.02-0.01l-0.01-1.34L41.37,32.02L41.37,32.02z M41.21,32.34L41.21,32.34
			c0,0.19,0,0.51,0,0.7c-0.13,0-0.24,0-0.38,0c0-0.19,0-0.51,0-0.69C40.97,32.35,41.08,32.35,41.21,32.34L41.21,32.34z"/>
		<path d="M40.49,33.57l-0.12,1.17l1.02,0.11l0.14-1.33l-1.02-0.11L40.49,33.57L40.49,33.57z M40.79,33.76L40.79,33.76
			c0.14,0.01,0.24,0.02,0.38,0.04c-0.02,0.18-0.06,0.51-0.07,0.69c-0.13-0.01-0.24-0.02-0.38-0.04
			C40.74,34.27,40.78,33.95,40.79,33.76L40.79,33.76z"/>
		<path d="M40.31,34.97l-0.27,1.15l1,0.23l0.31-1.3l-0.99-0.24L40.31,34.97L40.31,34.97z M40.58,35.21L40.58,35.21
			c0.13,0.03,0.24,0.06,0.37,0.09c-0.04,0.18-0.12,0.5-0.16,0.68c-0.13-0.03-0.24-0.06-0.37-0.09
			C40.46,35.7,40.54,35.39,40.58,35.21L40.58,35.21z"/>
		<path d="M39.95,36.31l-0.55,1.04l0.91,0.47l0.62-1.18l-0.9-0.48L39.95,36.31L39.95,36.31z M40.16,36.6L40.16,36.6
			c0.12,0.06,0.22,0.11,0.33,0.18c-0.09,0.17-0.24,0.45-0.32,0.62c-0.12-0.06-0.22-0.11-0.33-0.18
			C39.92,37.05,40.07,36.76,40.16,36.6L40.16,36.6z"/>
		<path d="M38.74,38.22c0,0.4,0.32,0.72,0.72,0.72c0.4,0,0.72-0.33,0.72-0.72c0-0.4-0.32-0.72-0.72-0.72
			C39.06,37.5,38.74,37.83,38.74,38.22L38.74,38.22z M39.06,38.22L39.06,38.22c0-0.22,0.18-0.4,0.4-0.4c0.22,0,0.4,0.18,0.4,0.4
			c0,0.22-0.18,0.4-0.4,0.4C39.24,38.62,39.06,38.44,39.06,38.22L39.06,38.22z"/>
		<path d="M52.34,27.68c-0.4,0-0.72,0.32-0.72,0.72c0,0.4,0.32,0.72,0.72,0.72c0.4,0,0.72-0.33,0.72-0.72
			C53.06,28,52.74,27.68,52.34,27.68L52.34,27.68z M52.34,28.8L52.34,28.8c-0.22,0-0.4-0.18-0.4-0.4c0-0.22,0.18-0.4,0.4-0.4
			c0.22,0,0.4,0.18,0.4,0.4C52.74,28.62,52.56,28.8,52.34,28.8L52.34,28.8z"/>
		<path d="M52.99,29.07l-1.02,0.14l0.18,1.33l1.01-0.14l-0.16-1.17L52.99,29.07L52.99,29.07z M52.81,30.12L52.81,30.12
			c-0.13,0.02-0.24,0.03-0.37,0.05c-0.03-0.18-0.07-0.5-0.09-0.69c0.13-0.02,0.24-0.03,0.37-0.05
			C52.74,29.61,52.78,29.93,52.81,30.12L52.81,30.12z"/>
		<path d="M53.19,30.59l-1.02,0.03l0.04,1.31l1.02-0.03l-0.03-1.14L53.19,30.59L53.19,30.59z M52.91,31.58L52.91,31.58
			c-0.14,0.01-0.25,0.01-0.38,0.01c-0.01-0.18-0.02-0.48-0.02-0.66c0.13,0,0.24-0.01,0.38-0.01C52.89,31.1,52.9,31.4,52.91,31.58
			L52.91,31.58z"/>
		<path d="M52.25,32.02l-0.01,1.34l1.02,0.01l0.01-1.34l-0.86-0.01L52.25,32.02L52.25,32.02z M52.95,32.35L52.95,32.35
			c0,0.19-0.01,0.51-0.01,0.69c-0.13,0-0.24,0-0.38,0c0-0.19,0-0.51,0-0.7C52.7,32.35,52.81,32.35,52.95,32.35L52.95,32.35z"/>
		<path d="M53.27,33.41l-1.01,0.11l0.14,1.33l1.02-0.11l-0.12-1.17L53.27,33.41L53.27,33.41z M53.06,34.45L53.06,34.45
			c-0.14,0.02-0.24,0.03-0.38,0.04c-0.02-0.18-0.05-0.51-0.08-0.69c0.14-0.02,0.24-0.03,0.38-0.04C53,33.95,53.04,34.27,53.06,34.45
			L53.06,34.45z"/>
		<path d="M53.44,34.82l-1,0.24l0.31,1.3l1-0.23l-0.27-1.15L53.44,34.82L53.44,34.82z M53.36,35.88L53.36,35.88
			c-0.13,0.03-0.24,0.06-0.36,0.09c-0.04-0.18-0.12-0.5-0.16-0.68c0.13-0.03,0.24-0.06,0.37-0.09
			C53.24,35.39,53.32,35.7,53.36,35.88L53.36,35.88z"/>
		<path d="M53.76,36.17l-0.91,0.48l0.62,1.18l0.91-0.47l-0.55-1.04L53.76,36.17L53.76,36.17z M53.95,37.22L53.95,37.22
			c-0.12,0.06-0.22,0.11-0.33,0.18c-0.09-0.17-0.24-0.45-0.32-0.62c0.12-0.06,0.22-0.11,0.33-0.18
			C53.71,36.76,53.86,37.05,53.95,37.22L53.95,37.22z"/>
		<path d="M54.32,37.5c-0.4,0-0.72,0.33-0.72,0.72c0,0.4,0.32,0.72,0.72,0.72c0.4,0,0.72-0.33,0.72-0.72
			C55.04,37.83,54.72,37.5,54.32,37.5L54.32,37.5z M54.32,38.62L54.32,38.62c-0.22,0-0.4-0.18-0.4-0.4c0-0.22,0.18-0.4,0.4-0.4
			c0.22,0,0.4,0.18,0.4,0.4C54.72,38.44,54.54,38.62,54.32,38.62L54.32,38.62z"/>
		<path d="M27.54,39.51l0.97,0.45l0.71,0.29l1.25,0.52c-0.1-0.34-0.07-0.6-0.07-0.6s0.38,0.23,0.75-0.18
			c0.36-0.42,0.03-1.09-0.57-1.66c-0.59-0.57-1.29-0.64-2.15-0.34c-0.57,0.21-0.99,0.72-1.29,1.3
			C27.28,39.36,27.4,39.43,27.54,39.51L27.54,39.51z"/>
		<path d="M19.85,54.29c-1.1,1.15-1.58,1.61-1.81,1.96c0,0-0.37,0.28-0.18,0.44c0.18,0.16,1.45,0.4,2.67,0.3
			c-0.62,0.76-1.41,2.05-1.58,3c-0.2,1.09,0.4,2.15,0.92,2.31c0.53,0.17,1.04,0.04,1.44-0.43c0.52-0.62,0.74-2.24,0.74-2.24
			s0.84,0.02,1.56,0c-0.69-3.59-1.89-6.77-2.49-8.07C21.01,52.51,20.68,53.43,19.85,54.29L19.85,54.29z M37.74,49.4L37.74,49.4
			c-0.31-0.03-0.65-0.08-0.75,0.03c0,0-0.08-0.73,0.08-1.01c0.15-0.28,0.13-0.49,0.36-0.52c0,0-0.65-0.34-0.88,0
			c-0.23,0.34-0.36,0.73-0.36,0.96c0,0-0.21,0.28-0.31,0.28c0,0,0.05,0.57,0.08,1.09c0.03,0.52-0.08,1.17-0.28,1.89
			c-0.21,0.73-0.8,1.71-0.98,1.92c-0.13,0.15-0.35,0.35-0.48,0.22c-0.04-0.08-0.07-0.16-0.09-0.27c-0.02-0.14-0.02-0.22,0-0.27
			c0.02-0.39,0.17-0.84,0.26-1.51c0.23-0.48,0.49-1.03,0.66-1.49c0.33-0.92,0.96-1.95,0.63-4.23c-0.33-2.28-2.48-3.83-3.07-4.29
			c-0.33-0.26-0.9-0.54-1.81-0.93c-0.71-0.3-1.63-0.67-2.81-1.15c-0.38-0.15-0.71-0.31-1-0.46c-1.77-0.93-2.06-1.8-2.17-2.3
			c-0.12-0.57,0.37-1.9,2.22-1.99c1.85-0.09,3.07,1.12,3.5,1.63c0.42,0.51,0.78,1.27,1.24,1.85c0.46,0.58,1.49,0.79,1.49,0.79
			c0.42,0.73,1.26,1.39,1.48,1.55c0.12,0.08,0.27,0.26,0.4,0.41l0.1,0.13c-0.01-0.02-0.02-0.03-0.03-0.05
			c0.08,0.09,0.14,0.16,0.18,0.19c0.1,0.07,0.21-0.22,0.21-0.49c0-0.27-0.07-0.53-0.19-0.71c-0.12-0.19-0.37-0.97-0.46-1.19
			c-0.07-0.19-0.15-0.53-0.18-0.63c0-0.02-0.01-0.03-0.01-0.03s0.23-0.87-0.68-2.07c-0.64-0.85-1.7-1.16-2.12-1.37
			c-0.42-0.22-1.6-0.98-2.31-1.27c-0.71-0.29-1.99-0.71-3.12-0.63c-1.14,0.08-2.88,0.58-3.63,2.61c-0.69,1.87,0.17,3.31,0.56,4.19
			c0.79-0.39,1.53-0.22,2.03-0.1c0.7,0.16,1.55,0.53,2.05,0.9c0.7,0.51,0.86,1.33,0.86,1.96c0,0.4-0.06,0.73-0.09,0.85
			c-0.1,0.43-0.42,0.69-0.66,0.85c0.07,0.1,0.15,0.2,0.23,0.36c0.07,0.14,0.11,0.28,0.13,0.39c0.52-0.19,1.31-0.24,2.26-0.28
			l0.53-0.02c0.14,0,0.26,0.1,0.27,0.24c0.01,0.14-0.1,0.25-0.24,0.26l-0.54,0.02c-0.79,0.03-1.99,0.07-2.35,0.36l-0.5,0.39
			l0.09-0.63c0,0,0.03-0.24-0.1-0.52c-0.16-0.31-0.33-0.47-0.33-0.47l-0.3-0.27l0.38-0.15c0,0,0.55-0.22,0.65-0.65
			c0.04-0.17,0.34-1.63-0.57-2.3c-0.45-0.33-1.24-0.67-1.87-0.82c-0.69-0.16-1.64-0.38-2.6,0.84c-1.66,2.11-2.52,3.9-2.61,5.48
			c-0.01,0.13-0.01,0.26-0.01,0.38c0,1.45,0.52,2.33,0.98,3.12l0.33,0.58c0.44,0.86,1.88,4.27,2.69,8.56l0.02,0.12
			c0.06,0.33,0.12,0.66,0.18,0.84c0.78-0.78,4.93-5.36,5.38-7.3l0.02-0.08l0.06-0.05c0.08-0.07,1.62-1.39,1.62-3.67
			c0-0.41-0.05-0.86-0.17-1.33c0-0.02-0.01-0.04-0.01-0.06c0-0.11,0.08-0.21,0.19-0.24c0.13-0.03,0.27,0.05,0.3,0.18
			c0.13,0.51,0.18,0.99,0.18,1.43c0,2.33-1.47,3.78-1.74,4.02c-0.38,1.41-2.28,3.83-3.78,5.56c0.1,0.48,0.07,0.74,0.07,1
			c0,0.3,0.16,0.81,0.27,1.15c0.02,0.07,0.05,0.14,0.06,0.2c0.1,0.31-0.11,2.17-0.21,2.69c-0.11,0.52-1.05,1.31-1.5,1.63
			c-0.29,0.21-0.21,0.42-0.16,0.52c0,0,0.36-0.34,0.8-0.31c0.44,0.03,0.88-0.13,1.5,0.24c0.62,0.36,0.96,0.54,1.09,0.98
			c0.08,0.28,0.13,0.49,0.13,0.49s0.44-0.52,0.46-0.86c0,0,0.93-0.6,1.45-0.64c0.52-0.05,1.14,0.13,1.19,0.41
			c0,0,0.07-0.56-0.28-0.91c-0.16-0.15-0.41-0.36-0.41-0.36s0.28-0.23,0.47-0.05c0,0-0.05-0.55-0.31-0.57
			c-0.26-0.03-1.4-0.03-1.81-0.03c-0.41,0-1.22-0.15-1.4-0.64c-0.18-0.49-0.05-2.36,0.18-2.56c0.09-0.08,0.17-0.11,0.25-0.11
			c0.13-0.01,0.23,0.06,0.25,0.11c0,0,0.15-0.55,0.36-0.75c0.15-0.15,1.08-1.24,1.61-2.56c0.97,0.02,1.82-0.14,2.45-0.55
			c0.88-0.57,1.71-1.09,2.12-0.96c0,0,0.13-0.7-0.29-0.88c0,0,0.75-1.11,0.98-1.66c0.23-0.54,0.6-0.54,0.57-0.26
			c-0.03,0.29-0.26,1.42,1.19,1.3c0,0-0.26-0.23-0.29-0.54c-0.03-0.31-0.34-2.8-0.13-3.31c0.2-0.52,0.52-1.32,0.72-1.37
			c0.21-0.05,0.34-0.03,0.44,0.08C38.23,49.95,38.04,49.43,37.74,49.4L37.74,49.4z"/>
		<path d="M50.08,30.83c-0.03-0.07-0.08-0.12-0.11-0.19c-0.03-0.07-0.12-0.09-0.16-0.15c-0.04-0.06-0.01-0.17-0.06-0.23
			c-0.04-0.06-0.12-0.1-0.17-0.15c-0.05-0.05-0.14-0.07-0.2-0.12c-0.06-0.05-0.12-0.09-0.18-0.13c-0.06-0.05-0.12-0.1-0.18-0.14
			c-0.05-0.03-0.1-0.06-0.14-0.09v1.42h1.22C50.08,30.98,50.11,30.9,50.08,30.83L50.08,30.83z M48.87,33.32L48.87,33.32
			c0.06-0.03,0.12-0.06,0.17-0.09c0.07-0.04,0.15-0.08,0.21-0.12c0.06-0.05,0.16-0.06,0.22-0.11c0.06-0.05,0.07-0.16,0.12-0.21
			c0.05-0.06,0.11-0.11,0.15-0.17c0.05-0.06,0.15-0.08,0.19-0.15h-1.07V33.32L48.87,33.32z M47.15,29.16L47.15,29.16
			c-0.09-0.01-0.17-0.04-0.25-0.04c-0.06,0-0.12,0.03-0.19,0.03c-0.07,0-0.14-0.06-0.21-0.05c-0.07,0.01-0.14,0.07-0.2,0.07
			c-0.05,0.01-0.09,0-0.14,0v1.87h1.41v-1.9c-0.05-0.03-0.1-0.07-0.15-0.07C47.34,29.06,47.24,29.16,47.15,29.16L47.15,29.16z
			 M46.16,33.81L46.16,33.81C46.16,33.81,46.17,33.81,46.16,33.81c0.1,0.48,0.12,0.72,0.03,0.99h0.92c0-0.28,0.1-0.62,0.43-1.02
			c0.01,0,0.02-0.01,0.02-0.01v-1.32h-1.41V33.81L46.16,33.81z M43.9,32.5L43.9,32.5c0.04,0.06,0.14,0.09,0.19,0.14
			c0.05,0.06,0.1,0.1,0.16,0.16c0.05,0.05,0.09,0.12,0.15,0.17c0.06,0.05,0.12,0.09,0.19,0.14c0.06,0.05,0.09,0.15,0.16,0.19
			c0.03,0.02,0.08,0.03,0.13,0.03v-0.87h-0.97C43.89,32.47,43.89,32.49,43.9,32.5L43.9,32.5z M44.55,29.83L44.55,29.83
			c-0.06,0.05-0.13,0.1-0.18,0.15c-0.06,0.05-0.15,0.08-0.2,0.13c-0.05,0.06-0.08,0.14-0.13,0.2c-0.05,0.06-0.05,0.15-0.1,0.21
			c-0.04,0.08-0.09,0.14-0.13,0.21c-0.04,0.08-0.03,0.16-0.06,0.24c-0.01,0.03-0.02,0.05-0.02,0.07h1.13v-1.4
			c-0.03,0.04-0.05,0.07-0.08,0.09C44.71,29.78,44.61,29.79,44.55,29.83L44.55,29.83z"/>
		<path d="M70.55,68.51H22.89v4.38H70.8v-4.38H70.55L70.55,68.51z M70.3,72.38L70.3,72.38H23.39V69H70.3V72.38L70.3,72.38z"/>
		<path d="M76.38,56.81v-0.02c-0.01-0.22-0.19-0.38-0.29-0.46c-0.19-0.28-0.51-0.62-1.14-1.27l-0.68-0.71
			c-0.88-0.92-1.18-1.88-1.24-2.99l0.24-0.43c0.51-0.87,1.14-1.96,1.03-3.78c-0.1-1.67-0.99-3.55-2.72-5.74
			c-0.29-0.36-0.58-0.62-0.87-0.8c0.07-0.16,0.16-0.35,0.16-0.35c0.29-0.64,0.69-1.5,0.69-2.55c0-0.46-0.08-0.96-0.27-1.5
			c-0.81-2.21-2.75-2.68-3.82-2.76c-1.2-0.09-2.54,0.36-3.23,0.64c-0.49,0.2-1.18,0.61-1.73,0.93l-0.6,0.34l-0.31,0.14
			c-0.53,0.23-1.34,0.58-1.89,1.3c-0.64,0.84-0.75,1.54-0.75,1.93c0,0.13,0.01,0.21,0.02,0.27c-0.01,0.03-0.17,0.59-0.17,0.59
			l-0.11,0.29c-0.09,0.26-0.26,0.74-0.33,0.86c-0.15,0.22-0.23,0.52-0.23,0.83c0,0.21,0.06,0.58,0.27,0.69
			c0.09,0.05,0.2,0.05,0.29-0.01c0,0,0.14-0.14,0.19-0.2l0.01,0.01l0.1-0.13c0,0.01,0.36-0.37,0.36-0.37
			c0.25-0.17,1.03-0.81,1.48-1.53c0.22-0.05,1.09-0.29,1.54-0.85l0.64-0.96l0.6-0.89c0.32-0.38,1.51-1.63,3.32-1.55
			c0.97,0.04,1.47,0.44,1.72,0.77c0.22,0.28,0.3,0.59,0.3,0.81c0,0.05,0,0.09-0.01,0.13c-0.08,0.35-0.26,1.15-1.87,2.05
			c-0.26-0.56-0.72-1.29-1.49-1.58c-0.96-0.35-1.74-0.22-2.38,0.39c-0.78,0.74-1,1.49-0.58,1.96c0.22,0.26,0.47,0.33,0.68,0.32
			c-0.02,0.16-0.07,0.37-0.21,0.62c-1.01,0.43-1.53,0.7-1.86,0.95l-0.09,0.07c-0.75,0.58-2.74,2.11-3.06,4.36
			c-0.07,0.47-0.1,0.88-0.1,1.25c0,0.46,0.05,0.84,0.12,1.19C58.07,49.07,58,49,57.98,48.97c-0.03-0.29-0.16-0.66-0.38-0.97
			c-0.34-0.49-1.08-0.11-1.17-0.07l-0.24,0.23l0.34,0.19c0,0.01,0.05,0.13,0.05,0.13l0.12,0.27c0.05,0.09,0.07,0.3,0.07,0.51
			c0,0.04-0.01,0.08-0.01,0.11c-0.13,0-0.26,0.01-0.42,0.02l-0.14,0.01c-0.44,0.04-0.66,0.62-0.68,0.69l0.15,0.06
			c0.04,0.03,0.24,0.1,0.41,0.15c0.15,0.1,0.45,0.85,0.58,1.17l0.03,0.08c0.1,0.26,0.06,1.25-0.11,2.94l-0.03,0.27
			c-0.02,0.21-0.21,0.39-0.21,0.39l-0.37,0.34l0.5,0.05c0.53,0.05,0.93-0.06,1.18-0.32c0.24-0.24,0.29-0.57,0.29-0.83
			c0-0.09-0.01-0.17-0.02-0.23c0.04,0.05,0.08,0.11,0.13,0.21c0.19,0.43,0.67,1.18,0.88,1.51c-0.17,0.19-0.22,0.46-0.22,0.7
			c0,0.1,0.01,0.2,0.02,0.28l0.05,0.25l0.24-0.07c0.33-0.1,1.3,0.52,1.93,0.93c0.61,0.39,1.41,0.59,2.44,0.59
			c0.55,1.28,1.43,2.33,1.59,2.49c0.12,0.12,0.25,0.47,0.3,0.65l0.14,0.5c0,0,0.2-0.35,0.25-0.44c0.06-0.01,0.16,0.05,0.16,0.05
			c0.15,0.21,0.01,1.87-0.14,2.32c0.13,0.03,0.32,0.1,0.47,0.14c0.16-0.59,0.3-2.51-0.03-2.8l-0.39-0.17
			c-0.04,0-0.08,0.02-0.13,0.02c-0.07-0.2-0.18-0.45-0.33-0.6c-0.16-0.15-1.05-1.2-1.56-2.48l-0.06-0.14l-0.16,0
			c-1.01,0.02-1.77-0.15-2.33-0.51c-0.87-0.56-1.55-0.97-2.04-1c0,0,0,0,0-0.01c0-0.17,0.04-0.38,0.17-0.44l0.25-0.1l-0.15-0.22
			c-0.01-0.01-0.75-1.1-0.96-1.62c-0.22-0.5-0.53-0.62-0.73-0.57c-0.14,0.03-0.27,0.16-0.27,0.37c0,0.02,0,0.03,0,0.05l0.01,0.07
			c0.01,0.07,0.02,0.17,0.02,0.28c0,0.18-0.03,0.38-0.16,0.52c-0.09,0.09-0.23,0.14-0.4,0.16c0.04-0.08,0.06-0.18,0.07-0.28
			l0.03-0.26c0.09-0.85,0.17-1.74,0.17-2.37c0-0.35-0.02-0.62-0.09-0.78l-0.03-0.07c-0.38-0.95-0.59-1.36-0.85-1.43
			c0,0-0.01,0-0.01,0c0.01,0,0.02-0.02,0.03-0.02l0.15-0.01c0.14-0.02,0.38-0.04,0.44-0.01l0.32,0.23l0.04-0.38
			c0.01-0.06,0.02-0.22,0.02-0.42c0-0.24-0.02-0.54-0.12-0.72L57,48.32c-0.01-0.03-0.04-0.07-0.05-0.1
			c0.12-0.03,0.24-0.03,0.28,0.03c0.21,0.31,0.32,0.65,0.32,0.83v0.08l0.04,0.06c0.1,0.14,0.19,0.22,0.26,0.27
			c-0.01,0.21-0.07,0.95-0.07,0.95c0,0.06,0,0.11,0,0.17c0,0.49,0.1,1.1,0.3,1.79c0.22,0.75,0.83,1.77,1.03,2
			c0.2,0.22,0.37,0.33,0.54,0.34l0.27-0.11l0.15-0.4l-0.01-0.37v-0.02l0.01,0.08l-0.12-0.74l-0.15-0.81l-0.01-0.04l-0.65-1.47
			l-0.17-0.44c-0.32-0.8-0.72-1.81-0.45-3.69c0.3-2.08,2.18-3.53,2.89-4.08l0.1-0.07c0.29-0.23,0.8-0.49,1.76-0.9l2.11-0.87
			l0.7-0.28l1.01-0.47c1.75-0.91,2.14-1.79,2.28-2.45c0.06-0.29,0.01-0.81-0.37-1.31c-0.31-0.4-0.92-0.89-2.06-0.95
			c-1.96-0.09-3.22,1.17-3.68,1.71l-0.63,0.94l-0.61,0.91c-0.4,0.51-1.36,0.72-1.37,0.72l-0.09,0.02l-0.05,0.09
			c-0.4,0.69-1.21,1.34-1.41,1.47l-0.45,0.45c0,0-0.02,0.03-0.04,0.05c-0.01-0.04-0.02-0.08-0.02-0.13c0-0.22,0.06-0.44,0.16-0.59
			c0.09-0.15,0.22-0.5,0.37-0.95l0.1-0.28l0.21-0.72l-0.01-0.08c0-0.01-0.02-0.09-0.02-0.23c0-0.31,0.09-0.91,0.66-1.65
			c0.48-0.63,1.22-0.95,1.71-1.16l0.34-0.16l0.62-0.36c0.5-0.3,1.2-0.72,1.67-0.91c0.65-0.26,1.91-0.69,3.02-0.61
			c0.97,0.07,2.71,0.49,3.44,2.47c0.58,1.58,0.01,2.81-0.41,3.71l-0.15,0.34c-0.71-0.27-1.36-0.12-1.81-0.01
			c-0.7,0.16-1.54,0.53-2.04,0.9c-0.69,0.5-0.85,1.31-0.85,1.93c0,0.4,0.06,0.72,0.09,0.85c0.1,0.43,0.43,0.7,0.68,0.84
			c-0.08,0.1-0.16,0.21-0.24,0.38c-0.08,0.16-0.11,0.3-0.14,0.43c-0.57-0.22-1.46-0.27-2.28-0.3l-0.53-0.02c0,0-0.17-0.03-0.2,0.19
			c-0.03,0.23,0.17,0.26,0.17,0.26l0.54,0.02c0.8,0.03,2,0.07,2.37,0.37l0.45,0.35l-0.09-0.56c0,0-0.04-0.25,0.11-0.54
			c0.16-0.31,0.34-0.47,0.34-0.47l0.27-0.24l-0.34-0.13c-0.01,0-0.56-0.22-0.67-0.67c-0.03-0.17-0.34-1.65,0.58-2.32
			c0.45-0.33,1.25-0.67,1.88-0.82c0.7-0.16,1.65-0.38,2.63,0.85c1.67,2.12,2.52,3.91,2.62,5.49c0.01,0.13,0.01,0.26,0.01,0.39
			c0,1.45-0.52,2.34-0.98,3.14l-0.32,0.58c-0.44,0.86-1.88,4.27-2.69,8.55l-0.03,0.12c-0.07,0.37-0.13,0.72-0.2,0.88
			c-0.66-0.64-4.96-5.38-5.42-7.34l-0.02-0.08l-0.06-0.05c-0.08-0.06-1.63-1.4-1.63-3.69c0-0.42,0.05-0.86,0.17-1.34
			c0,0,0.05-0.19-0.16-0.24c-0.21-0.05-0.27,0.13-0.27,0.13c-0.13,0.5-0.18,0.98-0.18,1.42c0,2.34,1.49,3.79,1.73,4.01
			c0.36,1.35,2.11,3.62,3.58,5.34l-0.02,0.07c-0.12,0.48-0.11,0.77-0.1,1.01l0,0.17c0,0.29-0.19,0.87-0.26,1.08L67,61.42l-0.04,0.12
			c-0.03,0.08-0.04,0.23-0.04,0.42c0,0.73,0.16,1.97,0.24,2.22c0.13,0.44,0.61,0.78,0.61,0.8c0.21,0.06,0.1-0.3,0.27-0.24
			c-0.08-0.12-0.27-0.35-0.36-0.63c-0.1-0.28-0.31-1.62-0.31-2.18c0-0.12,0-0.2,0.02-0.24c0,0,0.06-0.19,0.06-0.19
			c0.14-0.43,0.29-0.91,0.29-1.22l0-0.18c0-0.06-0.01-0.13-0.01-0.19c0-0.12,0.02-0.27,0.04-0.44c0.91,1.04,1.63,1.79,1.71,1.84
			c0.15,0.1,0.27,0.08,0.34,0.05c0.24-0.1,0.31-0.44,0.47-1.25c0.53,0.02,1.14,0.01,1.44,0c0.08,0.46,0.31,1.62,0.76,2.16
			c0.44,0.52,1.03,0.7,1.68,0.5c0.57-0.18,1.12-1.09,1.12-2.09c0-0.16-0.01-0.31-0.04-0.47c-0.15-0.84-0.76-1.91-1.35-2.72
			c1.05,0.02,2.13-0.17,2.37-0.38C76.33,57.01,76.38,56.91,76.38,56.81L76.38,56.81z M58.56,50.59L58.56,50.59l0.16,0.42
			c0,0,0.58,1.32,0.65,1.49c0.01,0.06,0.14,0.78,0.14,0.78l0.11,0.68l0.01,0.06l-0.01,0.16c0,0.01-0.01,0.05-0.02,0.09
			c-0.04-0.03-0.09-0.07-0.16-0.15c-0.15-0.17-0.73-1.11-0.94-1.83c-0.19-0.65-0.28-1.21-0.28-1.67c0-0.05,0-0.1,0.01-0.15
			c0,0,0.03-0.35,0.04-0.66C58.37,50.09,58.47,50.36,58.56,50.59L58.56,50.59z M65.92,40.13L65.92,40.13l-0.69,0.28l-1.55,0.64
			c0.07-0.23,0.11-0.43,0.11-0.55c0-0.08-0.01-0.13-0.01-0.14l-0.05-0.33l-0.29,0.16c-0.04,0.02-0.25,0.12-0.47-0.13
			c-0.27-0.31,0.09-0.9,0.55-1.35c0.52-0.49,1.11-0.58,1.92-0.29c0.49,0.18,0.92,0.68,1.23,1.36
			C66.39,39.91,65.92,40.13,65.92,40.13L65.92,40.13z M73.45,57L73.45,57l-0.52-0.05l0.33,0.41c0.64,0.79,1.38,2.04,1.54,2.9
			c0.18,1.01-0.39,1.94-0.77,2.06c-0.47,0.15-0.88,0.02-1.2-0.36c-0.39-0.47-0.63-1.7-0.69-2.13l-0.03-0.2l-0.2,0
			c-0.01,0-0.84,0.02-1.54,0c0.64-3.23,1.68-6.11,2.3-7.53c0.15,0.87,0.49,1.74,1.28,2.57l0.68,0.71c0.63,0.65,0.94,0.97,1.1,1.22
			l0.02,0.03l0.03,0.03c0.05,0.03,0.08,0.07,0.1,0.11C75.64,56.88,74.59,57.09,73.45,57L73.45,57z"/>
		<path d="M47.87,64.91c0.6,0.33,0.89,0.24,0.89,0.24c0.11-0.22,0.01-0.88,0.01-0.88c-0.28,0.28-0.66-0.04-0.66-0.04
			C48.26,64.75,47.87,64.91,47.87,64.91L47.87,64.91z M36.63,47.43L36.63,47.43l0.44,0v-0.82c0-3.86-0.02-6.64-0.02-7.4h9.97h9.93
			c0,0.76-0.02,3.54-0.02,7.4v0.88l0.43-0.01c0-5.02,0.02-8.44,0.02-8.49l0-0.22h-0.22H47.01H36.61v0.22
			C36.61,39.03,36.63,42.4,36.63,47.43L36.63,47.43z M54.85,59.78L54.85,59.78v-1.76c0-0.05,0.03-0.13,0.18-0.15
			c0,0,0.01-0.01,0.01-0.02c0-0.04-0.01-0.09-0.04-0.14c-0.23-0.44-0.42-1.09-0.43-1.14c0,0-0.21-3.84-0.21-3.84
			c0-0.35,0.33-0.81,0.39-0.9v-1.1c0-0.02-0.06-0.06-0.08-0.07h-0.33c-0.06,0-0.08,0.04-0.08,0.02v0.09l-0.05,0.03l-0.15-0.03
			l-0.05-0.02c0,0,0-0.11-0.04-0.12l-0.38,0.02v0.47h-0.54v-0.1l0.01-0.39l-0.43,0.01l-0.01,0.11l-0.05,0.02l-0.15,0.03l-0.06-0.03
			l0.01-0.07c-0.01-0.01-0.02-0.05-0.08-0.05l-0.3,0c-0.05,0.01-0.11,0.05-0.11,0.08v1.1c0.03,0.06,0.31,0.5,0.31,0.5l-0.46,0
			c0,0-0.16,0-0.17,0.03v0.48h-0.81v-0.1l-0.01-0.39h-0.67c0,0-0.07,0.01-0.07,0v0.49l-0.81,0v-0.1v-1.77
			c0.01-0.3,0.27-0.94,0.27-0.93v-1.17c0-0.16-0.16-0.2-0.15-0.21h-0.71c-0.11,0-0.13,0.07-0.13,0.11v0.38h-0.25v-0.5
			c0-0.07-0.06-0.08-0.09-0.09l-0.63,0.04v0.55H46.7v-0.1l-0.03-0.49h-0.58c-0.03,0-0.1,0.02-0.1,0.09v0.5h-0.25v-0.37
			c0-0.04-0.02-0.11-0.14-0.11l-0.69,0c-0.02,0.01-0.17,0.05-0.17,0.21l-0.01,1.13c0.01,0.03,0.27,0.67,0.28,0.97v1.87h-0.81v-0.1
			l0.01-0.37l-0.08-0.01l-0.67,0.02v0.47h-0.82v-0.1l-0.01-0.4l-0.43,0l-0.19,0.01c0,0,0.28-0.45,0.32-0.5v-1.1
			c0-0.02-0.06-0.06-0.08-0.07h-0.33c-0.06,0-0.08,0.04-0.08,0.02v0.09l-0.05,0.03l-0.15-0.03l-0.05-0.02c0,0,0-0.11-0.04-0.12
			l-0.38,0.02v0.47h-0.54v-0.1l0.01-0.39l-0.43,0.01l0,0.11l-0.05,0.02l-0.15,0.03l-0.06-0.03l0.01-0.07
			c-0.01-0.01-0.03-0.05-0.08-0.05l-0.3,0c-0.05,0.01-0.11,0.05-0.11,0.08v1.1c0.06,0.09,0.39,0.55,0.39,0.9v0.01
			c0,0-0.2,3.83-0.21,3.86c-0.01,0.03-0.2,0.68-0.43,1.11c-0.03,0.07-0.04,0.15-0.04,0.17c0.17,0.03,0.19,0.11,0.19,0.15v1.76h3.05
			v-0.52h1.52c0-0.18,0.02-1.31,0.02-1.31s0-0.01,0.01-0.03h1.23v0.35H45l0.4,0.68l0.4-0.68h-0.2v-0.35h1.25v0.35h-0.2l0.4,0.68
			l0.39-0.68h-0.19v-0.35h1.26v0.35h-0.2l0.4,0.68l0.4-0.68h-0.2v-0.35h1.34c0.01,0.03,0.01,0.05,0.01,0.05c0,0,0.01,1.11,0.02,1.29
			h1.52v0.52H54.85L54.85,59.78z M45.2,57.52L45.2,57.52h-1.09c0.11-0.27,0.3-0.63,0.58-1h0.51V57.52L45.2,57.52z M45.2,56.13
			L45.2,56.13h-0.16c0.05-0.05,0.11-0.1,0.16-0.15V56.13L45.2,56.13z M46.85,57.52L46.85,57.52H45.6v-1h1.25V57.52L46.85,57.52z
			 M46.85,56.13L46.85,56.13H45.6v-0.45c0.35-0.23,0.76-0.4,1.25-0.49V56.13L46.85,56.13z M48.51,57.52L48.51,57.52h-1.26v-1h1.26
			V57.52L48.51,57.52z M48.51,56.13L48.51,56.13h-1.26v-0.97c0.49,0.07,0.9,0.23,1.26,0.44V56.13L48.51,56.13z M48.9,55.87
			L48.9,55.87c0.1,0.08,0.2,0.17,0.29,0.26H48.9V55.87L48.9,55.87z M48.9,57.52L48.9,57.52v-1h0.63c0.27,0.36,0.46,0.72,0.57,1H48.9
			L48.9,57.52z M49.11,62.34L49.11,62.34c-0.13-0.19-0.65-0.01-0.79,0.08l-0.3,0.04l-0.18-0.17c-0.03-0.08-0.03-0.16,0.02-0.23
			c0.05-0.09,0.16-0.15,0.28-0.16c0.16-0.01,0.69-0.16,0.69-0.39c0-0.2-0.21-0.56-0.54-0.8c-0.34-0.24-0.74-0.34-0.92-0.28
			c-0.22,0.07-0.21,0.61-0.17,0.77c0.03,0.12,0,0.24-0.07,0.33c-0.06,0.06-0.13,0.09-0.22,0.08l-0.22-0.12l-0.04-0.29
			c0.03-0.16,0.06-0.71-0.16-0.78c-0.18-0.06-0.59,0.02-0.92,0.26c-0.34,0.25-0.55,0.6-0.55,0.79c0,0.23,0.53,0.39,0.69,0.4
			l0.26,0.14l0.04,0.24c-0.02,0.08-0.07,0.15-0.15,0.18c-0.1,0.04-0.22,0.03-0.32-0.04c-0.14-0.09-0.65-0.28-0.79-0.09
			c-0.11,0.16-0.16,0.57-0.03,0.96c0.13,0.4,0.4,0.71,0.58,0.77c0.22,0.08,0.53-0.37,0.6-0.53c0.05-0.12,0.14-0.2,0.25-0.22
			c0.08-0.02,0.16,0,0.22,0.06c0,0,0.11,0.22,0.11,0.22s-0.13,0.25-0.14,0.25c-0.1,0.09-0.36,0.41-0.36,0.62
			c0,0.04,0.01,0.08,0.03,0.11c0.11,0.16,0.49,0.33,0.9,0.33h0c0.42,0,0.8-0.16,0.91-0.31c0.02-0.03,0.03-0.07,0.03-0.11
			c0-0.21-0.25-0.53-0.35-0.62l-0.13-0.27l0.11-0.22c0.07-0.06,0.15-0.08,0.23-0.06c0.1,0.02,0.19,0.1,0.24,0.22
			c0.06,0.16,0.36,0.61,0.59,0.54c0.19-0.06,0.47-0.37,0.59-0.76C49.26,62.91,49.22,62.5,49.11,62.34L49.11,62.34z M47.37,63.2
			L47.37,63.2c-0.34,0.25-0.82,0.17-1.06-0.18c-0.25-0.34-0.16-0.82,0.18-1.06c0.34-0.24,0.82-0.16,1.07,0.18
			C47.79,62.48,47.71,62.96,47.37,63.2L47.37,63.2z M38.85,48.48L38.85,48.48c0.14-0.06,0.24-0.16,0.29-0.27
			c0.12,0.02,0.28,0.02,0.45-0.02c0.2-0.04,1.61-0.66,2.28-0.95c0,0,0,0.01,0.01,0.01c0.29,0.43,0.74,0.99,1.12,1.2
			c0.56,0.32,0.8,0.22,0.91,0.03c0.11-0.19-0.06-0.52-0.5-0.74c-0.27-0.14-0.61-0.44-0.86-0.74c0,0,0,0,0-0.01
			c0.36-0.18,1.04-0.51,1.8-0.89c-0.03-0.02-0.05-0.03-0.06-0.04c-0.04-0.03-0.04-0.05-0.05-0.09c-0.09-0.15-0.13-0.31-0.13-0.41
			c0,0,0-0.03,0-0.06c-0.01-0.04-0.03-0.18-0.03-0.18s-0.03-0.15-0.08-0.35c-0.83,0.38-1.59,0.72-1.98,0.9c0,0,0,0,0,0
			c-0.07-0.39-0.1-0.83-0.03-1.13c0.11-0.49-0.04-0.82-0.26-0.86c-0.22-0.04-0.45,0.09-0.56,0.72c-0.07,0.43,0.08,1.12,0.23,1.63
			c0,0,0,0,0,0.01c-0.65,0.34-2.03,1.04-2.19,1.17c-0.13,0.11-0.23,0.23-0.3,0.34c-0.12-0.03-0.26-0.02-0.39,0.05
			c-0.26,0.12-0.39,0.37-0.3,0.55C38.32,48.55,38.6,48.6,38.85,48.48L38.85,48.48z M42.81,41.81L42.81,41.81
			c-0.06-0.26-0.3-0.11-0.3-0.11c-0.32-0.44-0.9-0.59-0.9-0.59c-0.06-0.1-0.21-0.2-0.34-0.27c-0.06-0.45-0.31-0.84-0.7-1.01
			c-0.59-0.26-1.31,0.03-1.71,0.66c-0.04-0.05-0.09-0.09-0.16-0.13c-0.19-0.09-0.41-0.02-0.49,0.15c-0.07,0.17,0.02,0.38,0.21,0.46
			c0.07,0.03,0.14,0.04,0.2,0.04c-0.2,0.72,0.07,1.45,0.66,1.71c0.4,0.18,0.85,0.1,1.23-0.16c0.14,0.05,0.32,0.09,0.43,0.07
			c0,0,0.5,0.33,1.04,0.27c0,0,0.04,0.28,0.28,0.15c0,0,0.35,0.46,0.88,0.31c0,0,0.17,0.07,0.45,0.18c0.04-0.13,0.11-0.31,0.11-0.32
			c0.21-0.25,0.43-0.47,0.65-0.64c-0.45-0.21-0.72-0.35-0.72-0.35C43.38,41.77,42.81,41.81,42.81,41.81L42.81,41.81z M40.38,41.33
			L40.38,41.33c-0.17-0.02-0.26-0.32-0.08-0.45c0,0-0.34-0.21-0.39,0.24c0,0-0.25-0.22-0.47-0.06c0.03,0.27,0.36,0.31,0.36,0.31
			c-0.3,0.34,0.08,0.45,0.08,0.45c-0.03-0.22,0.25-0.34,0.38-0.24c0.13,0.1,0.04,0.4-0.12,0.55c-0.18,0.18-0.46,0.21-0.66,0.12
			c-0.37-0.16-0.47-0.73-0.23-1.26c0.24-0.54,0.73-0.84,1.1-0.67c0.19,0.09,0.34,0.33,0.35,0.56
			C40.71,41.09,40.54,41.35,40.38,41.33L40.38,41.33z M49.83,43.25L49.83,43.25l0.03,0.09c2.55-1.27,4.78-2.38,4.98-2.48
			c0.49-0.23,0.78-0.77,0.78-0.77s-0.6-0.11-1.09,0.12c-0.21,0.1-2.64,1.19-5.35,2.42C49.41,42.81,49.63,43.01,49.83,43.25
			L49.83,43.25z M71.45,66.62L71.45,66.62c-0.43-0.38-1.18-0.75-1.61-1.23c-0.16-0.18-0.76-0.39-1.47-0.61
			c-0.02-0.01-0.04-0.02-0.05-0.03c-0.17-0.07-0.51-0.17-0.89-0.27c0.2,0.51,1.04,1.22,1.46,1.52c0.29,0.21,0.21,0.41,0.16,0.52
			c0,0-0.36-0.34-0.8-0.31c-0.44,0.02-0.88-0.13-1.5,0.23c-0.62,0.36-0.96,0.54-1.08,0.98c-0.08,0.29-0.13,0.49-0.13,0.49
			s-0.44-0.52-0.47-0.85c0,0-0.93-0.6-1.45-0.65c-0.52-0.05-1.14,0.13-1.19,0.41c0,0-0.06-0.55,0.29-0.9
			c0.15-0.16,0.41-0.36,0.41-0.36s-0.29-0.23-0.47-0.05c0,0,0.05-0.54,0.31-0.57c0.26-0.03,1.4-0.03,1.81-0.03
			c0.42,0,1.22-0.16,1.4-0.65c0.01-0.03,0.02-0.06,0.03-0.1c-0.2-0.05-0.37-0.09-0.49-0.13c-0.25-0.08-0.46-0.15-0.59-0.21
			c-0.81-0.38-2.25-0.43-3.06-0.48l-0.23-0.07l-0.01-1.72l-0.22-0.02c-1.05-0.11-2.47,0.03-3.4,0.69l-0.05-0.02h0
			c-0.7-0.2-1.48-0.33-2.63-0.63c-0.03-0.01-0.32-0.1-0.51-0.16c1.14-1.48,2.01-3.3,2.29-5.52l-0.44,0.01
			c-0.9,6.9-7.81,9.83-9.83,10.28c-2.08-0.46-9.28-3.52-9.93-10.74h-0.43c0.22,2.52,1.2,4.55,2.49,6.16
			c-1.01,0.15-2.36,0.45-2.85,0.56c-0.19,0.05-0.35,0.1-0.5,0.16c-0.02,0.01-0.05,0.02-0.07,0.02c-0.82-0.86-2.44-1.13-3.64-0.95
			l-0.21,0.03l-0.01,2.1c-0.87,0.03-1.7,0.01-2.06,0.04c-0.34,0.03-0.91,0.27-1.45,0.51c0.22,0.12,0.55,0.2,0.84,0.2
			c0,0,1.85,0.03,1.85,0.03c0.4,0.04,0.59,0.48,0.62,0.89c0,0,0.03,0.28,0.05,0.55c0.12,0.26,0.19,0.53,0.19,0.69
			c0,0.08-0.01,0.13-0.01,0.15l-0.21,0.6l-0.47-0.54c-0.07-0.08-0.44-0.21-0.83-0.17c-0.29,0.03-0.84,0.32-1.19,0.53
			c-0.12,0.38-0.42,0.76-0.49,0.85l-0.44,0.51l-0.3-1.13c-0.07-0.27-0.27-0.39-0.82-0.71l-0.1-0.06c-0.37-0.22-0.65-0.21-0.97-0.19
			c0,0-0.38,0-0.38,0c-0.23-0.02-0.47,0.15-0.54,0.22l-0.34,0.31l-0.21-0.41c-0.18-0.35-0.08-0.71,0.26-0.96
			c0.18-0.13,0.37-0.28,0.55-0.44c-0.04,0.01-0.09,0.02-0.13,0.03c-0.54,0.11-1.82,0.91-2.58,1.18c-0.75,0.27-1.88,0.86-1.83,1.23
			c0.05,0.38,0.87,1.74,1.84,2c0.12,0.03,0.23,0.06,0.33,0.08V68.7h5.21c2.83-0.57,5.91-1.62,6.18-3.01c0,0-0.97-0.52-2.08-0.42
			v-1.81c0,0-0.01,0-0.01,0c0-0.36,0.01-1.3,0.01-1.59c0.94-0.09,2.12,0.1,2.8,0.65c0.01,0.01,0.03,0.02,0.04,0.04
			c0.08,0.1,0.41,0.5,0.41,0.76v5.07c0,0-0.06,0.13-0.18,0.31h3.47v-0.01h19.11L58,68.67l0.09,0.03h0.15
			c-0.12-0.18-0.18-0.31-0.18-0.31v-5.07c0-0.16,0.12-0.36,0.23-0.53c0.68-0.63,1.94-0.84,3.02-0.77c0,0.2,0,0.7,0,1.11l0,0v2.14
			c-1.11-0.1-2.08,0.42-2.08,0.42c0.27,1.39,3.35,2.43,6.18,3.01h5.17v1.21c0.14-0.08,0.26-0.16,0.35-0.24v0
			c0.66-0.34,1.2-1.24,1.33-1.65C72.43,67.51,71.89,67,71.45,66.62L71.45,66.62z M55.46,48.54L55.46,48.54
			c0.12-0.04,0.26-0.17,0.28-0.22c0.02-0.06,0.03-0.24-0.02-0.36c-0.31-0.76-1.32-0.77-1.32-0.77c-0.13-0.21-0.4-0.1-0.4-0.1
			c-0.8-0.79-1.78-0.98-1.78-0.98c-0.25-0.33-0.58-0.15-0.58-0.15c-0.7-0.31-1.41-0.62-2.12-0.94c-0.03,0.13-0.07,0.31-0.07,0.31
			c-0.01,0.05-0.02,0.09-0.03,0.13c0,0.03,0.01,0.1,0.01,0.1c0,0.13-0.03,0.29-0.12,0.44c0.65,0.28,1.3,0.57,1.93,0.86
			c0,0,0.09,0.36,0.5,0.33c0,0,0.79,0.6,1.91,0.66c0,0,0.1,0.28,0.34,0.23C54,48.08,54.68,48.82,55.46,48.54L55.46,48.54z
			 M45.01,64.21L45.01,64.21c-0.13,0.67,0.04,0.92,0.04,0.92c0.25,0.04,0.84-0.26,0.84-0.26c-0.35-0.17-0.16-0.63-0.16-0.63
			C45.27,64.52,45.01,64.21,45.01,64.21L45.01,64.21z M46.92,60.55L46.92,60.55c0.19-0.5,0.6-0.41,0.6-0.41
			c-0.29-0.62-0.58-0.72-0.58-0.72c-0.22,0.11-0.53,0.71-0.53,0.71C46.81,60.06,46.92,60.55,46.92,60.55L46.92,60.55z M43.93,61.59
			L43.93,61.59c0.04,0.25,0.51,0.72,0.51,0.72c0.05-0.39,0.55-0.35,0.55-0.35c-0.42-0.34-0.2-0.69-0.2-0.69
			C44.11,61.35,43.93,61.59,43.93,61.59L43.93,61.59z M49.43,62.4L49.43,62.4c0.5-0.47,0.51-0.77,0.51-0.77
			c-0.18-0.18-0.83-0.28-0.83-0.28c0.18,0.34-0.24,0.61-0.24,0.61C49.4,61.98,49.43,62.4,49.43,62.4L49.43,62.4z M44.03,43.52
			L44.03,43.52c-0.04,0.05-0.08,0.18-0.02,0.25c0.06,0.07,0.1,0.09,0.17,0.15c0.06,0.07,0.25,1.18,0.29,1.29
			c0.04,0.11,0.05,0.27,0.05,0.27s-0.02,0.21,0.06,0.29c0.07,0.06,0.19,0.06,0.22,0.09c0.02,0.04,0.02,0.1,0.19,0.06
			c0.18-0.04,0.9-0.32,1.78-0.32c0.88,0,1.6,0.27,1.78,0.32c0.18,0.04,0.17-0.02,0.19-0.06c0.03-0.04,0.15-0.03,0.22-0.09
			c0.08-0.08,0.05-0.29,0.05-0.29s0.01-0.16,0.05-0.27c0.04-0.11,0.23-1.22,0.3-1.29c0.07-0.06,0.11-0.08,0.17-0.15
			c0.07-0.07,0.03-0.2-0.02-0.25c-0.84-1-1.87-1.33-2.56-1.41l-0.1-0.23l0.27,0.12v-0.4l-0.27,0.12l0.12-0.27h-0.4l0.13,0.27
			l-0.27-0.12v0.4l0.27-0.13l-0.1,0.22C45.91,42.13,44.87,42.52,44.03,43.52L44.03,43.52z M46.89,43.76L46.89,43.76l0.2-0.39h-0.15
			c0.09-0.21,0.22-0.51,0.24-0.57c0.03-0.06,0.1-0.11,0.23-0.06c0.13,0.05,1.06,0.34,1.47,0.99c0.06,0.09-0.14,0.65-0.37,0.74
			s-0.54-0.02-0.54-0.13c-0.01-0.18,0.28-0.27,0.41-0.11c0,0,0.17-0.34-0.25-0.34c0,0,0.18-0.25,0.02-0.45
			c-0.25,0.06-0.26,0.36-0.26,0.36c-0.34-0.23-0.41,0.12-0.41,0.12c0.2-0.05,0.35,0.2,0.28,0.34c-0.03,0.04-0.08,0.13-0.39,0.1
			c-0.09-0.01-0.22-0.04-0.33-0.09l-0.14-0.28l0.44,0.18v-0.58L46.89,43.76L46.89,43.76z M46.65,43.77L46.65,43.77l-0.45-0.18v0.58
			l0.45-0.19l-0.15,0.29c-0.11,0.06-0.25,0.08-0.34,0.09c-0.31,0.03-0.36-0.06-0.38-0.1c-0.08-0.13,0.07-0.38,0.27-0.34
			c0,0-0.06-0.35-0.4-0.12c0,0-0.01-0.4-0.26-0.46c-0.16,0.19,0.02,0.54,0.02,0.54c-0.42,0-0.25,0.34-0.25,0.34
			c0.13-0.16,0.42-0.07,0.41,0.11c-0.01,0.1-0.31,0.22-0.54,0.13c-0.23-0.09-0.43-0.65-0.37-0.74c0.41-0.65,1.34-0.94,1.47-0.99
			c0.13-0.05,0.21,0,0.24,0.06c0.02,0.06,0.15,0.36,0.24,0.57h-0.16L46.65,43.77L46.65,43.77z"/>
		<path d="M46.77,9.04c-23.48,0-42.52,19.04-42.52,42.52c0,23.48,19.04,42.52,42.52,42.52c23.48,0,42.52-19.04,42.52-42.52
			C89.29,28.07,70.25,9.04,46.77,9.04L46.77,9.04z M46.77,85.79L46.77,85.79c-18.91,0-34.23-15.33-34.23-34.23
			c0-18.91,15.33-34.23,34.23-34.23C65.68,17.32,81,32.65,81,51.56C81,70.46,65.68,85.79,46.77,85.79L46.77,85.79z"/>
		<g>
			<path d="M24.44,70.21v0.4h0.64v0.28h-0.64v0.55h-0.32v-1.5h1.04v0.28H24.44z"/>
			<path d="M25.64,71.35c-0.11-0.07-0.2-0.16-0.27-0.28c-0.07-0.12-0.1-0.25-0.1-0.4c0-0.15,0.03-0.28,0.1-0.4
				c0.06-0.12,0.15-0.21,0.27-0.28c0.11-0.07,0.24-0.1,0.39-0.1c0.14,0,0.27,0.03,0.39,0.1c0.11,0.07,0.2,0.16,0.27,0.28
				c0.07,0.12,0.1,0.25,0.1,0.4c0,0.15-0.03,0.28-0.1,0.4c-0.07,0.12-0.16,0.21-0.27,0.28c-0.11,0.07-0.24,0.1-0.39,0.1
				C25.88,71.45,25.76,71.42,25.64,71.35z M26.25,71.09c0.07-0.04,0.12-0.1,0.15-0.17c0.04-0.07,0.06-0.15,0.06-0.25
				c0-0.09-0.02-0.18-0.06-0.25c-0.04-0.07-0.09-0.13-0.15-0.17c-0.07-0.04-0.14-0.06-0.22-0.06c-0.08,0-0.15,0.02-0.22,0.06
				c-0.07,0.04-0.12,0.1-0.15,0.17c-0.04,0.07-0.06,0.15-0.06,0.25c0,0.09,0.02,0.18,0.06,0.25c0.04,0.07,0.09,0.13,0.15,0.17
				c0.07,0.04,0.14,0.06,0.22,0.06C26.11,71.15,26.18,71.13,26.25,71.09z"/>
			<path d="M27.9,71.42l-0.26-0.42h-0.02h-0.28v0.42h-0.32v-1.5h0.6c0.12,0,0.23,0.02,0.32,0.07c0.09,0.04,0.16,0.11,0.21,0.19
				c0.05,0.08,0.07,0.18,0.07,0.29c0,0.11-0.02,0.21-0.07,0.29c-0.05,0.08-0.12,0.14-0.21,0.18l0.31,0.48H27.9z M27.82,70.28
				c-0.05-0.04-0.12-0.07-0.22-0.07h-0.26v0.52h0.26c0.1,0,0.17-0.02,0.22-0.07c0.05-0.05,0.07-0.11,0.07-0.19
				C27.89,70.39,27.87,70.32,27.82,70.28z"/>
			<path d="M29.5,70.21h-0.44v-0.28h1.2v0.28h-0.44v1.21H29.5V70.21z"/>
			<path d="M31.69,69.93v1.5h-0.32v-0.61h-0.62v0.61h-0.32v-1.5h0.32v0.59h0.62v-0.59H31.69z"/>
			<path d="M33.09,71.15v0.28h-1.07v-1.5h1.04v0.28h-0.72v0.33h0.64v0.27h-0.64v0.35H33.09z"/>
			<path d="M34.5,70.84l-0.19,0.21v0.38H34v-1.5h0.32v0.7l0.61-0.7h0.35l-0.57,0.67l0.6,0.83h-0.37L34.5,70.84z"/>
			<path d="M35.45,69.93h0.32v1.5h-0.32V69.93z"/>
			<path d="M37.36,69.93v1.5H37.1l-0.69-0.91v0.91H36.1v-1.5h0.26l0.68,0.91v-0.91H37.36z"/>
			<path d="M38.62,70.65h0.29v0.61c-0.08,0.06-0.16,0.11-0.26,0.14c-0.1,0.03-0.2,0.05-0.3,0.05c-0.14,0-0.27-0.03-0.39-0.1
				c-0.11-0.07-0.2-0.16-0.27-0.28c-0.07-0.12-0.1-0.25-0.1-0.4c0-0.15,0.03-0.28,0.1-0.4c0.06-0.12,0.15-0.21,0.27-0.28
				c0.12-0.07,0.25-0.1,0.39-0.1c0.12,0,0.23,0.02,0.33,0.07c0.1,0.04,0.18,0.11,0.25,0.19l-0.2,0.21c-0.1-0.11-0.22-0.17-0.36-0.17
				c-0.09,0-0.17,0.02-0.23,0.06c-0.07,0.04-0.12,0.1-0.16,0.17c-0.04,0.07-0.06,0.16-0.06,0.25c0,0.09,0.02,0.18,0.06,0.25
				c0.04,0.07,0.09,0.13,0.16,0.17c0.07,0.04,0.14,0.06,0.23,0.06c0.09,0,0.17-0.02,0.25-0.06V70.65z"/>
			<path d="M39.45,71.08c0.04,0.04,0.05,0.09,0.05,0.15c0,0.03,0,0.06-0.01,0.09c-0.01,0.03-0.02,0.07-0.04,0.13l-0.11,0.31h-0.19
				l0.09-0.34c-0.03-0.01-0.06-0.04-0.08-0.07c-0.02-0.03-0.03-0.07-0.03-0.11c0-0.06,0.02-0.11,0.05-0.15
				c0.04-0.04,0.08-0.06,0.14-0.06C39.37,71.03,39.42,71.04,39.45,71.08z"/>
			<path d="M40.77,70.21h-0.44v-0.28h1.2v0.28h-0.44v1.21h-0.32V70.21z"/>
			<path d="M42.97,69.93v1.5h-0.32v-0.61h-0.63v0.61H41.7v-1.5h0.32v0.59h0.63v-0.59H42.97z"/>
			<path d="M44.36,71.15v0.28h-1.07v-1.5h1.04v0.28h-0.72v0.33h0.64v0.27h-0.64v0.35H44.36z"/>
			<path d="M45.27,69.93h0.32v1.21h0.69v0.28h-1.01V69.93z"/>
			<path d="M47.37,71.1h-0.64l-0.12,0.32h-0.33l0.61-1.5h0.31l0.62,1.5H47.5L47.37,71.1z M47.27,70.84l-0.22-0.57l-0.22,0.57H47.27z
				"/>
			<path d="M49.98,69.93l-0.45,1.5h-0.34l-0.3-1.01l-0.31,1.01h-0.34l-0.45-1.5h0.33l0.31,1.05l0.32-1.05h0.29l0.31,1.06l0.32-1.06
				H49.98z"/>
			<path d="M50.34,71.08c0.04,0.04,0.05,0.09,0.05,0.15c0,0.03,0,0.06-0.01,0.09c-0.01,0.03-0.02,0.07-0.04,0.13l-0.11,0.31h-0.19
				l0.09-0.34c-0.03-0.01-0.06-0.04-0.08-0.07c-0.02-0.03-0.03-0.07-0.03-0.11c0-0.06,0.02-0.11,0.05-0.15
				c0.04-0.04,0.08-0.06,0.14-0.06C50.26,71.03,50.31,71.04,50.34,71.08z"/>
			<path d="M52.19,71.1h-0.64l-0.12,0.32H51.1l0.61-1.5h0.31l0.61,1.5h-0.33L52.19,71.1z M52.08,70.84l-0.22-0.57l-0.22,0.57H52.08z
				"/>
			<path d="M54.05,69.93v1.5h-0.26l-0.69-0.91v0.91h-0.31v-1.5h0.26l0.68,0.91v-0.91H54.05z"/>
			<path d="M54.37,69.93H55c0.15,0,0.28,0.03,0.4,0.09c0.11,0.06,0.2,0.15,0.27,0.26c0.06,0.11,0.1,0.24,0.1,0.39
				c0,0.15-0.03,0.28-0.1,0.39c-0.06,0.11-0.15,0.2-0.27,0.26c-0.11,0.06-0.25,0.09-0.4,0.09h-0.63V69.93z M54.98,71.14
				c0.14,0,0.25-0.04,0.33-0.12c0.08-0.08,0.12-0.2,0.12-0.34c0-0.14-0.04-0.26-0.12-0.34c-0.08-0.08-0.19-0.12-0.33-0.12h-0.29
				v0.93H54.98z"/>
			<path d="M56.94,70.21H56.5v-0.28h1.2v0.28h-0.44v1.21h-0.32V70.21z"/>
			<path d="M59.13,69.93v1.5h-0.32v-0.61h-0.62v0.61h-0.32v-1.5h0.32v0.59h0.62v-0.59H59.13z"/>
			<path d="M60.52,71.15v0.28h-1.07v-1.5h1.04v0.28h-0.72v0.33h0.64v0.27h-0.64v0.35H60.52z"/>
			<path d="M62.35,69.99c0.09,0.04,0.16,0.11,0.21,0.19c0.05,0.08,0.07,0.18,0.07,0.29c0,0.11-0.02,0.21-0.07,0.29
				c-0.05,0.08-0.12,0.15-0.21,0.19c-0.09,0.04-0.2,0.07-0.32,0.07h-0.28v0.41h-0.32v-1.5h0.59C62.15,69.93,62.26,69.95,62.35,69.99
				z M62.23,70.66c0.05-0.04,0.08-0.11,0.08-0.19c0-0.08-0.02-0.15-0.08-0.19c-0.05-0.04-0.12-0.07-0.22-0.07h-0.26v0.52h0.26
				C62.11,70.73,62.18,70.71,62.23,70.66z"/>
			<path d="M63.92,71.15v0.28h-1.07v-1.5h1.04v0.28h-0.72v0.33h0.64v0.27h-0.64v0.35H63.92z"/>
			<path d="M64.45,71.35c-0.12-0.07-0.21-0.16-0.27-0.28c-0.07-0.12-0.1-0.25-0.1-0.4c0-0.15,0.03-0.28,0.1-0.4
				c0.06-0.12,0.15-0.21,0.27-0.28c0.11-0.07,0.24-0.1,0.39-0.1c0.14,0,0.27,0.03,0.38,0.1c0.11,0.07,0.2,0.16,0.27,0.28
				c0.07,0.12,0.1,0.25,0.1,0.4c0,0.15-0.03,0.28-0.1,0.4c-0.07,0.12-0.16,0.21-0.27,0.28c-0.11,0.07-0.24,0.1-0.38,0.1
				C64.69,71.45,64.56,71.42,64.45,71.35z M65.05,71.09c0.07-0.04,0.12-0.1,0.15-0.17c0.04-0.07,0.06-0.15,0.06-0.25
				c0-0.09-0.02-0.18-0.06-0.25c-0.04-0.07-0.09-0.13-0.15-0.17c-0.07-0.04-0.14-0.06-0.22-0.06c-0.08,0-0.15,0.02-0.22,0.06
				c-0.07,0.04-0.12,0.1-0.15,0.17c-0.04,0.07-0.06,0.15-0.06,0.25c0,0.09,0.02,0.18,0.06,0.25c0.04,0.07,0.09,0.13,0.15,0.17
				c0.07,0.04,0.14,0.06,0.22,0.06C64.92,71.15,64.99,71.13,65.05,71.09z"/>
			<path d="M66.74,69.99c0.09,0.04,0.16,0.11,0.21,0.19c0.05,0.08,0.07,0.18,0.07,0.29c0,0.11-0.02,0.21-0.07,0.29
				c-0.05,0.08-0.12,0.15-0.21,0.19c-0.09,0.04-0.2,0.07-0.32,0.07h-0.28v0.41h-0.32v-1.5h0.59C66.54,69.93,66.65,69.95,66.74,69.99
				z M66.62,70.66c0.05-0.04,0.07-0.11,0.07-0.19c0-0.08-0.02-0.15-0.07-0.19c-0.05-0.04-0.12-0.07-0.22-0.07h-0.26v0.52h0.26
				C66.5,70.73,66.57,70.71,66.62,70.66z"/>
			<path d="M67.25,69.93h0.32v1.21h0.69v0.28h-1.01V69.93z"/>
			<path d="M69.5,71.15v0.28h-1.07v-1.5h1.04v0.28h-0.72v0.33h0.64v0.27h-0.64v0.35H69.5z"/>
		</g>
	</g>
</g>
</svg>
