<?xml version="1.0" encoding="utf-8"?>
<!-- Generator: Adobe Illustrator 27.8.1, SVG Export Plug-In . SVG Version: 6.00 Build 0)  -->
<svg version="1.1" id="Layer_1" xmlns="http://www.w3.org/2000/svg" xmlns:xlink="http://www.w3.org/1999/xlink" x="0px" y="0px"
	 viewBox="0 0 175.75 93.54" style="enable-background:new 0 0 175.75 93.54;" xml:space="preserve">
<g>
	<g>
		<path d="M53.23,33.97c0-0.02,0-0.04,0-0.05c-0.02-0.33-0.27-0.64-0.5-0.75c-0.19-0.09-0.58-0.05-0.95,0.05
			c0.09,0.11,0.17,0.22,0.22,0.31l0.05,0.09l0.08,0.17c0.05,0.13,0.13,0.32,0.28,0.46h0.76C53.2,34.16,53.23,34.07,53.23,33.97
			L53.23,33.97z"/>
		<path d="M51.88,33.87l-0.05-0.11l-0.06-0.11c-0.07-0.12-0.16-0.3-0.34-0.44l-0.07-0.05c-0.22-0.11-1.26-0.24-1.94-0.02
			c0.12,0.13,0.22,0.27,0.29,0.38l0.05,0.1l0.08,0.16c0.05,0.14,0.13,0.32,0.28,0.47h1.97C51.98,34.11,51.92,33.97,51.88,33.87
			L51.88,33.87z"/>
		<path d="M49.6,33.87l-0.05-0.12v0l-0.07-0.11c-0.08-0.14-0.19-0.34-0.42-0.48c-0.22-0.11-1.26-0.24-1.94-0.02
			c0.13,0.13,0.23,0.27,0.29,0.38l0.05,0.09l0.08,0.17c0.05,0.13,0.13,0.32,0.28,0.46h1.97C49.7,34.11,49.64,33.97,49.6,33.87
			L49.6,33.87z"/>
		<path d="M47.31,33.87l-0.05-0.11l-0.07-0.11c-0.08-0.15-0.19-0.34-0.41-0.48c-0.22-0.11-1.26-0.24-1.94-0.02
			c0.13,0.13,0.23,0.27,0.29,0.38l0.06,0.09l0.08,0.17c0.05,0.13,0.13,0.32,0.28,0.46h1.97C47.41,34.11,47.35,33.97,47.31,33.87
			L47.31,33.87z"/>
		<path d="M45.03,33.87l-0.05-0.11l-0.07-0.11c-0.08-0.15-0.19-0.34-0.41-0.48c-0.23-0.12-1.28-0.24-1.97-0.02
			c0.12,0.12,0.21,0.24,0.27,0.34l0.06,0.08l0.08,0.16c0.07,0.15,0.17,0.37,0.41,0.52h1.87C45.13,34.11,45.07,33.97,45.03,33.87
			L45.03,33.87z"/>
		<path d="M42.71,33.82l-0.05-0.11l-0.06-0.1c-0.08-0.13-0.19-0.31-0.37-0.42l-0.07-0.05c-0.27-0.12-0.71-0.04-0.98,0.19
			c-0.09,0.07-0.11,0.19-0.11,0.28v0.03c0,0.2,0.08,0.42,0.21,0.59h1.7C42.84,34.1,42.76,33.94,42.71,33.82L42.71,33.82z"/>
		<path d="M51.55,19.97c-1.36-1.63-3.05-2.17-4.17-2.29l-0.16-0.37l0.43,0.2v-0.65l-0.43,0.2l0.19-0.43h-0.65l0.21,0.44l-0.45-0.2
			v0.65l0.45-0.21l-0.17,0.36c-1.12,0.05-2.82,0.67-4.18,2.31c-0.07,0.08-0.13,0.29-0.03,0.4c0.11,0.12,0.17,0.14,0.27,0.25
			c0.11,0.1,0.42,0.77,0.49,0.95c0.06,0.18,0.08,0.45,0.08,0.45s-0.04,0.34,0.09,0.47c0.1,0.1,0.31,0.09,0.35,0.16
			c0.04,0.07,0.03,0.16,0.32,0.09c0.29-0.07,1.46-0.52,2.89-0.51c1.44,0,2.61,0.44,2.9,0.51c0.29,0.07,0.28-0.03,0.31-0.09
			c0.04-0.07,0.25-0.06,0.35-0.16c0.13-0.13,0.09-0.47,0.09-0.47s0.01-0.26,0.08-0.45c0.07-0.18,0.38-0.85,0.49-0.95
			c0.1-0.11,0.17-0.13,0.27-0.25C51.68,20.26,51.62,20.05,51.55,19.97L51.55,19.97z M46.66,21.04L46.66,21.04
			c-0.19,0.09-0.4,0.13-0.55,0.15c-0.5,0.05-0.59-0.09-0.63-0.16c-0.13-0.22,0.12-0.63,0.45-0.55c0,0-0.1-0.57-0.66-0.19
			c0,0-0.01-0.5-0.42-0.6c-0.27,0.32,0.03,0.73,0.03,0.73c-0.69,0-0.41,0.55-0.41,0.55c0.22-0.26,0.68-0.11,0.66,0.19
			c-0.01,0.17-0.5,0.35-0.88,0.2c-0.38-0.15-0.69-0.9-0.6-1.05c0.67-1.05,2.19-1.53,2.39-1.61c0.21-0.08,0.34,0,0.38,0.1
			c0.03,0.09,0.24,0.43,0.4,0.77h-0.25l0.34,0.65l-0.74-0.3v0.95l0.74-0.31L46.66,21.04L46.66,21.04z M49.93,21.36L49.93,21.36
			c-0.38,0.14-0.88-0.04-0.88-0.2c-0.01-0.3,0.45-0.45,0.67-0.19c0,0,0.27-0.55-0.42-0.55c0,0,0.3-0.4,0.03-0.73
			c-0.41,0.09-0.42,0.6-0.42,0.6c-0.56-0.38-0.66,0.19-0.66,0.19c0.33-0.08,0.58,0.33,0.45,0.55c-0.04,0.07-0.13,0.21-0.63,0.16
			c-0.15-0.01-0.36-0.06-0.54-0.15l-0.23-0.45l0.71,0.3v-0.95l-0.71,0.28l0.32-0.63h-0.25c0.16-0.35,0.36-0.68,0.4-0.77
			c0.04-0.1,0.17-0.18,0.38-0.1c0.21,0.08,1.72,0.55,2.39,1.61C50.62,20.46,50.31,21.21,49.93,21.36L49.93,21.36z"/>
		<path d="M47.16,22.76h-0.09h-6.25v0.63c0,0,0.62-0.01,1.17,0.29c0.44,0.24,0.63,0.73,0.69,0.9v7.18H42.3l0.75,1.3l0.75-1.3h-0.37
			v-0.62h1.96v0.62h-0.38l0.75,1.3l0.75-1.3h-0.37v-0.62h1.96v0.62h-0.37l0.75,1.3l0.75-1.3h-0.37v-0.62h1.96v0.62h-0.37l0.75,1.3
			l0.75-1.3h-0.37v-7.2c0.06-0.19,0.25-0.66,0.68-0.89c0.54-0.3,1.17-0.29,1.17-0.29v-0.63H47.16L47.16,22.76z M50.81,26.54
			L50.81,26.54h-1.96v-2.92h1.96V26.54L50.81,26.54z M47.1,23.62L47.1,23.62h0.03h0.96v2.92h-1.96v-2.92H47.1L47.1,23.62z
			 M43.43,23.62L43.43,23.62h1.96v2.92h-1.96V23.62L43.43,23.62z M43.43,27.4L43.43,27.4h1.96v2.9h-1.96V27.4L43.43,27.4z
			 M46.14,27.4L46.14,27.4h1.96v2.9h-1.96V27.4L46.14,27.4z M48.85,27.4L48.85,27.4h1.96v2.9h-1.96V27.4L48.85,27.4z"/>
		<path d="M40.97,23.62c0,0.4,0.32,0.72,0.72,0.72c0.4,0,0.72-0.33,0.72-0.72c0-0.4-0.32-0.72-0.72-0.72
			C41.3,22.9,40.97,23.22,40.97,23.62L40.97,23.62z M41.3,23.62L41.3,23.62c0-0.22,0.18-0.4,0.4-0.4c0.22,0,0.4,0.18,0.4,0.4
			c0,0.22-0.18,0.4-0.4,0.4C41.48,24.02,41.3,23.84,41.3,23.62L41.3,23.62z"/>
		<path d="M41.02,24.44l-0.16,1.17l1.01,0.14l0.18-1.33l-1.01-0.14L41.02,24.44L41.02,24.44z M41.32,24.64L41.32,24.64
			c0.13,0.02,0.24,0.03,0.38,0.05c-0.02,0.18-0.07,0.5-0.09,0.69c-0.14-0.02-0.24-0.03-0.38-0.05
			C41.25,25.15,41.29,24.83,41.32,24.64L41.32,24.64z"/>
		<path d="M40.84,25.97l-0.04,1.14l1.02,0.03l0.04-1.31l-1.02-0.03L40.84,25.97L40.84,25.97z M41.15,26.14L41.15,26.14
			c0.13,0,0.24,0.01,0.38,0.01c0,0.18-0.01,0.48-0.02,0.66c-0.13-0.01-0.25-0.01-0.38-0.01C41.14,26.62,41.15,26.32,41.15,26.14
			L41.15,26.14z"/>
		<path d="M41.62,27.24l-0.86,0.01l0.01,1.34l1.02-0.01l-0.01-1.34L41.62,27.24L41.62,27.24z M41.47,27.56L41.47,27.56
			c0,0.19,0,0.51,0,0.7c-0.13,0-0.24,0-0.38,0c0-0.19,0-0.51,0-0.69C41.22,27.56,41.33,27.56,41.47,27.56L41.47,27.56z"/>
		<path d="M40.75,28.78l-0.12,1.17l1.02,0.11l0.14-1.33l-1.02-0.11L40.75,28.78L40.75,28.78z M41.05,28.98L41.05,28.98
			c0.14,0.01,0.24,0.02,0.38,0.04c-0.02,0.18-0.06,0.51-0.07,0.69c-0.13-0.01-0.24-0.02-0.38-0.04
			C40.99,29.49,41.03,29.16,41.05,28.98L41.05,28.98z"/>
		<path d="M40.56,30.19l-0.27,1.15l1,0.23l0.31-1.3l-0.99-0.24L40.56,30.19L40.56,30.19z M40.84,30.42L40.84,30.42
			c0.13,0.03,0.24,0.06,0.37,0.09c-0.04,0.18-0.12,0.5-0.16,0.68c-0.13-0.03-0.24-0.06-0.37-0.09
			C40.72,30.92,40.79,30.6,40.84,30.42L40.84,30.42z"/>
		<path d="M40.2,31.52l-0.55,1.04l0.91,0.48l0.62-1.18l-0.9-0.48L40.2,31.52L40.2,31.52z M40.41,31.82L40.41,31.82
			c0.12,0.06,0.22,0.11,0.33,0.18c-0.09,0.17-0.24,0.45-0.32,0.62c-0.12-0.06-0.22-0.11-0.33-0.18
			C40.18,32.27,40.33,31.98,40.41,31.82L40.41,31.82z"/>
		<path d="M38.99,33.44c0,0.4,0.32,0.72,0.72,0.72c0.4,0,0.72-0.33,0.72-0.72c0-0.4-0.32-0.72-0.72-0.72
			C39.32,32.72,38.99,33.04,38.99,33.44L38.99,33.44z M39.32,33.44L39.32,33.44c0-0.22,0.18-0.4,0.4-0.4c0.22,0,0.4,0.18,0.4,0.4
			c0,0.22-0.18,0.4-0.4,0.4C39.49,33.84,39.32,33.66,39.32,33.44L39.32,33.44z"/>
		<path d="M52.59,22.9c-0.4,0-0.72,0.32-0.72,0.72c0,0.4,0.32,0.72,0.72,0.72c0.4,0,0.72-0.33,0.72-0.72
			C53.31,23.22,52.99,22.9,52.59,22.9L52.59,22.9z M52.59,24.02L52.59,24.02c-0.22,0-0.4-0.18-0.4-0.4c0-0.22,0.18-0.4,0.4-0.4
			c0.22,0,0.4,0.18,0.4,0.4C52.99,23.84,52.81,24.02,52.59,24.02L52.59,24.02z"/>
		<path d="M53.25,24.28l-1.02,0.14l0.18,1.33l1.01-0.14l-0.16-1.17L53.25,24.28L53.25,24.28z M53.06,25.33L53.06,25.33
			c-0.13,0.02-0.24,0.03-0.37,0.05c-0.03-0.18-0.07-0.5-0.09-0.69c0.13-0.02,0.24-0.03,0.37-0.05
			C52.99,24.83,53.03,25.15,53.06,25.33L53.06,25.33z"/>
		<path d="M53.45,25.8l-1.02,0.03l0.04,1.31l1.02-0.03l-0.03-1.14L53.45,25.8L53.45,25.8z M53.16,26.8L53.16,26.8
			c-0.14,0.01-0.25,0.01-0.38,0.01c-0.01-0.18-0.02-0.48-0.02-0.66c0.13,0,0.24-0.01,0.38-0.01C53.14,26.32,53.15,26.62,53.16,26.8
			L53.16,26.8z"/>
		<path d="M52.5,27.23l-0.01,1.34l1.02,0.01l0.01-1.34l-0.86-0.01L52.5,27.23L52.5,27.23z M53.2,27.56L53.2,27.56
			c0,0.19-0.01,0.51-0.01,0.69c-0.13,0-0.24,0-0.38,0c0-0.19,0-0.51,0-0.7C52.96,27.56,53.07,27.56,53.2,27.56L53.2,27.56z"/>
		<path d="M53.53,28.62l-1.01,0.11l0.14,1.33l1.02-0.11l-0.12-1.17L53.53,28.62L53.53,28.62z M53.31,29.67L53.31,29.67
			c-0.14,0.02-0.24,0.03-0.38,0.04c-0.02-0.18-0.05-0.51-0.08-0.69C53,29,53.1,28.99,53.24,28.98
			C53.26,29.16,53.29,29.49,53.31,29.67L53.31,29.67z"/>
		<path d="M53.69,30.03l-1,0.24l0.31,1.3l1-0.23l-0.27-1.15L53.69,30.03L53.69,30.03z M53.61,31.1L53.61,31.1
			c-0.13,0.03-0.24,0.06-0.36,0.09c-0.04-0.18-0.12-0.5-0.16-0.68c0.13-0.03,0.24-0.06,0.37-0.09C53.49,30.6,53.57,30.92,53.61,31.1
			L53.61,31.1z"/>
		<path d="M54.01,31.38l-0.91,0.48l0.62,1.18l0.91-0.48l-0.55-1.04L54.01,31.38L54.01,31.38z M54.2,32.43L54.2,32.43
			c-0.12,0.06-0.22,0.11-0.33,0.18c-0.09-0.17-0.24-0.45-0.32-0.62c0.12-0.06,0.22-0.11,0.33-0.18
			C53.96,31.98,54.11,32.27,54.2,32.43L54.2,32.43z"/>
		<path d="M54.58,32.72c-0.4,0-0.72,0.33-0.72,0.72c0,0.4,0.32,0.72,0.72,0.72c0.4,0,0.72-0.33,0.72-0.72
			C55.3,33.04,54.97,32.72,54.58,32.72L54.58,32.72z M54.58,33.84L54.58,33.84c-0.22,0-0.4-0.18-0.4-0.4c0-0.22,0.18-0.4,0.4-0.4
			c0.22,0,0.4,0.18,0.4,0.4C54.97,33.66,54.8,33.84,54.58,33.84L54.58,33.84z"/>
		<path d="M27.8,34.72l0.97,0.45l0.71,0.29l1.25,0.52c-0.1-0.34-0.07-0.6-0.07-0.6s0.38,0.23,0.75-0.18
			c0.36-0.42,0.03-1.09-0.57-1.66c-0.59-0.57-1.29-0.64-2.15-0.34c-0.57,0.21-0.99,0.72-1.29,1.3
			C27.53,34.57,27.66,34.65,27.8,34.72L27.8,34.72z"/>
		<path d="M20.11,49.51c-1.1,1.15-1.58,1.61-1.81,1.96c0,0-0.37,0.28-0.18,0.44c0.18,0.16,1.45,0.4,2.67,0.3
			c-0.62,0.76-1.41,2.05-1.58,3c-0.2,1.09,0.4,2.15,0.92,2.31c0.53,0.17,1.04,0.04,1.44-0.43c0.52-0.62,0.74-2.24,0.74-2.24
			s0.84,0.02,1.56,0c-0.69-3.59-1.89-6.77-2.49-8.07C21.26,47.72,20.94,48.64,20.11,49.51L20.11,49.51z M37.99,44.62L37.99,44.62
			c-0.31-0.03-0.65-0.08-0.75,0.03c0,0-0.08-0.73,0.08-1.01c0.15-0.28,0.13-0.49,0.36-0.52c0,0-0.65-0.34-0.88,0
			c-0.23,0.34-0.36,0.73-0.36,0.96c0,0-0.21,0.28-0.31,0.28c0,0,0.05,0.57,0.08,1.09c0.03,0.52-0.08,1.17-0.28,1.89
			c-0.21,0.73-0.8,1.71-0.98,1.92c-0.13,0.15-0.35,0.35-0.48,0.22c-0.04-0.08-0.07-0.16-0.09-0.27c-0.02-0.14-0.02-0.22,0-0.27
			c0.02-0.39,0.17-0.84,0.26-1.51c0.23-0.48,0.49-1.03,0.66-1.49c0.33-0.92,0.96-1.95,0.63-4.23c-0.33-2.28-2.48-3.83-3.07-4.29
			c-0.33-0.26-0.9-0.54-1.81-0.93c-0.71-0.3-1.63-0.67-2.81-1.15c-0.38-0.15-0.71-0.31-1-0.46c-1.77-0.93-2.06-1.8-2.17-2.3
			c-0.12-0.57,0.37-1.9,2.22-1.99c1.85-0.09,3.07,1.12,3.5,1.63c0.42,0.51,0.78,1.27,1.24,1.85c0.46,0.58,1.49,0.79,1.49,0.79
			c0.42,0.73,1.26,1.39,1.48,1.55c0.12,0.08,0.27,0.26,0.4,0.41l0.1,0.13c-0.01-0.02-0.02-0.03-0.03-0.05
			c0.08,0.09,0.14,0.16,0.18,0.19c0.1,0.07,0.21-0.22,0.21-0.49c0-0.27-0.07-0.53-0.19-0.71c-0.12-0.19-0.37-0.97-0.46-1.19
			c-0.07-0.19-0.15-0.53-0.18-0.63c0-0.02-0.01-0.03-0.01-0.03s0.23-0.87-0.68-2.07c-0.64-0.85-1.7-1.16-2.12-1.37
			c-0.42-0.22-1.6-0.98-2.31-1.27c-0.71-0.29-1.99-0.71-3.12-0.63c-1.14,0.08-2.88,0.58-3.63,2.61c-0.69,1.87,0.17,3.31,0.56,4.19
			c0.79-0.39,1.53-0.22,2.03-0.1c0.7,0.16,1.55,0.53,2.05,0.9c0.7,0.51,0.86,1.33,0.86,1.96c0,0.4-0.06,0.73-0.09,0.85
			c-0.1,0.43-0.42,0.69-0.66,0.85c0.07,0.1,0.15,0.2,0.23,0.36c0.07,0.14,0.11,0.28,0.13,0.39c0.52-0.19,1.31-0.24,2.26-0.28
			l0.53-0.02c0.14,0,0.26,0.1,0.27,0.24c0.01,0.14-0.1,0.25-0.24,0.26l-0.54,0.02c-0.79,0.03-1.99,0.07-2.35,0.36l-0.5,0.39
			l0.09-0.63c0,0,0.03-0.24-0.11-0.52c-0.16-0.31-0.33-0.47-0.33-0.47l-0.3-0.27l0.38-0.15c0,0,0.55-0.22,0.65-0.65
			c0.04-0.17,0.34-1.63-0.57-2.29c-0.45-0.33-1.24-0.67-1.87-0.82c-0.69-0.16-1.64-0.38-2.6,0.84c-1.66,2.11-2.52,3.9-2.61,5.48
			c-0.01,0.13-0.01,0.26-0.01,0.38c0,1.45,0.52,2.33,0.98,3.12l0.33,0.58c0.44,0.86,1.88,4.27,2.69,8.56l0.02,0.12
			c0.06,0.33,0.12,0.66,0.18,0.84c0.78-0.78,4.93-5.36,5.38-7.3l0.02-0.08l0.06-0.05c0.08-0.07,1.62-1.39,1.62-3.67
			c0-0.41-0.05-0.86-0.17-1.33c0-0.02-0.01-0.04-0.01-0.06c0-0.11,0.08-0.21,0.19-0.24c0.13-0.03,0.27,0.05,0.3,0.18
			c0.13,0.51,0.18,0.99,0.18,1.43c0,2.33-1.47,3.78-1.74,4.02c-0.38,1.41-2.28,3.83-3.78,5.56c0.1,0.48,0.07,0.74,0.07,1
			c0,0.3,0.16,0.81,0.27,1.15c0.02,0.07,0.05,0.14,0.06,0.2c0.1,0.31-0.11,2.17-0.21,2.69c-0.11,0.52-1.05,1.31-1.5,1.63
			c-0.29,0.21-0.21,0.42-0.16,0.52c0,0,0.36-0.34,0.8-0.31c0.44,0.03,0.88-0.13,1.5,0.24c0.62,0.36,0.96,0.54,1.09,0.98
			c0.08,0.28,0.13,0.49,0.13,0.49s0.44-0.52,0.46-0.86c0,0,0.93-0.6,1.45-0.64c0.52-0.05,1.14,0.13,1.19,0.41
			c0,0,0.07-0.56-0.28-0.91c-0.16-0.15-0.41-0.36-0.41-0.36s0.28-0.23,0.47-0.05c0,0-0.05-0.55-0.31-0.57
			c-0.26-0.03-1.4-0.03-1.81-0.03c-0.41,0-1.22-0.15-1.4-0.64c-0.18-0.49-0.05-2.36,0.18-2.56c0.09-0.08,0.17-0.11,0.25-0.11
			c0.13-0.01,0.23,0.06,0.25,0.11c0,0,0.15-0.55,0.36-0.75c0.15-0.15,1.08-1.24,1.61-2.56c0.97,0.02,1.82-0.14,2.45-0.55
			c0.88-0.57,1.71-1.09,2.12-0.96c0,0,0.13-0.7-0.29-0.88c0,0,0.75-1.11,0.98-1.66c0.23-0.54,0.6-0.54,0.57-0.26
			c-0.03,0.29-0.26,1.42,1.19,1.3c0,0-0.26-0.23-0.29-0.54c-0.03-0.31-0.34-2.8-0.13-3.31c0.2-0.52,0.52-1.32,0.72-1.37
			c0.21-0.05,0.34-0.03,0.44,0.08C38.48,45.16,38.3,44.64,37.99,44.62L37.99,44.62z"/>
		<path d="M50.34,26.05c-0.03-0.07-0.08-0.12-0.11-0.19c-0.03-0.07-0.12-0.09-0.16-0.15c-0.04-0.06-0.01-0.17-0.06-0.23
			c-0.04-0.06-0.12-0.1-0.17-0.15c-0.05-0.05-0.14-0.07-0.2-0.12c-0.06-0.05-0.12-0.09-0.18-0.13c-0.06-0.05-0.12-0.1-0.18-0.14
			c-0.05-0.03-0.09-0.06-0.14-0.09v1.42h1.22C50.33,26.2,50.36,26.11,50.34,26.05L50.34,26.05z M49.12,28.54L49.12,28.54
			c0.06-0.03,0.12-0.06,0.17-0.09c0.07-0.04,0.15-0.08,0.21-0.12c0.06-0.05,0.16-0.06,0.22-0.11c0.06-0.05,0.07-0.16,0.12-0.21
			c0.05-0.06,0.11-0.11,0.15-0.17c0.05-0.06,0.15-0.08,0.19-0.15h-1.07V28.54L49.12,28.54z M47.41,24.38L47.41,24.38
			c-0.09-0.01-0.17-0.04-0.25-0.04c-0.06,0-0.12,0.03-0.19,0.03c-0.07,0-0.14-0.06-0.21-0.05c-0.07,0.01-0.14,0.07-0.2,0.07
			c-0.04,0.01-0.09,0-0.14,0v1.87h1.41v-1.9c-0.05-0.03-0.1-0.07-0.15-0.07C47.59,24.27,47.5,24.38,47.41,24.38L47.41,24.38z
			 M46.41,29.02L46.41,29.02C46.42,29.02,46.42,29.02,46.41,29.02c0.1,0.48,0.12,0.72,0.03,0.99h0.92c0-0.28,0.1-0.62,0.43-1.02
			c0.01,0,0.02-0.01,0.02-0.01v-1.32h-1.41V29.02L46.41,29.02z M44.15,27.71L44.15,27.71c0.04,0.06,0.14,0.09,0.19,0.14
			c0.05,0.06,0.1,0.1,0.16,0.16c0.05,0.05,0.09,0.12,0.15,0.17c0.06,0.05,0.12,0.09,0.19,0.14c0.06,0.05,0.09,0.15,0.16,0.19
			c0.03,0.02,0.08,0.03,0.13,0.03v-0.87h-0.97C44.15,27.69,44.14,27.71,44.15,27.71L44.15,27.71z M44.8,25.05L44.8,25.05
			c-0.06,0.05-0.13,0.1-0.18,0.15c-0.06,0.05-0.15,0.08-0.2,0.13c-0.05,0.06-0.08,0.14-0.13,0.2c-0.05,0.06-0.05,0.15-0.1,0.21
			c-0.04,0.08-0.09,0.14-0.13,0.21c-0.04,0.08-0.03,0.16-0.06,0.24c-0.01,0.03-0.02,0.05-0.02,0.07h1.13v-1.4
			c-0.03,0.04-0.05,0.07-0.08,0.09C44.96,25,44.87,25,44.8,25.05L44.8,25.05z"/>
		<path d="M70.8,63.72H23.14v4.38h47.91v-4.38H70.8L70.8,63.72z M70.55,67.6L70.55,67.6H23.64v-3.38h46.91V67.6L70.55,67.6z"/>
		<path d="M76.63,52.02V52c-0.01-0.22-0.19-0.38-0.29-0.46c-0.19-0.28-0.51-0.62-1.14-1.27l-0.68-0.71
			c-0.88-0.92-1.18-1.88-1.24-2.99l0.24-0.43c0.51-0.87,1.14-1.96,1.03-3.78c-0.1-1.67-0.99-3.55-2.72-5.74
			c-0.29-0.36-0.58-0.62-0.87-0.8c0.07-0.16,0.16-0.35,0.16-0.35c0.29-0.64,0.69-1.5,0.69-2.55c0-0.46-0.08-0.96-0.27-1.5
			c-0.81-2.21-2.75-2.68-3.82-2.76c-1.2-0.09-2.54,0.36-3.23,0.64c-0.49,0.2-1.18,0.61-1.73,0.93l-0.6,0.34l-0.31,0.14
			c-0.53,0.23-1.34,0.58-1.89,1.3c-0.64,0.84-0.75,1.54-0.75,1.93c0,0.13,0.01,0.21,0.02,0.27c-0.01,0.03-0.17,0.59-0.17,0.59
			l-0.11,0.29c-0.09,0.26-0.26,0.74-0.33,0.86c-0.15,0.22-0.23,0.52-0.23,0.83c0,0.21,0.06,0.58,0.27,0.69
			c0.09,0.05,0.2,0.05,0.28-0.01c0,0,0.14-0.14,0.19-0.2l0.01,0.01l0.1-0.13c0,0.01,0.36-0.37,0.36-0.37
			c0.25-0.17,1.03-0.81,1.48-1.53c0.22-0.05,1.09-0.29,1.54-0.85l0.64-0.96l0.6-0.89c0.32-0.38,1.51-1.63,3.32-1.55
			c0.97,0.04,1.47,0.44,1.72,0.77c0.22,0.28,0.3,0.59,0.3,0.81c0,0.05,0,0.09-0.01,0.13c-0.08,0.35-0.26,1.15-1.87,2.05
			c-0.26-0.56-0.72-1.29-1.49-1.58c-0.96-0.35-1.74-0.22-2.38,0.39c-0.78,0.74-1,1.49-0.58,1.96c0.22,0.26,0.47,0.33,0.68,0.32
			c-0.02,0.16-0.07,0.37-0.21,0.61c-1.01,0.43-1.53,0.7-1.86,0.95l-0.09,0.07c-0.75,0.58-2.74,2.11-3.06,4.36
			c-0.07,0.47-0.1,0.88-0.1,1.25c0,0.46,0.05,0.84,0.12,1.19c-0.04-0.05-0.11-0.11-0.13-0.14c-0.03-0.29-0.16-0.66-0.38-0.97
			c-0.34-0.49-1.08-0.11-1.17-0.07l-0.24,0.23l0.34,0.19c0,0.01,0.05,0.13,0.05,0.13l0.12,0.27c0.05,0.09,0.07,0.3,0.07,0.51
			c0,0.04-0.01,0.08-0.01,0.11c-0.13,0-0.26,0.01-0.42,0.02l-0.14,0.01c-0.44,0.04-0.66,0.62-0.68,0.69l0.15,0.06
			c0.04,0.03,0.24,0.1,0.41,0.15c0.15,0.1,0.45,0.85,0.58,1.17l0.03,0.08c0.1,0.26,0.06,1.25-0.11,2.94l-0.03,0.27
			c-0.02,0.21-0.21,0.39-0.21,0.39l-0.37,0.34l0.5,0.05c0.53,0.05,0.92-0.06,1.18-0.32c0.24-0.24,0.29-0.57,0.29-0.83
			c0-0.09-0.01-0.17-0.02-0.23c0.04,0.05,0.08,0.11,0.13,0.21c0.19,0.43,0.67,1.18,0.89,1.51c-0.17,0.19-0.22,0.46-0.22,0.7
			c0,0.1,0.01,0.2,0.02,0.28l0.05,0.25l0.24-0.07c0.33-0.1,1.3,0.52,1.93,0.93c0.61,0.39,1.41,0.59,2.44,0.59
			c0.55,1.28,1.43,2.33,1.59,2.49c0.12,0.12,0.25,0.46,0.3,0.65l0.14,0.5c0,0,0.2-0.35,0.25-0.44c0.06-0.01,0.16,0.05,0.16,0.05
			c0.15,0.21,0.01,1.87-0.14,2.32c0.13,0.03,0.32,0.1,0.47,0.14c0.16-0.59,0.3-2.51-0.04-2.8L66,56.52c-0.04,0-0.08,0.02-0.13,0.02
			c-0.07-0.2-0.18-0.45-0.33-0.6c-0.16-0.15-1.05-1.2-1.56-2.48l-0.06-0.14l-0.16,0c-1.01,0.02-1.77-0.15-2.33-0.51
			c-0.87-0.56-1.55-0.97-2.04-1c0,0,0,0,0-0.01c0-0.17,0.04-0.38,0.17-0.44l0.25-0.1l-0.15-0.22c-0.01-0.01-0.74-1.1-0.96-1.62
			c-0.22-0.5-0.53-0.62-0.73-0.57c-0.14,0.03-0.27,0.16-0.27,0.37c0,0.02,0,0.03,0,0.05l0.01,0.07c0.01,0.07,0.02,0.17,0.02,0.28
			c0,0.18-0.03,0.38-0.16,0.52c-0.09,0.09-0.23,0.14-0.4,0.16c0.04-0.08,0.06-0.18,0.07-0.28l0.03-0.26
			c0.09-0.85,0.17-1.74,0.17-2.37c0-0.35-0.02-0.62-0.09-0.78l-0.03-0.07c-0.38-0.95-0.59-1.36-0.85-1.43c0,0-0.01,0-0.01,0
			c0.01,0,0.02-0.02,0.03-0.02l0.15-0.01c0.14-0.02,0.38-0.04,0.44-0.01l0.32,0.23l0.05-0.38c0.01-0.06,0.02-0.22,0.02-0.42
			c0-0.24-0.02-0.54-0.12-0.72l-0.1-0.21c-0.01-0.03-0.04-0.07-0.05-0.1c0.12-0.03,0.24-0.03,0.28,0.03
			c0.21,0.31,0.32,0.65,0.32,0.83v0.08l0.04,0.06c0.1,0.14,0.19,0.22,0.26,0.27c-0.02,0.21-0.07,0.95-0.07,0.95
			c0,0.06,0,0.11,0,0.17c0,0.49,0.1,1.1,0.3,1.79c0.22,0.75,0.83,1.77,1.03,2c0.2,0.22,0.37,0.33,0.54,0.34l0.27-0.11l0.15-0.4
			l-0.01-0.37v-0.02l0.01,0.08l-0.12-0.74l-0.15-0.81l-0.01-0.04l-0.65-1.47l-0.17-0.44c-0.32-0.8-0.72-1.81-0.45-3.68
			c0.3-2.08,2.18-3.53,2.89-4.08l0.1-0.07c0.29-0.23,0.8-0.49,1.76-0.9l2.11-0.87l0.7-0.28l1.01-0.47c1.75-0.91,2.14-1.79,2.28-2.45
			c0.06-0.29,0.01-0.81-0.37-1.31c-0.31-0.4-0.92-0.89-2.06-0.95c-1.96-0.09-3.22,1.17-3.68,1.71l-0.63,0.94l-0.61,0.91
			c-0.4,0.51-1.36,0.72-1.37,0.72l-0.09,0.02l-0.05,0.09c-0.4,0.69-1.21,1.34-1.41,1.47l-0.45,0.45c0,0-0.02,0.03-0.04,0.05
			c-0.01-0.04-0.02-0.08-0.02-0.13c0-0.22,0.06-0.44,0.16-0.59c0.09-0.15,0.22-0.5,0.37-0.95l0.1-0.28l0.21-0.72l-0.01-0.08
			c0-0.01-0.02-0.09-0.02-0.23c0-0.31,0.09-0.91,0.66-1.65c0.48-0.63,1.22-0.95,1.71-1.16L62.38,31L63,30.64
			c0.5-0.3,1.2-0.72,1.67-0.91c0.65-0.26,1.91-0.69,3.02-0.61c0.97,0.07,2.71,0.49,3.44,2.47c0.58,1.58,0.01,2.81-0.41,3.71
			l-0.15,0.34c-0.71-0.27-1.36-0.12-1.81-0.01c-0.7,0.16-1.54,0.53-2.04,0.9c-0.69,0.5-0.85,1.31-0.85,1.93
			c0,0.4,0.06,0.72,0.09,0.85c0.1,0.43,0.43,0.7,0.68,0.84c-0.08,0.1-0.16,0.21-0.24,0.38c-0.08,0.16-0.11,0.3-0.14,0.43
			c-0.57-0.22-1.46-0.27-2.28-0.3l-0.53-0.02c0,0-0.17-0.03-0.2,0.19c-0.03,0.23,0.17,0.26,0.17,0.26l0.54,0.02
			c0.8,0.03,2,0.07,2.37,0.37l0.45,0.35l-0.09-0.56c0,0-0.04-0.25,0.11-0.54c0.16-0.31,0.34-0.47,0.34-0.47l0.27-0.24l-0.34-0.13
			c-0.01,0-0.56-0.22-0.67-0.67c-0.03-0.17-0.34-1.65,0.58-2.32c0.45-0.33,1.25-0.67,1.88-0.82c0.7-0.16,1.65-0.38,2.63,0.85
			c1.67,2.12,2.52,3.91,2.62,5.49c0.01,0.13,0.01,0.26,0.01,0.39c0,1.45-0.52,2.34-0.98,3.14l-0.32,0.58
			c-0.44,0.86-1.88,4.27-2.69,8.55l-0.03,0.12c-0.07,0.37-0.13,0.72-0.2,0.88c-0.66-0.64-4.96-5.38-5.42-7.34l-0.02-0.08l-0.06-0.05
			c-0.08-0.06-1.63-1.4-1.63-3.69c0-0.42,0.05-0.86,0.17-1.34c0,0,0.05-0.19-0.16-0.24c-0.21-0.05-0.27,0.13-0.27,0.13
			c-0.13,0.5-0.18,0.98-0.18,1.42c0,2.34,1.49,3.79,1.73,4.01c0.36,1.35,2.11,3.62,3.58,5.34l-0.02,0.07
			c-0.12,0.48-0.11,0.77-0.1,1.01l0,0.17c0,0.29-0.19,0.87-0.26,1.08l-0.03,0.07l-0.04,0.12c-0.03,0.08-0.04,0.23-0.04,0.42
			c0,0.73,0.16,1.97,0.24,2.22c0.13,0.44,0.61,0.78,0.61,0.8c0.21,0.06,0.1-0.3,0.27-0.24c-0.08-0.12-0.27-0.35-0.36-0.63
			c-0.1-0.28-0.31-1.62-0.31-2.18c0-0.12,0-0.2,0.02-0.24c0,0,0.06-0.19,0.06-0.19c0.14-0.43,0.29-0.91,0.29-1.22l0-0.18
			c0-0.06-0.01-0.13-0.01-0.19c0-0.12,0.02-0.27,0.04-0.44c0.91,1.04,1.63,1.79,1.71,1.84c0.15,0.1,0.27,0.08,0.34,0.05
			c0.24-0.1,0.31-0.44,0.47-1.25c0.53,0.02,1.14,0.01,1.44,0c0.08,0.46,0.31,1.62,0.76,2.16c0.44,0.52,1.03,0.7,1.68,0.5
			c0.57-0.18,1.12-1.09,1.12-2.09c0-0.16-0.01-0.31-0.04-0.47c-0.15-0.84-0.76-1.91-1.35-2.72c1.05,0.02,2.13-0.17,2.36-0.38
			C76.59,52.22,76.63,52.13,76.63,52.02L76.63,52.02z M58.81,45.8L58.81,45.8l0.16,0.42c0,0,0.58,1.32,0.65,1.49
			c0.01,0.06,0.14,0.78,0.14,0.78l0.11,0.68l0.01,0.06l-0.01,0.16c0,0.01-0.01,0.05-0.02,0.09c-0.04-0.03-0.09-0.07-0.16-0.15
			c-0.15-0.17-0.73-1.11-0.94-1.83c-0.19-0.65-0.28-1.21-0.28-1.67c0-0.05,0-0.1,0.01-0.15c0,0,0.03-0.35,0.04-0.66
			C58.62,45.31,58.72,45.57,58.81,45.8L58.81,45.8z M66.17,35.34L66.17,35.34l-0.69,0.28l-1.55,0.64c0.07-0.23,0.11-0.43,0.11-0.55
			c0-0.08-0.01-0.13-0.01-0.14l-0.05-0.33l-0.29,0.16c-0.04,0.02-0.25,0.12-0.47-0.13c-0.27-0.31,0.09-0.9,0.55-1.35
			c0.52-0.49,1.11-0.58,1.92-0.29c0.49,0.18,0.92,0.68,1.23,1.36C66.64,35.13,66.17,35.34,66.17,35.34L66.17,35.34z M73.7,52.21
			L73.7,52.21l-0.52-0.04l0.33,0.41c0.64,0.79,1.38,2.04,1.54,2.9c0.18,1.01-0.39,1.94-0.77,2.06c-0.47,0.15-0.88,0.02-1.2-0.36
			c-0.39-0.47-0.63-1.7-0.69-2.13l-0.03-0.2l-0.2,0c-0.01,0-0.84,0.02-1.54,0c0.64-3.23,1.68-6.11,2.3-7.53
			c0.15,0.87,0.49,1.74,1.28,2.57l0.68,0.71c0.63,0.65,0.94,0.97,1.1,1.22l0.02,0.03l0.03,0.03c0.05,0.03,0.08,0.07,0.1,0.11
			C75.89,52.09,74.85,52.3,73.7,52.21L73.7,52.21z"/>
		<path d="M48.13,60.12c0.6,0.33,0.89,0.24,0.89,0.24c0.11-0.22,0.01-0.88,0.01-0.88c-0.28,0.28-0.66-0.04-0.66-0.04
			C48.51,59.96,48.13,60.12,48.13,60.12L48.13,60.12z M36.88,42.64L36.88,42.64l0.44,0v-0.82c0-3.86-0.02-6.64-0.02-7.4h9.97h9.93
			c0,0.76-0.02,3.54-0.02,7.4v0.88l0.43-0.01c0-5.02,0.02-8.44,0.02-8.49l0-0.22h-0.22H47.27H36.86v0.22
			C36.86,34.25,36.88,37.61,36.88,42.64L36.88,42.64z M55.1,54.99L55.1,54.99v-1.76c0-0.05,0.03-0.13,0.18-0.15
			c0,0,0.01-0.01,0.01-0.02c0-0.04-0.01-0.09-0.04-0.14c-0.23-0.44-0.42-1.09-0.43-1.14c0,0-0.21-3.84-0.21-3.84
			c0-0.35,0.33-0.81,0.39-0.9v-1.1c0-0.02-0.06-0.06-0.08-0.07H54.6c-0.06,0-0.08,0.04-0.08,0.02v0.09L54.47,46l-0.15-0.03
			l-0.05-0.02c0,0,0-0.11-0.04-0.12l-0.38,0.02v0.47H53.3v-0.1l0.01-0.39l-0.43,0.01l-0.01,0.11l-0.05,0.02L52.68,46l-0.06-0.03
			l0.01-0.07c-0.01-0.01-0.02-0.05-0.08-0.05l-0.3,0c-0.05,0.01-0.11,0.05-0.11,0.08v1.1c0.03,0.06,0.31,0.5,0.31,0.5l-0.46,0
			c0,0-0.16,0-0.17,0.03v0.48h-0.81v-0.1l-0.01-0.39h-0.67c0,0-0.07,0.01-0.07,0v0.49l-0.81,0v-0.1v-1.77
			c0.01-0.3,0.27-0.94,0.27-0.93v-1.17c0-0.16-0.16-0.2-0.15-0.21h-0.71c-0.11,0-0.13,0.07-0.13,0.11v0.38h-0.25v-0.5
			c0-0.07-0.06-0.08-0.09-0.09l-0.63,0.04v0.55h-0.82v-0.1l-0.03-0.49h-0.58c-0.03,0-0.1,0.02-0.1,0.09v0.5h-0.25v-0.37
			c0-0.04-0.02-0.11-0.14-0.11l-0.69,0C45.15,43.87,45,43.92,45,44.07l-0.01,1.13c0.01,0.03,0.27,0.67,0.28,0.97v1.87h-0.81v-0.1
			l0.01-0.37l-0.08-0.01l-0.67,0.02v0.47H42.9v-0.1l-0.01-0.4l-0.43,0l-0.19,0.01c0,0,0.28-0.45,0.32-0.5v-1.1
			c0-0.02-0.06-0.06-0.08-0.07h-0.33c-0.06,0-0.08,0.04-0.08,0.02v0.09L42.05,46l-0.15-0.03l-0.05-0.02c0,0,0-0.11-0.04-0.12
			l-0.38,0.02v0.47h-0.54v-0.1l0.01-0.39l-0.43,0.01l0,0.11l-0.05,0.02L40.26,46l-0.06-0.03l0.01-0.07
			c-0.01-0.01-0.03-0.05-0.08-0.05l-0.3,0c-0.05,0.01-0.11,0.05-0.11,0.08v1.1c0.06,0.09,0.39,0.55,0.39,0.9v0.01
			c0,0-0.2,3.83-0.21,3.86c-0.01,0.03-0.2,0.68-0.43,1.11c-0.03,0.07-0.04,0.15-0.04,0.17c0.17,0.03,0.19,0.11,0.19,0.15v1.76h3.05
			v-0.52h1.52c0-0.18,0.02-1.31,0.02-1.31s0-0.01,0.01-0.03h1.23v0.35h-0.2l0.4,0.68l0.4-0.68h-0.2v-0.35h1.25v0.35h-0.2l0.4,0.68
			l0.39-0.68H47.5v-0.35h1.26v0.35h-0.2l0.4,0.68l0.4-0.68h-0.2v-0.35h1.34c0.01,0.03,0.01,0.05,0.01,0.05c0,0,0.01,1.11,0.02,1.29
			h1.52v0.52H55.1L55.1,54.99z M45.45,52.73L45.45,52.73h-1.09c0.11-0.27,0.3-0.63,0.58-1h0.51V52.73L45.45,52.73z M45.45,51.34
			L45.45,51.34h-0.16c0.05-0.05,0.11-0.1,0.16-0.15V51.34L45.45,51.34z M47.11,52.73L47.11,52.73h-1.25v-1h1.25V52.73L47.11,52.73z
			 M47.11,51.34L47.11,51.34h-1.25v-0.45c0.35-0.23,0.76-0.4,1.25-0.49V51.34L47.11,51.34z M48.76,52.73L48.76,52.73H47.5v-1h1.26
			V52.73L48.76,52.73z M48.76,51.34L48.76,51.34H47.5v-0.97c0.49,0.07,0.9,0.23,1.26,0.44V51.34L48.76,51.34z M49.16,51.08
			L49.16,51.08c0.1,0.08,0.2,0.17,0.29,0.26h-0.29V51.08L49.16,51.08z M49.16,52.73L49.16,52.73v-1h0.63c0.27,0.36,0.46,0.72,0.57,1
			H49.16L49.16,52.73z M49.36,57.56L49.36,57.56c-0.13-0.19-0.65-0.01-0.79,0.08l-0.3,0.04l-0.18-0.17
			c-0.03-0.08-0.03-0.16,0.02-0.23c0.05-0.09,0.16-0.15,0.28-0.16c0.16-0.01,0.69-0.16,0.69-0.39c0-0.2-0.21-0.56-0.54-0.8
			c-0.34-0.24-0.74-0.34-0.92-0.28c-0.22,0.07-0.21,0.61-0.17,0.77c0.03,0.12,0,0.24-0.07,0.33c-0.06,0.06-0.13,0.09-0.22,0.08
			l-0.22-0.12l-0.04-0.29c0.03-0.16,0.06-0.71-0.16-0.78c-0.18-0.06-0.59,0.02-0.92,0.26c-0.34,0.25-0.55,0.6-0.55,0.79
			c0,0.23,0.53,0.39,0.69,0.4l0.26,0.14l0.04,0.24c-0.02,0.08-0.07,0.15-0.15,0.18c-0.1,0.04-0.22,0.03-0.32-0.04
			c-0.14-0.09-0.65-0.28-0.79-0.09c-0.11,0.16-0.16,0.57-0.03,0.96c0.13,0.4,0.4,0.71,0.58,0.77c0.22,0.08,0.53-0.37,0.6-0.53
			c0.05-0.12,0.14-0.2,0.25-0.22c0.08-0.02,0.16,0,0.22,0.06c0,0,0.11,0.22,0.11,0.22s-0.13,0.25-0.14,0.25
			c-0.1,0.09-0.36,0.41-0.36,0.62c0,0.04,0.01,0.08,0.03,0.11c0.11,0.16,0.49,0.33,0.9,0.33h0c0.42,0,0.8-0.16,0.91-0.31
			c0.02-0.03,0.03-0.07,0.03-0.11c0-0.21-0.25-0.53-0.35-0.62l-0.13-0.27l0.11-0.22c0.07-0.06,0.15-0.08,0.23-0.06
			c0.1,0.02,0.19,0.1,0.24,0.22c0.06,0.16,0.36,0.61,0.59,0.54c0.19-0.06,0.47-0.37,0.59-0.76C49.51,58.13,49.47,57.71,49.36,57.56
			L49.36,57.56z M47.62,58.41L47.62,58.41c-0.34,0.25-0.82,0.17-1.06-0.18c-0.25-0.34-0.16-0.82,0.18-1.06
			c0.34-0.24,0.82-0.16,1.07,0.18C48.04,57.69,47.96,58.17,47.62,58.41L47.62,58.41z M39.11,43.69L39.11,43.69
			c0.14-0.06,0.24-0.16,0.29-0.27c0.12,0.02,0.28,0.02,0.45-0.02c0.2-0.04,1.61-0.66,2.28-0.95c0,0,0,0.01,0.01,0.01
			c0.29,0.43,0.74,0.99,1.12,1.2c0.56,0.32,0.8,0.22,0.91,0.03c0.11-0.19-0.06-0.52-0.5-0.74c-0.27-0.14-0.61-0.44-0.86-0.74
			c0,0,0,0,0-0.01c0.36-0.18,1.04-0.51,1.8-0.89c-0.03-0.02-0.05-0.03-0.06-0.04c-0.04-0.03-0.04-0.05-0.05-0.09
			c-0.09-0.15-0.13-0.31-0.13-0.41c0,0,0-0.03,0-0.06c-0.01-0.04-0.03-0.18-0.03-0.18s-0.03-0.15-0.08-0.35
			c-0.83,0.38-1.58,0.72-1.98,0.9c0,0,0,0,0,0c-0.07-0.39-0.1-0.83-0.03-1.13c0.11-0.49-0.04-0.82-0.26-0.86
			c-0.22-0.04-0.45,0.09-0.56,0.72c-0.07,0.43,0.08,1.12,0.23,1.63c0,0,0,0,0,0.01c-0.65,0.34-2.03,1.04-2.19,1.17
			c-0.13,0.11-0.23,0.23-0.3,0.34c-0.12-0.03-0.26-0.02-0.39,0.05c-0.26,0.12-0.39,0.37-0.3,0.55
			C38.57,43.76,38.85,43.81,39.11,43.69L39.11,43.69z M43.06,37.03L43.06,37.03c-0.06-0.26-0.3-0.11-0.3-0.11
			c-0.32-0.44-0.9-0.59-0.9-0.59c-0.06-0.1-0.21-0.2-0.34-0.27c-0.06-0.45-0.31-0.84-0.7-1.01c-0.59-0.26-1.31,0.03-1.71,0.66
			c-0.04-0.05-0.09-0.09-0.16-0.13c-0.19-0.09-0.41-0.02-0.49,0.15c-0.07,0.17,0.02,0.38,0.21,0.46c0.07,0.03,0.14,0.04,0.2,0.04
			c-0.2,0.72,0.07,1.45,0.66,1.71c0.4,0.18,0.85,0.1,1.23-0.16c0.14,0.05,0.32,0.09,0.43,0.07c0,0,0.5,0.33,1.04,0.27
			c0,0,0.04,0.28,0.28,0.15c0,0,0.35,0.46,0.88,0.31c0,0,0.17,0.07,0.45,0.18c0.05-0.13,0.11-0.31,0.11-0.32
			c0.21-0.25,0.43-0.47,0.65-0.64c-0.45-0.21-0.72-0.35-0.72-0.35C43.64,36.98,43.06,37.03,43.06,37.03L43.06,37.03z M40.63,36.54
			L40.63,36.54c-0.17-0.02-0.26-0.32-0.08-0.45c0,0-0.34-0.21-0.39,0.24c0,0-0.25-0.22-0.47-0.06c0.03,0.27,0.36,0.31,0.36,0.31
			c-0.3,0.34,0.08,0.45,0.08,0.45c-0.03-0.22,0.25-0.34,0.38-0.24c0.13,0.1,0.04,0.4-0.12,0.55c-0.18,0.18-0.46,0.21-0.66,0.12
			c-0.37-0.16-0.47-0.73-0.23-1.26c0.24-0.54,0.73-0.84,1.1-0.67c0.19,0.09,0.34,0.33,0.35,0.56
			C40.97,36.31,40.79,36.56,40.63,36.54L40.63,36.54z M50.08,38.46L50.08,38.46l0.03,0.09c2.55-1.27,4.78-2.38,4.98-2.48
			c0.49-0.23,0.78-0.77,0.78-0.77s-0.6-0.11-1.09,0.12c-0.21,0.1-2.64,1.19-5.35,2.42C49.66,38.03,49.89,38.23,50.08,38.46
			L50.08,38.46z M71.71,61.84L71.71,61.84c-0.43-0.38-1.18-0.75-1.61-1.23c-0.16-0.18-0.76-0.39-1.47-0.61
			c-0.02-0.01-0.04-0.02-0.05-0.03c-0.17-0.07-0.51-0.17-0.89-0.27c0.2,0.51,1.04,1.22,1.46,1.52c0.29,0.21,0.21,0.41,0.16,0.52
			c0,0-0.36-0.34-0.8-0.31c-0.44,0.02-0.88-0.13-1.5,0.23c-0.62,0.36-0.96,0.54-1.08,0.98c-0.08,0.29-0.13,0.49-0.13,0.49
			s-0.44-0.52-0.47-0.85c0,0-0.93-0.6-1.45-0.65c-0.52-0.05-1.14,0.13-1.19,0.41c0,0-0.06-0.55,0.29-0.9
			c0.15-0.16,0.41-0.36,0.41-0.36s-0.29-0.23-0.47-0.05c0,0,0.05-0.54,0.31-0.57c0.26-0.03,1.4-0.03,1.81-0.03
			c0.42,0,1.22-0.16,1.4-0.65c0.01-0.03,0.02-0.06,0.03-0.1c-0.2-0.05-0.37-0.09-0.49-0.13c-0.25-0.08-0.46-0.15-0.59-0.21
			c-0.81-0.38-2.25-0.43-3.06-0.48l-0.23-0.07l-0.01-1.72l-0.22-0.02c-1.05-0.11-2.47,0.03-3.4,0.69l-0.05-0.02h0
			c-0.7-0.2-1.48-0.33-2.63-0.63c-0.03-0.01-0.32-0.1-0.51-0.16c1.14-1.48,2.01-3.3,2.29-5.52l-0.44,0.01
			c-0.9,6.9-7.81,9.83-9.83,10.28c-2.08-0.46-9.28-3.52-9.92-10.74h-0.43c0.22,2.52,1.2,4.55,2.49,6.16
			c-1.01,0.15-2.36,0.45-2.85,0.56c-0.19,0.05-0.35,0.1-0.5,0.16c-0.02,0.01-0.05,0.02-0.07,0.02c-0.82-0.86-2.44-1.13-3.64-0.95
			l-0.21,0.03l-0.01,2.1c-0.87,0.03-1.7,0.01-2.06,0.04c-0.34,0.03-0.91,0.27-1.45,0.51c0.22,0.12,0.55,0.2,0.84,0.2
			c0,0,1.85,0.03,1.85,0.03c0.4,0.04,0.59,0.48,0.62,0.89c0,0,0.03,0.28,0.05,0.55c0.12,0.26,0.19,0.53,0.19,0.69
			c0,0.08-0.01,0.13-0.01,0.15l-0.21,0.6l-0.47-0.54c-0.07-0.08-0.44-0.21-0.83-0.17c-0.29,0.03-0.84,0.32-1.19,0.53
			c-0.12,0.38-0.42,0.76-0.49,0.85l-0.44,0.51l-0.3-1.13c-0.07-0.27-0.27-0.39-0.82-0.71l-0.1-0.06c-0.37-0.22-0.65-0.21-0.97-0.19
			c0,0-0.38,0-0.38,0c-0.23-0.02-0.47,0.15-0.54,0.22L25.07,62l-0.21-0.41c-0.18-0.35-0.08-0.71,0.26-0.96
			c0.18-0.13,0.37-0.28,0.55-0.44c-0.04,0.01-0.09,0.02-0.13,0.03c-0.54,0.11-1.82,0.91-2.58,1.18c-0.75,0.27-1.88,0.86-1.83,1.23
			c0.05,0.38,0.87,1.74,1.84,2c0.12,0.03,0.23,0.06,0.33,0.08v-0.81h5.21c2.83-0.57,5.91-1.62,6.18-3.01c0,0-0.97-0.52-2.08-0.42
			v-1.81c0,0-0.01,0-0.01,0c0-0.36,0.01-1.3,0.01-1.58c0.94-0.09,2.12,0.1,2.8,0.65c0.01,0.01,0.03,0.02,0.04,0.04
			c0.08,0.1,0.41,0.5,0.41,0.76v5.07c0,0-0.06,0.13-0.18,0.31h3.47V63.9h19.11l-0.01-0.02l0.09,0.03h0.15
			c-0.12-0.18-0.18-0.31-0.18-0.31v-5.07c0-0.16,0.12-0.36,0.23-0.53c0.68-0.63,1.94-0.84,3.02-0.77c0,0.2,0,0.7,0,1.11l0,0v2.14
			c-1.11-0.1-2.08,0.42-2.08,0.42c0.27,1.39,3.35,2.43,6.18,3.01h5.17v1.21c0.14-0.08,0.26-0.16,0.35-0.24v0
			c0.66-0.34,1.2-1.24,1.33-1.65C72.68,62.72,72.14,62.21,71.71,61.84L71.71,61.84z M55.71,43.75L55.71,43.75
			c0.12-0.04,0.26-0.17,0.28-0.22c0.02-0.06,0.03-0.24-0.02-0.36c-0.31-0.76-1.32-0.77-1.32-0.77c-0.13-0.21-0.4-0.1-0.4-0.1
			c-0.8-0.79-1.78-0.98-1.78-0.98c-0.25-0.33-0.58-0.15-0.58-0.15c-0.7-0.31-1.41-0.62-2.12-0.94c-0.03,0.13-0.07,0.31-0.07,0.31
			c-0.01,0.05-0.02,0.09-0.03,0.13c0,0.03,0.01,0.1,0.01,0.1c0,0.13-0.03,0.29-0.12,0.44c0.65,0.28,1.3,0.57,1.93,0.86
			c0,0,0.09,0.36,0.5,0.33c0,0,0.79,0.6,1.91,0.66c0,0,0.1,0.28,0.34,0.23C54.26,43.29,54.94,44.03,55.71,43.75L55.71,43.75z
			 M45.26,59.42L45.26,59.42c-0.13,0.67,0.04,0.92,0.04,0.92c0.25,0.04,0.84-0.26,0.84-0.26c-0.35-0.17-0.16-0.63-0.16-0.63
			C45.53,59.74,45.26,59.42,45.26,59.42L45.26,59.42z M47.18,55.76L47.18,55.76c0.19-0.5,0.6-0.41,0.6-0.41
			c-0.29-0.62-0.58-0.72-0.58-0.72c-0.22,0.11-0.53,0.71-0.53,0.71C47.06,55.28,47.18,55.76,47.18,55.76L47.18,55.76z M44.18,56.8
			L44.18,56.8c0.04,0.25,0.51,0.72,0.51,0.72c0.05-0.39,0.55-0.35,0.55-0.35c-0.42-0.34-0.2-0.69-0.2-0.69
			C44.36,56.56,44.18,56.8,44.18,56.8L44.18,56.8z M49.68,57.61L49.68,57.61c0.5-0.47,0.51-0.77,0.51-0.77
			c-0.18-0.18-0.83-0.28-0.83-0.28c0.18,0.34-0.24,0.61-0.24,0.61C49.65,57.19,49.68,57.61,49.68,57.61L49.68,57.61z M44.28,38.74
			L44.28,38.74c-0.04,0.05-0.08,0.18-0.02,0.25c0.06,0.07,0.1,0.09,0.17,0.15c0.06,0.07,0.25,1.18,0.29,1.29
			c0.04,0.11,0.05,0.27,0.05,0.27s-0.02,0.21,0.06,0.29c0.07,0.06,0.19,0.06,0.22,0.09c0.02,0.04,0.02,0.1,0.19,0.06
			c0.18-0.04,0.9-0.32,1.78-0.32c0.89,0,1.6,0.27,1.78,0.32c0.18,0.04,0.17-0.02,0.19-0.06c0.03-0.04,0.15-0.03,0.22-0.09
			c0.08-0.08,0.05-0.29,0.05-0.29s0.01-0.16,0.05-0.27c0.04-0.11,0.23-1.22,0.3-1.29c0.07-0.06,0.11-0.08,0.17-0.15
			c0.07-0.07,0.02-0.2-0.02-0.25c-0.84-1-1.87-1.33-2.56-1.41l-0.1-0.23l0.27,0.12v-0.4l-0.27,0.12l0.12-0.27h-0.4l0.13,0.27
			l-0.27-0.12v0.4l0.27-0.13l-0.1,0.22C46.16,37.35,45.12,37.73,44.28,38.74L44.28,38.74z M47.15,38.98L47.15,38.98l0.2-0.39h-0.15
			c0.09-0.21,0.22-0.51,0.24-0.57c0.03-0.06,0.1-0.11,0.23-0.06c0.13,0.05,1.06,0.34,1.47,0.99c0.06,0.09-0.14,0.65-0.37,0.74
			c-0.23,0.09-0.54-0.02-0.54-0.13c-0.01-0.18,0.28-0.27,0.41-0.11c0,0,0.17-0.34-0.25-0.34c0,0,0.18-0.25,0.02-0.45
			c-0.25,0.06-0.26,0.36-0.26,0.36c-0.34-0.23-0.41,0.12-0.41,0.12c0.2-0.05,0.35,0.2,0.28,0.34c-0.03,0.04-0.08,0.13-0.39,0.1
			c-0.09-0.01-0.22-0.04-0.33-0.09l-0.14-0.28l0.44,0.18v-0.58L47.15,38.98L47.15,38.98z M46.9,38.99L46.9,38.99l-0.45-0.18v0.58
			l0.45-0.19l-0.15,0.29c-0.11,0.06-0.25,0.08-0.34,0.09c-0.31,0.03-0.36-0.06-0.39-0.1c-0.08-0.13,0.07-0.38,0.27-0.34
			c0,0-0.06-0.35-0.4-0.12c0,0-0.01-0.4-0.26-0.46c-0.16,0.19,0.02,0.54,0.02,0.54c-0.42,0-0.25,0.34-0.25,0.34
			c0.13-0.16,0.42-0.07,0.41,0.11c-0.01,0.1-0.31,0.22-0.54,0.13c-0.23-0.09-0.43-0.65-0.37-0.74c0.41-0.65,1.34-0.94,1.47-0.99
			c0.13-0.05,0.21,0,0.24,0.06c0.02,0.06,0.15,0.36,0.24,0.57h-0.16L46.9,38.99L46.9,38.99z"/>
		<path d="M47.02,4.25c-23.48,0-42.52,19.04-42.52,42.52c0,23.48,19.03,42.52,42.52,42.52c23.48,0,42.52-19.04,42.52-42.52
			C89.54,23.29,70.5,4.25,47.02,4.25L47.02,4.25z M47.02,81L47.02,81c-18.9,0-34.23-15.32-34.23-34.23
			c0-18.91,15.33-34.23,34.23-34.23c18.91,0,34.23,15.33,34.23,34.23C81.26,65.68,65.93,81,47.02,81L47.02,81z"/>
		<path d="M107.38,24.7h10.66l7.68,30.26h-8.56l-1.6-7.72h-5.67l-1.6,7.72h-8.56L107.38,24.7L107.38,24.7z M110.74,41.54
			L110.74,41.54h3.95l-1.43-7.22c-0.08-0.42-0.17-1.01-0.3-1.64c-0.12-1.09-0.17-1.64-0.21-3.07c-0.08,1.43-0.13,2.02-0.25,3.07
			c-0.12,0.59-0.21,1.17-0.29,1.64L110.74,41.54L110.74,41.54z"/>
		<path d="M145.29,30.91c-1.39-0.46-2.39-0.63-3.48-0.63c-4.11,0-5.92,2.98-5.92,9.78c0,6.51,1.85,9.4,6,9.4
			c1.34,0,2.73-0.29,4.32-1.05l0.71,5.79c-2.56,0.88-4.78,1.3-7.05,1.3c-8.1,0-12.68-5.62-12.68-15.53
			c0-9.86,4.66-15.74,12.59-15.74c2.18,0,4.32,0.38,6.51,1.18L145.29,30.91L145.29,30.91z"/>
		<polygon points="149.75,24.7 171.24,24.7 171.24,30.45 164.69,31 164.69,54.97 156.22,54.97 156.22,31 149.75,30.41 149.75,24.7 
					"/>
		<path d="M106.13,60.04c-0.77-0.52-1.44-0.76-2.17-0.76c-0.84,0-1.59,0.44-1.97,1.19c-0.39,0.75-0.56,1.74-0.56,3.37
			c0,1.49,0.15,2.3,0.51,3.07c0.37,0.76,1.1,1.17,2.07,1.17c0.57,0,1.05-0.12,1.63-0.41v-3.41h-2.3v-1.1h3.8v5.35
			c-1.47,0.59-2.27,0.78-3.26,0.78c-2.75,0-4.15-1.82-4.15-5.43c0-3.79,1.4-5.76,4.07-5.76c1.02,0,1.88,0.3,2.83,0.93L106.13,60.04
			L106.13,60.04z"/>
		<path d="M111.78,61.38c2.15,0,3.26,1.35,3.26,3.95c0,2.62-1.11,3.97-3.26,3.97c-2.15,0-3.26-1.35-3.26-3.97
			C108.51,62.73,109.62,61.38,111.78,61.38L111.78,61.38z M110.02,65.33L110.02,65.33c0,1.91,0.6,2.9,1.76,2.9
			c1.14,0,1.74-1.01,1.74-2.9c0-1.88-0.6-2.87-1.74-2.87C110.62,62.46,110.02,63.45,110.02,65.33L110.02,65.33z"/>
		<path d="M116.93,61.38l1.67,5.63c0.08,0.22,0.13,0.53,0.19,0.95c0.06-0.42,0.15-0.81,0.19-0.95l1.63-5.46h1.46l-2.42,7.55h-1.82
			l-2.41-7.53L116.93,61.38L116.93,61.38z"/>
		<path d="M124.03,65.81c0.12,1.5,0.99,2.33,2.4,2.33c0.51,0,1.04-0.1,1.75-0.37l0.27,1.08c-0.8,0.27-1.58,0.42-2.33,0.42
			c-2.35,0-3.67-1.49-3.67-4.04c0-2.39,1.2-3.85,3.22-3.85c1.95,0,3.03,1.35,3.03,3.77c0,0.15,0,0.36-0.01,0.66H124.03L124.03,65.81
			z M123.91,64.83L123.91,64.83h3.39V64.8c0-1.53-0.59-2.35-1.65-2.35C124.56,62.46,123.94,63.32,123.91,64.83L123.91,64.83z"/>
		<path d="M130.01,61.57l1.43-0.06v0.6c0.63-0.5,1.1-0.68,1.88-0.68l-0.16,1.37c-0.21-0.05-0.32-0.05-0.48-0.05
			c-0.48,0-0.84,0.11-1.23,0.39v5.96h-1.43V61.57L130.01,61.57z"/>
		<path d="M134.22,61.57l1.4-0.19v0.7c0.8-0.51,1.47-0.74,2.19-0.74c0.71,0,1.34,0.22,1.76,0.63c0.44,0.42,0.59,0.89,0.59,1.88v5.25
			h-1.41v-4.93c0-0.29-0.01-0.52-0.06-0.69c-0.11-0.57-0.63-0.95-1.33-0.95c-0.54,0-1.1,0.21-1.71,0.65v5.92h-1.42V61.57
			L134.22,61.57z"/>
		<path d="M141.81,61.57l1.41-0.16v0.57c0.69-0.43,1.29-0.63,1.92-0.63c0.63,0,1.22,0.19,1.61,0.57c0.11,0.1,0.18,0.17,0.3,0.36
			c0.78-0.61,1.53-0.9,2.31-0.9c0.69,0,1.29,0.24,1.7,0.66c0.42,0.45,0.56,0.87,0.56,1.88v5.19h-1.41v-4.87
			c0-0.32-0.01-0.54-0.04-0.72c-0.11-0.57-0.63-0.98-1.28-0.98c-0.51,0-0.96,0.21-1.49,0.68v5.9h-1.41v-4.84
			c0-0.39,0-0.59-0.02-0.74c-0.09-0.57-0.63-0.99-1.32-0.99c-0.51,0-0.93,0.17-1.43,0.57v6h-1.41V61.57L141.81,61.57z"/>
		<path d="M154.56,65.81c0.12,1.5,0.99,2.33,2.41,2.33c0.51,0,1.04-0.1,1.74-0.37l0.27,1.08c-0.8,0.27-1.58,0.42-2.33,0.42
			c-2.34,0-3.66-1.49-3.66-4.04c0-2.39,1.2-3.85,3.22-3.85c1.95,0,3.03,1.35,3.03,3.77c0,0.15,0,0.36-0.01,0.66H154.56L154.56,65.81
			z M154.44,64.83L154.44,64.83h3.4V64.8c0-1.53-0.59-2.35-1.65-2.35C155.09,62.46,154.47,63.32,154.44,64.83L154.44,64.83z"/>
		<path d="M160.55,61.57l1.4-0.19v0.7c0.8-0.51,1.47-0.74,2.19-0.74c0.71,0,1.34,0.22,1.76,0.63c0.44,0.42,0.59,0.89,0.59,1.88v5.25
			h-1.41v-4.93c0-0.29-0.02-0.52-0.06-0.69c-0.11-0.57-0.63-0.95-1.34-0.95c-0.54,0-1.09,0.21-1.71,0.65v5.92h-1.41V61.57
			L160.55,61.57z"/>
		<path d="M167.41,61.56h0.93v-1.25l1.42-0.22v1.47h1.49v0.95l-1.48,0.13v4.51c0,0.29,0,0.42,0.02,0.53
			c0.03,0.31,0.29,0.51,0.68,0.51c0.24,0,0.46-0.05,0.78-0.15v1.02c-0.39,0.14-0.8,0.21-1.23,0.21c-0.59,0-1.05-0.16-1.34-0.43
			c-0.24-0.25-0.33-0.62-0.33-1.26v-4.96l-0.93-0.09V61.56L167.41,61.56z"/>
	</g>
	<g>
		<path d="M24.69,65.42v0.4h0.64v0.28h-0.64v0.55h-0.32v-1.5h1.04v0.28H24.69z"/>
		<path d="M25.89,66.56c-0.11-0.07-0.2-0.16-0.27-0.28c-0.06-0.12-0.1-0.25-0.1-0.4c0-0.15,0.03-0.28,0.1-0.4
			c0.06-0.12,0.15-0.21,0.27-0.28c0.11-0.07,0.24-0.1,0.39-0.1c0.14,0,0.27,0.03,0.39,0.1c0.11,0.07,0.2,0.16,0.27,0.28
			c0.07,0.12,0.1,0.25,0.1,0.4c0,0.15-0.03,0.28-0.1,0.4c-0.07,0.12-0.16,0.21-0.27,0.28c-0.11,0.07-0.24,0.1-0.39,0.1
			C26.14,66.66,26.01,66.63,25.89,66.56z M26.5,66.31c0.07-0.04,0.12-0.1,0.15-0.17c0.04-0.07,0.06-0.16,0.06-0.25
			c0-0.09-0.02-0.18-0.06-0.25c-0.04-0.07-0.09-0.13-0.15-0.17c-0.07-0.04-0.14-0.06-0.22-0.06c-0.08,0-0.15,0.02-0.22,0.06
			c-0.07,0.04-0.12,0.1-0.15,0.17c-0.04,0.07-0.06,0.16-0.06,0.25c0,0.09,0.02,0.18,0.06,0.25c0.04,0.07,0.09,0.13,0.15,0.17
			c0.07,0.04,0.14,0.06,0.22,0.06C26.36,66.37,26.43,66.35,26.5,66.31z"/>
		<path d="M28.15,66.64l-0.27-0.42h-0.02h-0.28v0.42h-0.32v-1.5h0.6c0.12,0,0.23,0.02,0.32,0.07c0.09,0.04,0.16,0.11,0.21,0.19
			c0.05,0.08,0.07,0.18,0.07,0.29s-0.02,0.21-0.07,0.29c-0.05,0.08-0.12,0.14-0.21,0.18l0.31,0.48H28.15z M28.07,65.49
			c-0.05-0.04-0.12-0.07-0.22-0.07h-0.26v0.52h0.26c0.1,0,0.17-0.02,0.22-0.07c0.05-0.05,0.07-0.11,0.07-0.19
			C28.14,65.6,28.12,65.53,28.07,65.49z"/>
		<path d="M29.76,65.42h-0.44v-0.28h1.2v0.28h-0.44v1.21h-0.32V65.42z"/>
		<path d="M31.95,65.14v1.5h-0.32v-0.61H31v0.61h-0.32v-1.5H31v0.59h0.63v-0.59H31.95z"/>
		<path d="M33.34,66.36v0.28h-1.07v-1.5h1.04v0.28h-0.72v0.32h0.64v0.27h-0.64v0.35H33.34z"/>
		<path d="M34.75,66.05l-0.18,0.21v0.38h-0.32v-1.5h0.32v0.7l0.61-0.7h0.35l-0.57,0.67l0.6,0.83h-0.37L34.75,66.05z"/>
		<path d="M35.7,65.14h0.32v1.5H35.7V65.14z"/>
		<path d="M37.61,65.14v1.5h-0.26l-0.69-0.91v0.91h-0.31v-1.5h0.26l0.68,0.91v-0.91H37.61z"/>
		<path d="M38.87,65.86h0.29v0.61c-0.07,0.06-0.16,0.11-0.26,0.14c-0.1,0.03-0.2,0.05-0.3,0.05c-0.14,0-0.27-0.03-0.39-0.1
			c-0.11-0.07-0.2-0.16-0.27-0.28s-0.1-0.25-0.1-0.4c0-0.15,0.03-0.28,0.1-0.4c0.06-0.12,0.16-0.21,0.27-0.28
			c0.12-0.07,0.24-0.1,0.39-0.1c0.12,0,0.23,0.02,0.33,0.07c0.1,0.04,0.18,0.11,0.25,0.19l-0.2,0.21c-0.1-0.11-0.22-0.17-0.36-0.17
			c-0.09,0-0.17,0.02-0.23,0.06c-0.07,0.04-0.12,0.1-0.16,0.17c-0.04,0.07-0.06,0.16-0.06,0.25c0,0.09,0.02,0.18,0.06,0.25
			c0.04,0.07,0.09,0.13,0.16,0.17c0.07,0.04,0.14,0.06,0.23,0.06c0.09,0,0.17-0.02,0.25-0.06V65.86z"/>
		<path d="M39.7,66.3c0.04,0.04,0.05,0.09,0.05,0.15c0,0.03,0,0.06-0.01,0.09c-0.01,0.03-0.02,0.07-0.04,0.13l-0.11,0.31H39.4
			l0.09-0.34c-0.03-0.01-0.06-0.04-0.08-0.07c-0.02-0.03-0.03-0.07-0.03-0.11c0-0.06,0.02-0.11,0.05-0.15
			c0.04-0.04,0.08-0.06,0.14-0.06C39.62,66.24,39.67,66.26,39.7,66.3z"/>
		<path d="M41.03,65.42h-0.44v-0.28h1.2v0.28h-0.44v1.21h-0.32V65.42z"/>
		<path d="M43.22,65.14v1.5H42.9v-0.61h-0.63v0.61h-0.32v-1.5h0.32v0.59h0.63v-0.59H43.22z"/>
		<path d="M44.61,66.36v0.28h-1.07v-1.5h1.04v0.28h-0.72v0.32h0.64v0.27h-0.64v0.35H44.61z"/>
		<path d="M45.52,65.14h0.32v1.21h0.69v0.28h-1.01V65.14z"/>
		<path d="M47.62,66.32h-0.64l-0.12,0.32h-0.33l0.61-1.5h0.31l0.62,1.5h-0.33L47.62,66.32z M47.52,66.05l-0.22-0.57l-0.22,0.57
			H47.52z"/>
		<path d="M50.23,65.14l-0.45,1.5h-0.34l-0.3-1.01l-0.31,1.01h-0.34l-0.45-1.5h0.33l0.31,1.05l0.32-1.05h0.3l0.31,1.06l0.32-1.06
			H50.23z"/>
		<path d="M50.59,66.3c0.04,0.04,0.05,0.09,0.05,0.15c0,0.03,0,0.06-0.01,0.09c-0.01,0.03-0.02,0.07-0.04,0.13l-0.11,0.31h-0.19
			l0.09-0.34c-0.03-0.01-0.06-0.04-0.08-0.07c-0.02-0.03-0.03-0.07-0.03-0.11c0-0.06,0.02-0.11,0.05-0.15
			c0.04-0.04,0.08-0.06,0.14-0.06C50.51,66.24,50.56,66.26,50.59,66.3z"/>
		<path d="M52.44,66.32H51.8l-0.12,0.32h-0.33l0.61-1.5h0.31l0.62,1.5h-0.33L52.44,66.32z M52.34,66.05l-0.22-0.57l-0.22,0.57H52.34
			z"/>
		<path d="M54.3,65.14v1.5h-0.26l-0.69-0.91v0.91h-0.31v-1.5h0.26l0.68,0.91v-0.91H54.3z"/>
		<path d="M54.63,65.14h0.63c0.15,0,0.28,0.03,0.4,0.09c0.12,0.06,0.2,0.15,0.27,0.26c0.06,0.11,0.1,0.24,0.1,0.39
			c0,0.15-0.03,0.28-0.1,0.39c-0.06,0.11-0.15,0.2-0.27,0.26c-0.11,0.06-0.25,0.09-0.4,0.09h-0.63V65.14z M55.24,66.35
			c0.14,0,0.25-0.04,0.33-0.12c0.08-0.08,0.12-0.2,0.12-0.34c0-0.14-0.04-0.25-0.12-0.34c-0.08-0.08-0.19-0.13-0.33-0.13h-0.29v0.93
			H55.24z"/>
		<path d="M57.19,65.42h-0.44v-0.28h1.2v0.28h-0.44v1.21h-0.32V65.42z"/>
		<path d="M59.38,65.14v1.5h-0.32v-0.61h-0.63v0.61h-0.32v-1.5h0.32v0.59h0.63v-0.59H59.38z"/>
		<path d="M60.78,66.36v0.28h-1.07v-1.5h1.04v0.28h-0.72v0.32h0.64v0.27h-0.64v0.35H60.78z"/>
		<path d="M62.6,65.21c0.09,0.04,0.16,0.11,0.21,0.19c0.05,0.08,0.07,0.18,0.07,0.29c0,0.11-0.02,0.21-0.07,0.29
			c-0.05,0.08-0.12,0.15-0.21,0.19c-0.09,0.04-0.2,0.07-0.32,0.07H62v0.41h-0.32v-1.5h0.6C62.4,65.14,62.51,65.16,62.6,65.21z
			 M62.48,65.87c0.05-0.05,0.07-0.11,0.07-0.19c0-0.08-0.03-0.15-0.07-0.19c-0.05-0.04-0.12-0.07-0.22-0.07H62v0.52h0.26
			C62.36,65.94,62.43,65.92,62.48,65.87z"/>
		<path d="M64.17,66.36v0.28H63.1v-1.5h1.04v0.28h-0.72v0.32h0.64v0.27h-0.64v0.35H64.17z"/>
		<path d="M64.7,66.56c-0.11-0.07-0.2-0.16-0.27-0.28c-0.06-0.12-0.1-0.25-0.1-0.4c0-0.15,0.03-0.28,0.1-0.4
			c0.06-0.12,0.15-0.21,0.27-0.28c0.11-0.07,0.24-0.1,0.39-0.1c0.14,0,0.27,0.03,0.39,0.1c0.11,0.07,0.2,0.16,0.27,0.28
			c0.07,0.12,0.1,0.25,0.1,0.4c0,0.15-0.03,0.28-0.1,0.4c-0.07,0.12-0.16,0.21-0.27,0.28c-0.11,0.07-0.24,0.1-0.39,0.1
			C64.94,66.66,64.81,66.63,64.7,66.56z M65.31,66.31c0.07-0.04,0.12-0.1,0.15-0.17c0.04-0.07,0.06-0.16,0.06-0.25
			c0-0.09-0.02-0.18-0.06-0.25c-0.04-0.07-0.09-0.13-0.15-0.17c-0.07-0.04-0.14-0.06-0.22-0.06c-0.08,0-0.15,0.02-0.22,0.06
			c-0.07,0.04-0.12,0.1-0.15,0.17c-0.04,0.07-0.06,0.16-0.06,0.25c0,0.09,0.02,0.18,0.06,0.25c0.04,0.07,0.09,0.13,0.15,0.17
			c0.07,0.04,0.14,0.06,0.22,0.06C65.17,66.37,65.24,66.35,65.31,66.31z"/>
		<path d="M66.99,65.21c0.09,0.04,0.16,0.11,0.21,0.19c0.05,0.08,0.07,0.18,0.07,0.29c0,0.11-0.02,0.21-0.07,0.29
			c-0.05,0.08-0.12,0.15-0.21,0.19c-0.09,0.04-0.2,0.07-0.32,0.07H66.4v0.41h-0.32v-1.5h0.6C66.8,65.14,66.9,65.16,66.99,65.21z
			 M66.87,65.87c0.05-0.05,0.07-0.11,0.07-0.19c0-0.08-0.03-0.15-0.07-0.19c-0.05-0.04-0.12-0.07-0.22-0.07H66.4v0.52h0.26
			C66.75,65.94,66.82,65.92,66.87,65.87z"/>
		<path d="M67.5,65.14h0.32v1.21h0.69v0.28H67.5V65.14z"/>
		<path d="M69.75,66.36v0.28h-1.07v-1.5h1.04v0.28H69v0.32h0.64v0.27H69v0.35H69.75z"/>
	</g>
</g>
</svg>
