<?xml version="1.0" encoding="utf-8"?>
<!-- Generator: Adobe Illustrator 27.8.1, SVG Export Plug-In . SVG Version: 6.00 Build 0)  -->
<svg version="1.1" id="Layer_1" xmlns="http://www.w3.org/2000/svg" xmlns:xlink="http://www.w3.org/1999/xlink" x="0px" y="0px"
	 viewBox="0 0 175.75 93.54" style="enable-background:new 0 0 175.75 93.54;" xml:space="preserve">
<style type="text/css">
	.st0{fill:#FFFFFF;}
</style>
<g>
	<g>
		<path class="st0" d="M107.38,24.7h10.66l7.68,30.26h-8.56l-1.6-7.72h-5.67l-1.6,7.72h-8.56L107.38,24.7L107.38,24.7z
			 M110.74,41.54L110.74,41.54h3.95l-1.43-7.22c-0.08-0.42-0.17-1.01-0.3-1.64c-0.12-1.09-0.17-1.64-0.21-3.07
			c-0.08,1.43-0.13,2.02-0.25,3.07c-0.12,0.59-0.21,1.17-0.29,1.64L110.74,41.54L110.74,41.54z"/>
		<path class="st0" d="M145.29,30.91c-1.39-0.46-2.39-0.63-3.48-0.63c-4.11,0-5.92,2.98-5.92,9.78c0,6.51,1.85,9.4,6,9.4
			c1.34,0,2.73-0.29,4.32-1.05l0.71,5.79c-2.56,0.88-4.78,1.3-7.05,1.3c-8.1,0-12.68-5.62-12.68-15.53
			c0-9.86,4.66-15.74,12.59-15.74c2.18,0,4.32,0.38,6.51,1.18L145.29,30.91L145.29,30.91z"/>
		<polygon class="st0" points="149.75,24.7 171.24,24.7 171.24,30.45 164.69,31 164.69,54.97 156.22,54.97 156.22,31 149.75,30.41 
			149.75,24.7 		"/>
		<path class="st0" d="M106.13,60.04c-0.77-0.52-1.44-0.76-2.17-0.76c-0.84,0-1.59,0.44-1.97,1.19c-0.39,0.75-0.56,1.74-0.56,3.37
			c0,1.49,0.15,2.3,0.51,3.07c0.37,0.76,1.1,1.17,2.07,1.17c0.57,0,1.05-0.12,1.63-0.41v-3.41h-2.3v-1.1h3.8v5.35
			c-1.47,0.59-2.27,0.78-3.26,0.78c-2.75,0-4.15-1.82-4.15-5.43c0-3.79,1.4-5.76,4.07-5.76c1.02,0,1.88,0.3,2.83,0.93L106.13,60.04
			L106.13,60.04z"/>
		<path class="st0" d="M111.78,61.38c2.15,0,3.26,1.35,3.26,3.95c0,2.62-1.11,3.97-3.26,3.97c-2.15,0-3.26-1.35-3.26-3.97
			C108.51,62.73,109.62,61.38,111.78,61.38L111.78,61.38z M110.02,65.33L110.02,65.33c0,1.91,0.6,2.9,1.76,2.9
			c1.14,0,1.74-1.01,1.74-2.9c0-1.88-0.6-2.87-1.74-2.87C110.62,62.46,110.02,63.45,110.02,65.33L110.02,65.33z"/>
		<path class="st0" d="M116.93,61.38l1.67,5.63c0.08,0.22,0.13,0.53,0.19,0.95c0.06-0.42,0.15-0.81,0.19-0.95l1.63-5.46h1.46
			l-2.42,7.55h-1.82l-2.41-7.53L116.93,61.38L116.93,61.38z"/>
		<path class="st0" d="M124.03,65.81c0.12,1.5,0.99,2.33,2.4,2.33c0.51,0,1.04-0.1,1.75-0.37l0.27,1.08
			c-0.8,0.27-1.58,0.42-2.33,0.42c-2.35,0-3.67-1.49-3.67-4.04c0-2.39,1.2-3.85,3.22-3.85c1.95,0,3.03,1.35,3.03,3.77
			c0,0.15,0,0.36-0.01,0.66H124.03L124.03,65.81z M123.91,64.83L123.91,64.83h3.39V64.8c0-1.53-0.59-2.35-1.65-2.35
			C124.56,62.46,123.94,63.32,123.91,64.83L123.91,64.83z"/>
		<path class="st0" d="M130.01,61.57l1.43-0.06v0.6c0.63-0.5,1.1-0.68,1.88-0.68l-0.16,1.37c-0.21-0.05-0.32-0.05-0.48-0.05
			c-0.48,0-0.84,0.11-1.23,0.39v5.96h-1.43V61.57L130.01,61.57z"/>
		<path class="st0" d="M134.22,61.57l1.4-0.19v0.7c0.8-0.51,1.47-0.74,2.19-0.74c0.71,0,1.34,0.22,1.76,0.63
			c0.44,0.42,0.59,0.89,0.59,1.88v5.25h-1.41v-4.93c0-0.29-0.01-0.52-0.06-0.69c-0.11-0.57-0.63-0.95-1.33-0.95
			c-0.54,0-1.1,0.21-1.71,0.65v5.92h-1.42V61.57L134.22,61.57z"/>
		<path class="st0" d="M141.81,61.57l1.41-0.16v0.57c0.69-0.43,1.29-0.63,1.92-0.63c0.63,0,1.22,0.19,1.61,0.57
			c0.11,0.1,0.18,0.17,0.3,0.36c0.78-0.61,1.53-0.9,2.31-0.9c0.69,0,1.29,0.24,1.7,0.66c0.42,0.45,0.56,0.87,0.56,1.88v5.19h-1.41
			v-4.87c0-0.32-0.01-0.54-0.04-0.72c-0.11-0.57-0.63-0.98-1.28-0.98c-0.51,0-0.96,0.21-1.49,0.68v5.9h-1.41v-4.84
			c0-0.39,0-0.59-0.02-0.74c-0.09-0.57-0.63-0.99-1.32-0.99c-0.51,0-0.93,0.17-1.43,0.57v6h-1.41V61.57L141.81,61.57z"/>
		<path class="st0" d="M154.56,65.81c0.12,1.5,0.99,2.33,2.41,2.33c0.51,0,1.04-0.1,1.74-0.37l0.27,1.08
			c-0.8,0.27-1.58,0.42-2.33,0.42c-2.34,0-3.66-1.49-3.66-4.04c0-2.39,1.2-3.85,3.22-3.85c1.95,0,3.03,1.35,3.03,3.77
			c0,0.15,0,0.36-0.01,0.66H154.56L154.56,65.81z M154.44,64.83L154.44,64.83h3.4V64.8c0-1.53-0.59-2.35-1.65-2.35
			C155.09,62.46,154.47,63.32,154.44,64.83L154.44,64.83z"/>
		<path class="st0" d="M160.55,61.57l1.4-0.19v0.7c0.8-0.51,1.47-0.74,2.19-0.74c0.71,0,1.34,0.22,1.76,0.63
			c0.44,0.42,0.59,0.89,0.59,1.88v5.25h-1.41v-4.93c0-0.29-0.02-0.52-0.06-0.69c-0.11-0.57-0.63-0.95-1.34-0.95
			c-0.54,0-1.09,0.21-1.71,0.65v5.92h-1.41V61.57L160.55,61.57z"/>
		<path class="st0" d="M167.41,61.56h0.93v-1.25l1.42-0.22v1.47h1.49v0.95l-1.48,0.13v4.51c0,0.29,0,0.42,0.02,0.53
			c0.03,0.31,0.29,0.51,0.68,0.51c0.24,0,0.46-0.05,0.78-0.15v1.02c-0.39,0.14-0.8,0.21-1.23,0.21c-0.59,0-1.05-0.16-1.34-0.43
			c-0.24-0.25-0.33-0.62-0.33-1.26v-4.96l-0.93-0.09V61.56L167.41,61.56z"/>
	</g>
	<g>
		<g>
			<g>
				<path class="st0" d="M20.49,52.07c-1.14,0.09-2.19-0.12-2.44-0.23c0.03-0.04,0.06-0.08,0.1-0.11l0.03-0.03l0.02-0.03
					c0.16-0.25,0.48-0.58,1.1-1.22l0.68-0.7c0.79-0.82,1.13-1.69,1.28-2.57c0.62,1.42,1.66,4.29,2.3,7.53c-0.7,0.01-1.52,0-1.54,0
					l-0.2,0l-0.02,0.2c-0.06,0.43-0.3,1.66-0.69,2.13c-0.32,0.38-0.74,0.51-1.2,0.36c-0.38-0.12-0.95-1.05-0.77-2.06
					c0.16-0.86,0.89-2.11,1.54-2.9l0.33-0.41L20.49,52.07L20.49,52.07 M28.02,35.21c0,0-0.47-0.21-0.75-0.35
					c0.31-0.68,0.74-1.18,1.23-1.36c0.81-0.29,1.4-0.2,1.92,0.29c0.47,0.45,0.82,1.04,0.56,1.35c-0.22,0.25-0.43,0.15-0.47,0.13
					l-0.29-0.16l-0.04,0.32c0,0.01-0.01,0.06-0.01,0.14c0,0.12,0.04,0.33,0.11,0.55l-1.55-0.64L28.02,35.21L28.02,35.21
					 M35.38,45.67c0.09-0.23,0.19-0.5,0.28-0.78c0.02,0.31,0.04,0.66,0.04,0.66c0,0.05,0.01,0.1,0.01,0.15
					c0,0.46-0.1,1.01-0.28,1.67c-0.2,0.72-0.79,1.66-0.94,1.83c-0.07,0.08-0.12,0.12-0.16,0.15c-0.01-0.04-0.02-0.08-0.02-0.09
					l-0.01-0.16l0.01-0.05l0.11-0.68c0,0,0.13-0.71,0.14-0.78c0.07-0.17,0.65-1.49,0.65-1.49L35.38,45.67L35.38,45.67 M17.56,51.88
					c0,0.1,0.04,0.2,0.12,0.27c0.23,0.21,1.31,0.39,2.36,0.38c-0.59,0.81-1.2,1.88-1.35,2.72c-0.03,0.16-0.04,0.32-0.04,0.47
					c0,1,0.55,1.91,1.12,2.09c0.64,0.2,1.24,0.02,1.68-0.5c0.45-0.54,0.69-1.7,0.76-2.16c0.3,0,0.91,0.01,1.44,0
					c0.15,0.81,0.22,1.15,0.46,1.25c0.08,0.03,0.2,0.05,0.34-0.05c0.08-0.05,0.8-0.8,1.71-1.84c0.03,0.17,0.04,0.32,0.04,0.44
					c0,0.07,0,0.13-0.01,0.2l0,0.18c0,0.32,0.14,0.8,0.29,1.22c0,0,0.06,0.19,0.06,0.19c0.02,0.04,0.02,0.12,0.02,0.24
					c0,0.56-0.22,1.9-0.31,2.18c-0.09,0.28-0.28,0.51-0.36,0.63c0.17-0.05,0.06,0.3,0.27,0.24c0.01-0.02,0.48-0.36,0.61-0.8
					c0.08-0.25,0.25-1.49,0.25-2.22c0-0.18-0.01-0.33-0.04-0.42l-0.04-0.12l-0.03-0.07c-0.07-0.21-0.26-0.79-0.26-1.08l0-0.17
					c0.01-0.24,0.02-0.53-0.1-1.01l-0.02-0.06c1.46-1.72,3.22-3.99,3.58-5.34c0.25-0.22,1.73-1.67,1.73-4.01
					c0-0.44-0.05-0.92-0.18-1.42c0,0-0.06-0.18-0.27-0.13c-0.21,0.05-0.16,0.24-0.16,0.24c0.12,0.48,0.17,0.92,0.17,1.34
					c0,2.29-1.55,3.62-1.63,3.69l-0.06,0.05l-0.02,0.07c-0.46,1.96-4.76,6.7-5.42,7.34c-0.06-0.17-0.13-0.51-0.2-0.88l-0.03-0.12
					c-0.81-4.28-2.25-7.69-2.69-8.55l-0.32-0.58c-0.46-0.8-0.98-1.69-0.98-3.14c0-0.12,0-0.25,0.01-0.39
					c0.1-1.58,0.95-3.37,2.62-5.49c0.97-1.23,1.93-1.01,2.63-0.85c0.64,0.15,1.43,0.49,1.88,0.82c0.93,0.67,0.62,2.16,0.58,2.32
					c-0.1,0.45-0.66,0.67-0.67,0.67l-0.34,0.13l0.27,0.24c0,0,0.18,0.16,0.34,0.47c0.14,0.29,0.11,0.54,0.11,0.54l-0.09,0.56
					l0.45-0.36c0.37-0.3,1.57-0.34,2.37-0.37l0.54-0.02c0,0,0.2-0.03,0.17-0.26c-0.03-0.22-0.2-0.19-0.2-0.19l-0.53,0.02
					c-0.82,0.03-1.71,0.07-2.28,0.3c-0.02-0.13-0.06-0.27-0.14-0.43c-0.08-0.17-0.17-0.28-0.24-0.38c0.24-0.15,0.58-0.41,0.68-0.84
					c0.03-0.13,0.09-0.45,0.09-0.85c0-0.63-0.16-1.43-0.85-1.93c-0.5-0.36-1.34-0.74-2.05-0.9c-0.45-0.11-1.11-0.26-1.81,0.01
					l-0.15-0.34c-0.42-0.9-0.98-2.13-0.41-3.71c0.73-1.98,2.47-2.4,3.44-2.47c1.11-0.08,2.37,0.35,3.02,0.61
					c0.46,0.19,1.16,0.6,1.66,0.9l0.62,0.36l0.34,0.16c0.49,0.21,1.23,0.53,1.71,1.15c0.57,0.75,0.66,1.35,0.66,1.65
					c0,0.14-0.02,0.22-0.02,0.23l-0.01,0.08l0.21,0.72l0.1,0.28c0.16,0.45,0.29,0.8,0.38,0.95c0.1,0.15,0.16,0.37,0.16,0.59
					c0,0.05-0.01,0.09-0.02,0.13c-0.02-0.02-0.04-0.05-0.04-0.05l-0.45-0.45c-0.19-0.13-1.01-0.78-1.41-1.47l-0.05-0.09l-0.09-0.02
					c-0.01,0-0.96-0.21-1.37-0.72l-0.61-0.91l-0.63-0.94c-0.45-0.54-1.72-1.8-3.68-1.71c-1.14,0.05-1.75,0.54-2.06,0.95
					c-0.38,0.49-0.44,1.02-0.38,1.31c0.14,0.66,0.53,1.54,2.28,2.45l1.01,0.47l0.7,0.28l2.11,0.87c0.96,0.41,1.47,0.67,1.76,0.9
					l0.1,0.07c0.71,0.55,2.59,1.99,2.89,4.07c0.28,1.88-0.13,2.88-0.45,3.69l-0.17,0.44l-0.65,1.47l-0.01,0.04l-0.15,0.81L33.86,49
					l0.01-0.08v0.01l-0.01,0.37l0.15,0.4l0.27,0.11c0.17,0,0.34-0.11,0.54-0.34c0.2-0.23,0.81-1.25,1.03-2
					c0.2-0.69,0.3-1.29,0.3-1.79c0-0.06,0-0.12,0-0.17c0,0-0.06-0.74-0.07-0.95c0.07-0.05,0.16-0.13,0.26-0.27l0.04-0.06v-0.07
					c0-0.18,0.11-0.52,0.32-0.83c0.04-0.06,0.16-0.06,0.28-0.03c-0.01,0.03-0.04,0.06-0.05,0.1l-0.1,0.22
					c-0.1,0.19-0.12,0.48-0.12,0.72c0,0.2,0.01,0.36,0.02,0.42l0.05,0.38l0.32-0.23c0.06-0.03,0.3-0.01,0.44,0.01l0.15,0.01
					c0.01,0,0.02,0.02,0.03,0.02c0,0-0.01,0-0.01,0c-0.26,0.07-0.47,0.48-0.85,1.43l-0.03,0.07c-0.06,0.16-0.09,0.43-0.09,0.78
					c0,0.64,0.08,1.52,0.17,2.37l0.03,0.26c0.01,0.1,0.04,0.2,0.07,0.28c-0.17-0.03-0.31-0.07-0.4-0.16
					c-0.13-0.13-0.16-0.33-0.16-0.52c0-0.11,0.01-0.21,0.02-0.28l0.01-0.07v-0.05c0-0.21-0.13-0.34-0.27-0.37
					c-0.2-0.05-0.51,0.06-0.73,0.57c-0.22,0.52-0.95,1.61-0.96,1.62l-0.15,0.23l0.25,0.1c0.14,0.06,0.17,0.27,0.17,0.44
					c0,0,0,0,0,0.01c-0.49,0.03-1.17,0.44-2.04,1c-0.56,0.36-1.32,0.53-2.33,0.51l-0.15,0l-0.06,0.14c-0.51,1.28-1.4,2.33-1.56,2.48
					c-0.15,0.15-0.26,0.4-0.33,0.6c-0.04-0.01-0.08-0.03-0.13-0.02l-0.39,0.17c-0.33,0.29-0.19,2.21-0.04,2.8
					c0.16-0.04,0.34-0.11,0.47-0.14c-0.15-0.45-0.29-2.12-0.14-2.32c0,0,0.11-0.06,0.16-0.05c0.05,0.08,0.25,0.44,0.25,0.44
					l0.14-0.5c0.05-0.19,0.19-0.53,0.3-0.66c0.16-0.16,1.04-1.21,1.59-2.49c1.03,0,1.83-0.19,2.44-0.59
					c0.64-0.41,1.6-1.03,1.93-0.93l0.24,0.08l0.05-0.25c0.01-0.08,0.02-0.17,0.02-0.28c0-0.24-0.05-0.51-0.23-0.7
					c0.21-0.33,0.7-1.08,0.88-1.51c0.04-0.1,0.09-0.16,0.13-0.21c-0.01,0.07-0.02,0.14-0.02,0.24c0,0.26,0.05,0.58,0.29,0.83
					c0.25,0.25,0.64,0.36,1.18,0.32l0.5-0.05l-0.37-0.34c0,0-0.19-0.18-0.21-0.39l-0.03-0.27c-0.18-1.7-0.22-2.68-0.11-2.94
					l0.03-0.07c0.13-0.32,0.43-1.07,0.58-1.17c0.17-0.04,0.36-0.12,0.4-0.15l0.15-0.06c-0.02-0.07-0.24-0.65-0.68-0.69l-0.14-0.01
					c-0.15-0.01-0.29-0.02-0.42-0.02c0-0.04-0.01-0.07-0.01-0.11c0-0.21,0.02-0.41,0.07-0.51l0.12-0.27c0,0,0.05-0.12,0.05-0.13
					l0.34-0.19L37.5,43c-0.08-0.04-0.83-0.41-1.17,0.07c-0.21,0.31-0.34,0.68-0.38,0.97c-0.02,0.03-0.09,0.09-0.13,0.14
					c0.07-0.35,0.12-0.73,0.12-1.19c0-0.37-0.03-0.79-0.1-1.25c-0.33-2.26-2.32-3.79-3.06-4.36l-0.09-0.07
					c-0.33-0.25-0.85-0.52-1.86-0.95c-0.14-0.24-0.19-0.46-0.21-0.61c0.21,0.01,0.46-0.06,0.68-0.32c0.42-0.47,0.19-1.22-0.58-1.96
					c-0.63-0.61-1.41-0.74-2.38-0.39c-0.77,0.28-1.23,1.02-1.49,1.58c-1.61-0.89-1.79-1.7-1.87-2.05c-0.01-0.04-0.01-0.09-0.01-0.13
					c0-0.22,0.09-0.53,0.3-0.81c0.25-0.33,0.76-0.73,1.72-0.77c1.81-0.08,3,1.16,3.32,1.55l0.6,0.89l0.64,0.96
					c0.45,0.56,1.32,0.8,1.54,0.85c0.45,0.72,1.23,1.36,1.48,1.53c0,0,0.36,0.37,0.36,0.37l0.1,0.13l0.01-0.01
					c0.05,0.05,0.19,0.19,0.19,0.2c0.09,0.06,0.19,0.06,0.28,0.01c0.21-0.11,0.27-0.49,0.27-0.69c0-0.31-0.08-0.61-0.23-0.83
					c-0.07-0.11-0.24-0.6-0.33-0.86l-0.11-0.29c0,0-0.16-0.56-0.16-0.59c0.01-0.05,0.02-0.13,0.02-0.27c0-0.39-0.11-1.09-0.75-1.93
					c-0.55-0.73-1.35-1.07-1.89-1.3l-0.31-0.14l-0.59-0.34c-0.55-0.33-1.24-0.74-1.73-0.93c-0.69-0.28-2.03-0.74-3.23-0.64
					c-1.08,0.08-3.02,0.55-3.82,2.76c-0.2,0.53-0.27,1.03-0.27,1.5c0,1.05,0.4,1.91,0.69,2.55c0,0,0.08,0.2,0.16,0.36
					c-0.29,0.18-0.58,0.43-0.87,0.8c-1.73,2.19-2.61,4.06-2.72,5.74c-0.11,1.82,0.52,2.9,1.03,3.78l0.24,0.43
					c-0.07,1.11-0.36,2.08-1.24,3l-0.68,0.71c-0.63,0.65-0.95,0.99-1.14,1.27c-0.09,0.07-0.28,0.24-0.29,0.45V51.88"/>
				<path class="st0" d="M22.44,61.48c0.53-0.22,1.04-0.44,1.79-0.81c0.22-0.11,0.63-0.6,1.34-0.82c0.02-0.01,0.43-0.15,0.43-0.15
					c0.18-0.07,0.07,0.18,0.45,0.07c-0.51,0.5-0.98,1-1.4,1.3c-0.29,0.21-0.21,0.41-0.16,0.52c0,0,0.36-0.33,0.8-0.31
					c0.44,0.02,0.88-0.13,1.5,0.23c0.62,0.36,0.96,0.54,1.09,0.98c0.08,0.29,0.13,0.49,0.13,0.49s0.44-0.52,0.47-0.85
					c0,0,0.93-0.6,1.45-0.65c0.52-0.05,1.14,0.13,1.19,0.41c0,0,0.06-0.55-0.29-0.9c-0.15-0.16-0.41-0.36-0.41-0.36
					s0.28-0.23,0.47-0.05c0,0-0.06-0.54-0.31-0.57c-0.26-0.02-1.4-0.02-1.81-0.02c-0.42,0-1.22-0.16-1.4-0.65
					c-0.01-0.03-0.02-0.06-0.03-0.11c0.2-0.05,0.37-0.09,0.49-0.13c0.25-0.07,0.46-0.14,0.58-0.21c0.81-0.38,2.2-0.26,3.01-0.31
					l0.29,0l0.01-1.97l0.22-0.02c0.5-0.05,1.09-0.04,1.67,0.05c0,0.16,0,0.1,0,0.3c-0.46-0.08-0.95-0.21-1.4-0.15
					c0,0.2,0,0.99,0,1.4l0,0v2.14c1.1-0.1,2.08,0.42,2.08,0.42c-0.27,1.39-3.35,2.44-6.18,3.01h-5.17l-0.04,0.81
					c-0.14-0.08-0.54-0.13-1.03-0.46c-0.48-0.33-1.04-1.21-1.14-1.62C21.06,62.19,21.91,61.7,22.44,61.48z"/>
			</g>
			<g>
				<path class="st0" d="M53.23,33.97c0-0.02,0-0.04,0-0.05c-0.02-0.33-0.27-0.64-0.5-0.75c-0.19-0.1-0.58-0.05-0.96,0.05
					c0.09,0.11,0.17,0.22,0.22,0.31l0.05,0.09l0.08,0.17c0.05,0.13,0.13,0.32,0.28,0.46h0.76C53.2,34.16,53.23,34.07,53.23,33.97"/>
				<path class="st0" d="M51.88,33.87l-0.05-0.11l-0.06-0.11c-0.07-0.12-0.17-0.3-0.34-0.44l-0.07-0.05
					c-0.22-0.11-1.26-0.24-1.94-0.02c0.12,0.13,0.22,0.27,0.29,0.38l0.05,0.1l0.08,0.16c0.05,0.14,0.13,0.32,0.28,0.46h1.96
					C51.98,34.11,51.92,33.97,51.88,33.87"/>
				<path class="st0" d="M49.6,33.87l-0.05-0.12v0l-0.07-0.11c-0.08-0.14-0.19-0.34-0.42-0.48c-0.22-0.11-1.26-0.24-1.94-0.02
					c0.13,0.13,0.23,0.27,0.29,0.38l0.05,0.09l0.08,0.17c0.05,0.13,0.13,0.32,0.28,0.46h1.96C49.7,34.11,49.64,33.97,49.6,33.87"/>
				<path class="st0" d="M47.31,33.87l-0.05-0.11l-0.07-0.11c-0.08-0.15-0.19-0.34-0.41-0.48c-0.22-0.11-1.26-0.24-1.94-0.02
					c0.13,0.13,0.23,0.27,0.29,0.38l0.06,0.09l0.08,0.17c0.05,0.13,0.13,0.32,0.28,0.46h1.97C47.41,34.11,47.35,33.97,47.31,33.87"
					/>
				<path class="st0" d="M45.03,33.87l-0.05-0.11l-0.07-0.11c-0.08-0.15-0.19-0.34-0.41-0.48c-0.23-0.12-1.28-0.24-1.97-0.02
					c0.12,0.12,0.21,0.24,0.27,0.33l0.06,0.08l0.08,0.16c0.06,0.15,0.17,0.37,0.41,0.52h1.87C45.12,34.11,45.06,33.97,45.03,33.87"
					/>
				<path class="st0" d="M42.71,33.82l-0.05-0.11l-0.07-0.1c-0.08-0.13-0.19-0.31-0.37-0.42l-0.07-0.05
					c-0.27-0.12-0.71-0.04-0.98,0.19c-0.09,0.07-0.11,0.19-0.11,0.28v0.03c0,0.2,0.08,0.42,0.21,0.59h1.7
					C42.84,34.09,42.76,33.94,42.71,33.82"/>
				<path class="st0" d="M49.93,21.36L49.93,21.36c-0.38,0.14-0.88-0.04-0.88-0.2c-0.01-0.3,0.45-0.45,0.66-0.19
					c0,0,0.27-0.55-0.42-0.55c0,0,0.3-0.4,0.02-0.73c-0.41,0.09-0.42,0.6-0.42,0.6c-0.56-0.38-0.66,0.19-0.66,0.19
					c0.33-0.07,0.58,0.33,0.45,0.55c-0.04,0.07-0.13,0.21-0.63,0.16c-0.14-0.01-0.36-0.06-0.54-0.15l-0.23-0.45l0.71,0.3v-0.95
					l-0.71,0.28l0.32-0.63h-0.25c0.15-0.34,0.36-0.68,0.4-0.77c0.04-0.1,0.17-0.18,0.38-0.1c0.21,0.08,1.72,0.55,2.39,1.61
					C50.62,20.45,50.31,21.22,49.93,21.36 M46.66,21.04L46.66,21.04c-0.19,0.09-0.4,0.13-0.55,0.15c-0.5,0.05-0.59-0.09-0.63-0.16
					c-0.13-0.22,0.12-0.62,0.45-0.55c0,0-0.1-0.57-0.66-0.19c0,0-0.01-0.5-0.42-0.6c-0.27,0.32,0.03,0.73,0.03,0.73
					c-0.69,0-0.41,0.55-0.41,0.55c0.22-0.26,0.68-0.11,0.66,0.19c-0.01,0.17-0.5,0.35-0.88,0.2c-0.38-0.15-0.69-0.91-0.6-1.05
					c0.67-1.06,2.19-1.53,2.39-1.61c0.21-0.08,0.34,0,0.38,0.1c0.04,0.09,0.24,0.43,0.4,0.77h-0.25l0.34,0.65l-0.74-0.3v0.95
					l0.74-0.31L46.66,21.04z M51.55,19.97c-1.36-1.63-3.05-2.17-4.17-2.29l-0.17-0.37l0.43,0.2v-0.65l-0.43,0.19l0.19-0.43h-0.65
					l0.21,0.44l-0.45-0.2v0.65l0.45-0.21l-0.17,0.36c-1.12,0.05-2.82,0.67-4.18,2.31c-0.07,0.08-0.13,0.29-0.03,0.4
					c0.11,0.12,0.17,0.14,0.27,0.25c0.11,0.1,0.42,0.77,0.49,0.95c0.06,0.18,0.08,0.45,0.08,0.45s-0.04,0.34,0.09,0.47
					c0.1,0.1,0.31,0.09,0.35,0.16c0.04,0.07,0.03,0.16,0.32,0.09c0.29-0.07,1.46-0.52,2.9-0.51c1.44,0,2.61,0.44,2.9,0.51
					c0.29,0.07,0.28-0.02,0.31-0.09c0.04-0.07,0.25-0.06,0.35-0.16c0.13-0.13,0.09-0.47,0.09-0.47s0.01-0.26,0.08-0.45
					c0.07-0.18,0.38-0.85,0.49-0.95c0.1-0.11,0.17-0.13,0.27-0.25C51.68,20.26,51.62,20.05,51.55,19.97"/>
				<path class="st0" d="M48.85,27.4L48.85,27.4h1.96v2.9h-1.96V27.4z M46.14,27.4L46.14,27.4h1.96v2.9h-1.96V27.4z M43.43,27.4
					L43.43,27.4h1.96v2.9h-1.96V27.4z M43.43,23.62L43.43,23.62h1.96v2.92h-1.96V23.62z M47.1,23.62L47.1,23.62h0.03h0.96v2.92
					h-1.96v-2.92H47.1z M50.81,26.54L50.81,26.54h-1.96v-2.92h1.96V26.54z M47.16,22.76h-0.09h-6.25v0.63c0,0,0.62-0.01,1.17,0.29
					c0.44,0.24,0.63,0.73,0.69,0.9v7.18H42.3l0.75,1.3l0.75-1.3h-0.37v-0.63h1.96v0.63h-0.38l0.75,1.3l0.75-1.3h-0.37v-0.63h1.96
					v0.63h-0.38l0.75,1.3l0.75-1.3h-0.37v-0.63h1.96v0.63h-0.37l0.75,1.3l0.75-1.3h-0.37v-7.2c0.06-0.19,0.25-0.66,0.68-0.89
					c0.55-0.3,1.17-0.29,1.17-0.29v-0.63H47.16z"/>
				<path class="st0" d="M41.3,23.62L41.3,23.62c0-0.22,0.18-0.4,0.4-0.4c0.22,0,0.4,0.18,0.4,0.4c0,0.22-0.18,0.4-0.4,0.4
					C41.48,24.02,41.3,23.84,41.3,23.62 M40.97,23.62c0,0.4,0.32,0.72,0.72,0.72c0.4,0,0.72-0.32,0.72-0.72
					c0-0.4-0.32-0.72-0.72-0.72C41.3,22.9,40.97,23.22,40.97,23.62"/>
				<path class="st0" d="M41.32,24.64L41.32,24.64c0.13,0.02,0.24,0.03,0.38,0.05c-0.02,0.18-0.07,0.51-0.09,0.69
					c-0.13-0.02-0.24-0.03-0.37-0.05C41.25,25.15,41.29,24.83,41.32,24.64 M41.02,24.44l-0.16,1.17l1.01,0.14l0.18-1.33l-1.02-0.14
					L41.02,24.44z"/>
				<path class="st0" d="M41.15,26.14L41.15,26.14c0.13,0,0.24,0.01,0.38,0.01c0,0.18-0.01,0.48-0.02,0.66
					c-0.13-0.01-0.25-0.01-0.38-0.01C41.14,26.62,41.15,26.32,41.15,26.14 M40.84,25.97l-0.04,1.14l1.02,0.03l0.04-1.31l-1.02-0.03
					L40.84,25.97z"/>
				<path class="st0" d="M41.47,27.56L41.47,27.56c0,0.19,0,0.51,0,0.7h-0.38c0-0.19,0-0.51-0.01-0.69
					C41.22,27.56,41.33,27.56,41.47,27.56 M41.62,27.24l-0.86,0.01l0.01,1.34l1.02-0.01l-0.01-1.34L41.62,27.24z"/>
				<path class="st0" d="M41.05,28.98L41.05,28.98c0.14,0.01,0.24,0.02,0.38,0.04c-0.02,0.18-0.06,0.51-0.07,0.69
					c-0.13-0.01-0.24-0.02-0.38-0.04C40.99,29.49,41.03,29.16,41.05,28.98 M40.75,28.78l-0.12,1.17l1.02,0.11l0.14-1.33l-1.02-0.11
					L40.75,28.78z"/>
				<path class="st0" d="M40.84,30.42L40.84,30.42c0.13,0.03,0.24,0.06,0.37,0.09c-0.04,0.18-0.12,0.5-0.16,0.68
					c-0.13-0.03-0.24-0.06-0.37-0.09C40.72,30.92,40.79,30.6,40.84,30.42 M40.56,30.19l-0.27,1.15l1,0.23l0.31-1.3l-0.99-0.24
					L40.56,30.19z"/>
				<path class="st0" d="M40.41,31.82L40.41,31.82c0.12,0.06,0.22,0.11,0.33,0.18c-0.09,0.17-0.24,0.45-0.32,0.61
					c-0.12-0.06-0.22-0.11-0.33-0.18C40.17,32.27,40.33,31.98,40.41,31.82 M40.2,31.52l-0.55,1.04l0.91,0.48l0.62-1.18l-0.9-0.48
					L40.2,31.52z"/>
				<path class="st0" d="M39.32,33.44L39.32,33.44c0-0.22,0.18-0.4,0.4-0.4c0.22,0,0.4,0.18,0.4,0.4c0,0.22-0.18,0.4-0.4,0.4
					C39.49,33.84,39.32,33.66,39.32,33.44 M38.99,33.44c0,0.4,0.32,0.72,0.72,0.72c0.4,0,0.72-0.33,0.72-0.72
					c0-0.4-0.32-0.72-0.72-0.72C39.32,32.71,38.99,33.04,38.99,33.44"/>
				<path class="st0" d="M52.59,24.02L52.59,24.02c-0.22,0-0.4-0.18-0.4-0.4c0-0.22,0.18-0.4,0.4-0.4c0.22,0,0.4,0.18,0.4,0.4
					C52.99,23.84,52.81,24.02,52.59,24.02 M52.59,22.9c-0.4,0-0.72,0.32-0.72,0.72c0,0.4,0.32,0.72,0.72,0.72
					c0.4,0,0.72-0.32,0.72-0.72C53.31,23.22,52.99,22.9,52.59,22.9"/>
				<path class="st0" d="M53.06,25.33L53.06,25.33c-0.13,0.02-0.24,0.03-0.37,0.05c-0.02-0.18-0.07-0.5-0.09-0.69
					c0.13-0.02,0.24-0.03,0.38-0.05C52.99,24.83,53.03,25.15,53.06,25.33 M53.25,24.28l-1.02,0.14l0.18,1.33l1.01-0.14l-0.15-1.17
					L53.25,24.28z"/>
				<path class="st0" d="M53.16,26.8L53.16,26.8c-0.14,0.01-0.25,0.01-0.38,0.01c-0.01-0.18-0.01-0.48-0.02-0.66
					c0.13,0,0.24-0.01,0.38-0.01C53.14,26.32,53.15,26.62,53.16,26.8 M53.45,25.8l-1.02,0.03l0.04,1.31l1.02-0.03l-0.04-1.14
					L53.45,25.8z"/>
				<path class="st0" d="M53.2,27.56L53.2,27.56c0,0.19-0.01,0.51-0.01,0.69h-0.38c0-0.19,0-0.51,0-0.7
					C52.95,27.56,53.07,27.56,53.2,27.56 M52.5,27.23l-0.01,1.34l1.02,0.01l0.01-1.34l-0.86-0.01L52.5,27.23z"/>
				<path class="st0" d="M53.31,29.67L53.31,29.67c-0.14,0.02-0.24,0.03-0.38,0.04c-0.02-0.18-0.05-0.51-0.08-0.69
					C53,29,53.1,28.99,53.24,28.98C53.26,29.16,53.29,29.49,53.31,29.67 M53.53,28.62l-1.01,0.11l0.14,1.33l1.02-0.11l-0.12-1.17
					L53.53,28.62z"/>
				<path class="st0" d="M53.61,31.1L53.61,31.1c-0.13,0.03-0.24,0.06-0.37,0.09c-0.04-0.18-0.12-0.5-0.17-0.68
					c0.13-0.03,0.24-0.05,0.37-0.09C53.49,30.6,53.57,30.92,53.61,31.1 M53.69,30.03l-1,0.24l0.31,1.3L54,31.34l-0.27-1.15
					L53.69,30.03z"/>
				<path class="st0" d="M54.2,32.43L54.2,32.43c-0.12,0.06-0.22,0.11-0.33,0.18c-0.09-0.17-0.24-0.45-0.32-0.61
					c0.12-0.06,0.21-0.11,0.33-0.18C53.96,31.98,54.11,32.27,54.2,32.43 M54.01,31.38l-0.91,0.48l0.63,1.18l0.91-0.48l-0.55-1.04
					L54.01,31.38z"/>
				<path class="st0" d="M54.57,33.84L54.57,33.84c-0.22,0-0.4-0.18-0.4-0.4c0-0.22,0.18-0.4,0.4-0.4c0.22,0,0.4,0.18,0.4,0.4
					C54.97,33.66,54.8,33.84,54.57,33.84 M54.57,32.71c-0.4,0-0.72,0.33-0.72,0.72c0,0.4,0.32,0.72,0.72,0.72
					c0.4,0,0.72-0.33,0.72-0.72C55.3,33.04,54.97,32.71,54.57,32.71"/>
				<path class="st0" d="M44.8,25.05L44.8,25.05c-0.06,0.05-0.13,0.1-0.18,0.15c-0.06,0.05-0.15,0.08-0.2,0.13
					c-0.05,0.05-0.08,0.14-0.13,0.2c-0.05,0.06-0.05,0.15-0.1,0.21c-0.04,0.07-0.09,0.14-0.13,0.21c-0.04,0.08-0.03,0.16-0.06,0.24
					c-0.01,0.03-0.02,0.05-0.02,0.07h1.13v-1.4c-0.03,0.04-0.05,0.07-0.08,0.09C44.96,25,44.86,25,44.8,25.05 M44.15,27.71
					L44.15,27.71c0.04,0.06,0.14,0.08,0.19,0.14c0.05,0.06,0.1,0.1,0.16,0.16c0.05,0.05,0.09,0.12,0.15,0.17
					c0.06,0.05,0.12,0.09,0.19,0.14c0.06,0.05,0.09,0.15,0.15,0.19c0.03,0.02,0.08,0.02,0.13,0.03v-0.87h-0.97
					C44.15,27.69,44.14,27.71,44.15,27.71 M46.41,29.02L46.41,29.02h0.01c0.1,0.48,0.11,0.72,0.02,0.99h0.92
					c0-0.28,0.1-0.62,0.43-1.02c0.01,0,0.02-0.01,0.02-0.01v-1.32h-1.41V29.02z M47.41,24.37L47.41,24.37
					c-0.09-0.01-0.17-0.03-0.25-0.03c-0.06,0-0.12,0.03-0.19,0.03c-0.07,0-0.14-0.06-0.21-0.05c-0.07,0.01-0.14,0.07-0.2,0.07
					c-0.04,0.01-0.09,0-0.14,0v1.87h1.41v-1.9c-0.05-0.03-0.1-0.07-0.15-0.07C47.59,24.27,47.5,24.38,47.41,24.37 M49.12,28.54
					L49.12,28.54c0.06-0.03,0.12-0.06,0.18-0.1c0.07-0.04,0.15-0.08,0.21-0.12c0.06-0.05,0.16-0.06,0.22-0.11
					c0.06-0.05,0.07-0.16,0.12-0.21c0.05-0.06,0.11-0.11,0.15-0.17c0.05-0.06,0.15-0.08,0.19-0.15h-1.07V28.54z M50.34,26.05
					c-0.02-0.06-0.08-0.12-0.11-0.19c-0.03-0.07-0.12-0.09-0.16-0.15c-0.04-0.06-0.01-0.17-0.06-0.23c-0.04-0.06-0.12-0.1-0.17-0.15
					c-0.05-0.05-0.14-0.07-0.2-0.12c-0.06-0.05-0.12-0.09-0.18-0.13c-0.06-0.05-0.12-0.1-0.18-0.14c-0.05-0.03-0.1-0.06-0.14-0.1
					v1.42h1.22C50.33,26.19,50.36,26.11,50.34,26.05"/>
			</g>
			<path class="st0" d="M70.55,67.6L70.55,67.6H23.65v-3.38h46.91V67.6z M70.8,63.72H23.14v4.38h47.91v-4.38H70.8z"/>
			<path class="st0" d="M46.9,38.85L46.9,38.85l-0.45-0.18v0.58l0.45-0.19l-0.15,0.29c-0.11,0.06-0.25,0.08-0.34,0.09
				c-0.31,0.03-0.36-0.06-0.39-0.1c-0.08-0.13,0.07-0.38,0.27-0.33c0,0-0.06-0.35-0.4-0.12c0,0-0.01-0.4-0.26-0.46
				c-0.17,0.2,0.02,0.54,0.02,0.54c-0.42,0-0.25,0.34-0.25,0.34c0.13-0.16,0.42-0.07,0.41,0.11c0,0.1-0.31,0.22-0.54,0.13
				c-0.24-0.09-0.43-0.65-0.37-0.74c0.41-0.65,1.34-0.94,1.47-0.99c0.13-0.05,0.21,0,0.24,0.06c0.02,0.05,0.15,0.36,0.24,0.57h-0.15
				L46.9,38.85z M47.15,38.84L47.15,38.84l0.2-0.39h-0.16c0.1-0.21,0.22-0.51,0.24-0.57c0.02-0.06,0.1-0.11,0.24-0.06
				c0.13,0.05,1.06,0.34,1.47,0.99c0.06,0.09-0.14,0.65-0.37,0.74c-0.23,0.09-0.53-0.02-0.54-0.13c-0.01-0.18,0.28-0.27,0.41-0.11
				c0,0,0.17-0.34-0.25-0.34c0,0,0.18-0.25,0.02-0.45c-0.25,0.06-0.26,0.37-0.26,0.37c-0.34-0.23-0.4,0.12-0.4,0.12
				c0.2-0.05,0.36,0.2,0.28,0.33c-0.03,0.04-0.08,0.13-0.39,0.1c-0.09-0.01-0.22-0.04-0.33-0.09l-0.14-0.28l0.44,0.18v-0.58
				L47.15,38.84z M44.28,38.6L44.28,38.6c-0.04,0.05-0.08,0.18-0.02,0.25c0.06,0.07,0.1,0.09,0.17,0.15
				c0.06,0.06,0.25,1.17,0.29,1.29c0.04,0.11,0.05,0.27,0.05,0.27s-0.02,0.21,0.06,0.29c0.07,0.06,0.19,0.05,0.22,0.09
				c0.02,0.04,0.02,0.1,0.19,0.06c0.18-0.04,0.9-0.32,1.78-0.32c0.88,0,1.6,0.27,1.77,0.32c0.18,0.04,0.17-0.02,0.19-0.06
				c0.02-0.04,0.15-0.03,0.22-0.09c0.08-0.08,0.05-0.29,0.05-0.29s0.01-0.16,0.05-0.27c0.04-0.11,0.23-1.22,0.3-1.29
				c0.07-0.06,0.11-0.08,0.17-0.15c0.07-0.07,0.03-0.2-0.02-0.25c-0.84-1-1.87-1.33-2.56-1.41l-0.11-0.23l0.27,0.12v-0.4l-0.27,0.12
				l0.12-0.27h-0.4l0.13,0.27l-0.27-0.12v0.4l0.27-0.13l-0.1,0.22C46.16,37.21,45.12,37.59,44.28,38.6 M49.68,57.47L49.68,57.47
				c0.5-0.47,0.51-0.77,0.51-0.77c-0.18-0.18-0.83-0.28-0.83-0.28c0.18,0.34-0.24,0.61-0.24,0.61
				C49.65,57.06,49.68,57.47,49.68,57.47 M44.18,56.66L44.18,56.66c0.04,0.25,0.51,0.72,0.51,0.72c0.05-0.39,0.55-0.35,0.55-0.35
				c-0.42-0.34-0.2-0.69-0.2-0.69C44.36,56.42,44.18,56.66,44.18,56.66 M47.17,55.62L47.17,55.62c0.19-0.51,0.6-0.41,0.6-0.41
				c-0.29-0.62-0.58-0.72-0.58-0.72c-0.23,0.11-0.53,0.71-0.53,0.71C47.06,55.14,47.17,55.62,47.17,55.62 M45.26,59.28L45.26,59.28
				c-0.13,0.67,0.04,0.92,0.04,0.92c0.25,0.04,0.84-0.26,0.84-0.26c-0.35-0.17-0.17-0.64-0.17-0.64
				C45.53,59.6,45.26,59.28,45.26,59.28 M55.71,43.61L55.71,43.61c0.12-0.04,0.26-0.17,0.28-0.23c0.02-0.06,0.03-0.24-0.02-0.36
				c-0.31-0.76-1.32-0.77-1.32-0.77c-0.13-0.21-0.4-0.1-0.4-0.1c-0.8-0.8-1.78-0.98-1.78-0.98c-0.25-0.33-0.58-0.15-0.58-0.15
				c-0.7-0.31-1.41-0.63-2.12-0.94c-0.03,0.13-0.07,0.31-0.07,0.31c-0.01,0.05-0.02,0.09-0.03,0.13c0,0.03,0.01,0.1,0.01,0.1
				c0,0.13-0.02,0.29-0.12,0.44c0.65,0.28,1.3,0.57,1.93,0.86c0,0,0.08,0.36,0.5,0.33c0,0,0.79,0.6,1.91,0.66
				c0,0,0.1,0.28,0.34,0.23C54.26,43.15,54.94,43.9,55.71,43.61 M62.08,60.38v-2.03l-0.01-1.73l-0.22-0.02
				c-1.05-0.11-2.47,0.03-3.4,0.69l-0.05-0.02h0c-0.7-0.2-1.48-0.33-2.63-0.63c-0.03-0.01-0.32-0.1-0.51-0.16
				c1.14-1.48,2.01-3.3,2.29-5.52l-0.44,0.01c-0.9,6.9-7.81,9.83-9.83,10.28c-2.05-0.46-9.09-3.43-9.9-10.45l-0.44-0.03
				c0.26,2.4,1.22,4.35,2.47,5.9c-1.01,0.15-2.36,0.45-2.85,0.56c-0.19,0.05-0.35,0.1-0.5,0.15c-0.02,0.01-0.05,0.02-0.07,0.02
				c-0.82-0.86-2.44-1.13-3.64-0.95l-0.21,0.03l-0.01,2.1c-0.87,0.03-1.7,0.01-2.06,0.04c-0.34,0.03-0.91,0.27-1.44,0.51
				c0.22,0.12,0.55,0.2,0.84,0.2c0,0,1.85,0.03,1.85,0.03c0.4,0.04,0.59,0.48,0.62,0.88c0,0,0.03,0.28,0.05,0.55
				c0.13,0.26,0.19,0.53,0.19,0.69c0,0.08-0.01,0.13-0.01,0.15l-0.21,0.6l-0.47-0.54c-0.06-0.08-0.44-0.21-0.83-0.17
				c-0.29,0.03-0.84,0.32-1.19,0.53c-0.12,0.38-0.42,0.76-0.49,0.85l-0.44,0.51l-0.3-1.13c-0.07-0.27-0.27-0.39-0.82-0.71l-0.1-0.06
				c-0.37-0.22-0.65-0.21-0.97-0.19c0,0-0.38,0-0.38,0c-0.23-0.02-0.47,0.15-0.54,0.22l-0.34,0.31l-0.21-0.41
				c-0.18-0.35-0.12-0.79,0.26-0.96c0.3-0.14,0.65-0.73,0.88-0.79c-0.79,0.2-1.37,0.66-1.4,0.69c-0.37,0.28-0.88,0.61-1.63,0.88
				c-0.75,0.27-1.88,0.86-1.83,1.23c0.05,0.37,0.87,1.74,1.84,2c0.12,0.03,0.23,0.06,0.33,0.08v-0.81h5.21
				c2.83-0.57,5.91-1.62,6.18-3.01c0,0-0.97-0.52-2.08-0.42v-1.81c0,0-0.01,0-0.01,0c0,0,0.01-1.58,0.01-1.58
				c0.94,0,2.12,0.1,2.8,0.65c0.01,0.01,0.03,0.02,0.04,0.04c0.08,0.1,0.41,0.5,0.41,0.76v5.07c0,0-0.06,0.13-0.18,0.31h3.47v-0.01
				h19.11l-0.01-0.02l0.09,0.03h0.15c-0.12-0.18-0.18-0.31-0.18-0.31v-5.07c0-0.15,0.12-0.36,0.23-0.53
				c0.68-0.63,1.94-0.84,3.02-0.77c0,0.2,0,0.7,0,1.11l0,0v2.14L62.08,60.38z M50.08,38.33L50.08,38.33l0.03,0.09
				c2.55-1.27,4.78-2.38,4.98-2.48c0.49-0.23,0.78-0.77,0.78-0.77s-0.6-0.11-1.09,0.12c-0.21,0.1-2.64,1.19-5.35,2.42
				C49.66,37.89,49.89,38.09,50.08,38.33 M40.63,36.4L40.63,36.4c-0.17-0.02-0.26-0.32-0.08-0.45c0,0-0.34-0.21-0.39,0.24
				c0,0-0.25-0.22-0.47-0.06c0.03,0.27,0.36,0.31,0.36,0.31c-0.3,0.33,0.08,0.45,0.08,0.45c-0.03-0.22,0.25-0.34,0.38-0.24
				c0.13,0.1,0.04,0.4-0.12,0.55c-0.18,0.18-0.46,0.21-0.66,0.12c-0.37-0.16-0.47-0.73-0.23-1.26c0.24-0.54,0.73-0.84,1.09-0.67
				c0.19,0.09,0.34,0.33,0.35,0.56C40.97,36.17,40.79,36.42,40.63,36.4 M43.06,36.89L43.06,36.89c-0.06-0.26-0.3-0.11-0.3-0.11
				c-0.32-0.44-0.9-0.59-0.9-0.59c-0.06-0.1-0.21-0.2-0.34-0.27c-0.06-0.45-0.31-0.84-0.7-1.01c-0.59-0.26-1.31,0.03-1.71,0.66
				c-0.04-0.05-0.09-0.09-0.16-0.13c-0.19-0.09-0.41-0.02-0.49,0.15c-0.07,0.17,0.02,0.38,0.21,0.46c0.07,0.03,0.14,0.04,0.2,0.03
				c-0.2,0.72,0.06,1.45,0.66,1.71c0.4,0.18,0.85,0.1,1.22-0.16c0.14,0.05,0.32,0.1,0.43,0.07c0,0,0.5,0.33,1.04,0.27
				c0,0,0.04,0.28,0.28,0.15c0,0,0.35,0.46,0.89,0.31c0,0,0.17,0.07,0.45,0.19c0.05-0.13,0.11-0.31,0.11-0.31
				c0.21-0.25,0.43-0.47,0.65-0.65c-0.45-0.21-0.72-0.35-0.72-0.35C43.64,36.84,43.06,36.89,43.06,36.89 M39.1,43.55L39.1,43.55
				c0.14-0.06,0.24-0.16,0.29-0.27c0.12,0.02,0.28,0.02,0.45-0.02c0.2-0.04,1.61-0.66,2.28-0.95c0,0,0,0.01,0.01,0.01
				c0.29,0.43,0.74,0.99,1.12,1.2c0.56,0.32,0.8,0.22,0.91,0.03c0.11-0.19-0.06-0.52-0.5-0.74c-0.27-0.14-0.61-0.44-0.86-0.74
				c0,0,0,0,0-0.01c0.36-0.18,1.04-0.51,1.8-0.89c-0.03-0.02-0.05-0.03-0.06-0.04c-0.04-0.02-0.04-0.05-0.05-0.1
				c-0.09-0.15-0.13-0.31-0.13-0.41c0,0,0-0.03,0-0.06c-0.01-0.04-0.03-0.18-0.03-0.18s-0.03-0.15-0.08-0.35
				c-0.83,0.38-1.58,0.72-1.97,0.89c0,0,0,0,0,0c-0.07-0.39-0.09-0.83-0.03-1.13c0.11-0.48-0.04-0.82-0.26-0.86
				c-0.21-0.03-0.45,0.09-0.56,0.72c-0.07,0.43,0.08,1.12,0.23,1.63c0,0,0,0,0,0.01c-0.65,0.33-2.03,1.05-2.19,1.18
				c-0.13,0.11-0.24,0.23-0.3,0.34c-0.12-0.03-0.25-0.02-0.39,0.05c-0.26,0.12-0.39,0.37-0.3,0.55
				C38.57,43.62,38.85,43.68,39.1,43.55 M47.62,58.28L47.62,58.28c-0.34,0.25-0.82,0.17-1.06-0.18c-0.25-0.34-0.16-0.82,0.18-1.07
				c0.34-0.24,0.82-0.16,1.07,0.18C48.04,57.56,47.96,58.04,47.62,58.28 M49.36,57.42L49.36,57.42c-0.13-0.19-0.65-0.01-0.79,0.08
				l-0.3,0.04l-0.18-0.17c-0.03-0.08-0.03-0.16,0.02-0.23c0.05-0.09,0.16-0.15,0.28-0.16c0.16-0.01,0.69-0.16,0.69-0.39
				c0-0.2-0.2-0.56-0.54-0.8c-0.34-0.24-0.74-0.34-0.92-0.28c-0.22,0.07-0.2,0.61-0.17,0.78c0.03,0.12,0,0.24-0.07,0.32
				c-0.06,0.06-0.13,0.09-0.22,0.09l-0.22-0.12l-0.04-0.29c0.04-0.16,0.06-0.71-0.16-0.78c-0.18-0.06-0.59,0.02-0.92,0.26
				c-0.34,0.25-0.55,0.6-0.55,0.79c0,0.23,0.53,0.39,0.69,0.4l0.26,0.14l0.04,0.24c-0.02,0.08-0.07,0.15-0.15,0.18
				c-0.1,0.04-0.22,0.03-0.32-0.04c-0.14-0.09-0.65-0.28-0.79-0.09c-0.12,0.16-0.16,0.57-0.03,0.96c0.13,0.4,0.4,0.71,0.58,0.77
				c0.22,0.07,0.53-0.38,0.59-0.53c0.05-0.12,0.14-0.2,0.25-0.22c0.08-0.02,0.16,0,0.22,0.06c0,0,0.11,0.23,0.11,0.23
				s-0.13,0.25-0.13,0.25c-0.1,0.09-0.36,0.41-0.36,0.62c0,0.04,0.01,0.08,0.03,0.11c0.11,0.16,0.49,0.33,0.9,0.33h0
				c0.42,0,0.8-0.16,0.91-0.31c0.02-0.03,0.03-0.07,0.03-0.11c0-0.21-0.25-0.53-0.35-0.62l-0.13-0.27l0.11-0.22
				c0.07-0.06,0.15-0.08,0.23-0.06c0.1,0.02,0.19,0.1,0.24,0.22c0.06,0.15,0.37,0.61,0.59,0.54c0.19-0.06,0.47-0.37,0.59-0.76
				C49.51,57.99,49.47,57.58,49.36,57.42 M49.16,52.6L49.16,52.6v-1h0.63c0.27,0.36,0.46,0.72,0.57,1H49.16z M49.16,50.95
				L49.16,50.95c0.1,0.08,0.2,0.17,0.29,0.26h-0.29V50.95z M48.76,51.2L48.76,51.2h-1.26v-0.97c0.49,0.07,0.9,0.23,1.26,0.44V51.2z
				 M48.76,52.6L48.76,52.6h-1.26v-1h1.26V52.6z M47.1,51.2L47.1,51.2h-1.25v-0.45c0.34-0.23,0.76-0.4,1.25-0.49V51.2z M47.1,52.6
				L47.1,52.6h-1.25v-1h1.25V52.6z M45.45,51.2L45.45,51.2h-0.17c0.05-0.05,0.11-0.1,0.17-0.15V51.2z M45.45,52.6L45.45,52.6h-1.09
				c0.11-0.27,0.3-0.63,0.58-1h0.51V52.6z M55.1,54.85L55.1,54.85v-1.76c0-0.04,0.02-0.13,0.18-0.15c0,0,0.01-0.01,0.01-0.02
				c0-0.04-0.01-0.09-0.04-0.14c-0.23-0.44-0.42-1.09-0.43-1.14c0,0-0.2-3.84-0.2-3.84c0-0.35,0.33-0.81,0.39-0.9v-1.1
				c0-0.02-0.06-0.06-0.08-0.07H54.6c-0.06,0-0.08,0.04-0.08,0.02v0.09l-0.05,0.03l-0.15-0.03l-0.05-0.02c0,0,0-0.11-0.04-0.12
				l-0.38,0.02v0.47H53.3v-0.1l0.01-0.39l-0.43,0.01l-0.01,0.11l-0.05,0.02l-0.15,0.03l-0.06-0.03l0.01-0.06
				c-0.01-0.01-0.02-0.05-0.08-0.05l-0.29,0c-0.05,0.01-0.11,0.05-0.11,0.07v1.11c0.04,0.05,0.31,0.5,0.31,0.5l-0.46,0
				c0,0-0.15,0-0.17,0.02v0.47h-0.81v-0.1L51,47.41h-0.67c0,0-0.07,0.01-0.07,0v0.49l-0.81,0v-0.1v-1.77
				c0.01-0.3,0.27-0.94,0.27-0.93v-1.17c0-0.15-0.16-0.2-0.15-0.2h-0.71c-0.11,0-0.13,0.07-0.13,0.11v0.38h-0.25v-0.5
				c0-0.07-0.06-0.08-0.09-0.09l-0.62,0.04v0.55h-0.82v-0.11l-0.04-0.49h-0.58c-0.03,0-0.09,0.02-0.09,0.09v0.5h-0.25v-0.38
				c0-0.04-0.02-0.11-0.14-0.11l-0.69,0C45.15,43.73,45,43.78,45,43.93l-0.01,1.13c0.01,0.03,0.27,0.67,0.28,0.97v1.87h-0.81v-0.1
				l0.01-0.37l-0.08-0.01l-0.67,0.02v0.47H42.9v-0.1l-0.01-0.4l-0.43,0l-0.19,0.01c0,0,0.28-0.45,0.31-0.5V45.8
				c0-0.02-0.06-0.06-0.08-0.07h-0.33c-0.06,0-0.08,0.04-0.08,0.02v0.09l-0.05,0.03l-0.15-0.03l-0.05-0.02c0,0,0-0.11-0.04-0.12
				l-0.38,0.02v0.47h-0.54v-0.1l0.01-0.39l-0.43,0.01l0,0.11l-0.05,0.02l-0.15,0.03l-0.05-0.03l0.01-0.06
				c-0.01-0.01-0.02-0.05-0.08-0.05l-0.3,0c-0.05,0.01-0.11,0.05-0.11,0.07v1.1c0.06,0.09,0.39,0.55,0.39,0.9v0.01
				c0,0-0.2,3.83-0.21,3.86c-0.01,0.02-0.19,0.68-0.43,1.11c-0.03,0.07-0.04,0.15-0.04,0.17c0.17,0.03,0.19,0.11,0.19,0.15v1.76
				h3.05v-0.52h1.52c0-0.18,0.02-1.31,0.02-1.31s0-0.01,0.01-0.02h1.23v0.35h-0.2l0.4,0.68l0.4-0.68h-0.2v-0.35h1.25v0.35h-0.2
				l0.4,0.68l0.39-0.68h-0.19v-0.35h1.26v0.35h-0.2l0.4,0.68l0.4-0.68h-0.2v-0.35h1.34c0.01,0.02,0.01,0.05,0.01,0.05
				c0,0,0.01,1.11,0.02,1.29h1.52v0.52H55.1z M36.88,42.5L36.88,42.5l0.44,0v-0.82c0-3.86-0.02-6.64-0.02-7.4h9.97h9.93
				c0,0.76-0.02,3.54-0.02,7.4v0.88l0.43-0.01c0-5.02,0.02-8.44,0.02-8.49l0-0.22h-0.22H47.27H36.86v0.22
				C36.86,34.11,36.88,37.47,36.88,42.5 M48.13,59.98c0.6,0.33,0.89,0.24,0.89,0.24c0.11-0.22,0.01-0.88,0.01-0.88
				c-0.28,0.28-0.66-0.04-0.66-0.04C48.51,59.83,48.13,59.98,48.13,59.98"/>
			<path class="st0" d="M47.02,81L47.02,81c-18.9,0-34.23-15.33-34.23-34.23c0-18.91,15.33-34.23,34.23-34.23
				c18.91,0,34.23,15.32,34.23,34.23C81.25,65.68,65.93,81,47.02,81 M47.02,4.25c-23.48,0-42.52,19.04-42.52,42.52
				s19.04,42.52,42.52,42.52c23.48,0,42.52-19.04,42.52-42.52S70.5,4.25,47.02,4.25"/>
			<g>
				<path class="st0" d="M66.68,34.92l-0.97,0.45l-0.71,0.29l-1.25,0.52c0.1-0.35,0.07-0.6,0.07-0.6s-0.39,0.23-0.75-0.18
					c-0.36-0.42-0.03-1.09,0.57-1.66c0.59-0.57,1.29-0.64,2.15-0.34c0.57,0.21,0.99,0.72,1.29,1.3
					C66.94,34.77,66.82,34.84,66.68,34.92"/>
				<path class="st0" d="M56.49,44.82c-0.31,0.03-0.49,0.54-0.49,0.54c0.1-0.1,0.23-0.13,0.44-0.08c0.21,0.05,0.52,0.85,0.72,1.37
					c0.21,0.52-0.1,3-0.13,3.31c-0.02,0.31-0.28,0.54-0.28,0.54c1.45,0.13,1.22-1.01,1.19-1.3c-0.03-0.28,0.34-0.28,0.57,0.26
					c0.23,0.54,0.99,1.66,0.99,1.66c-0.42,0.18-0.29,0.88-0.29,0.88c0.42-0.13,1.24,0.39,2.12,0.96c0.64,0.41,1.48,0.57,2.46,0.55
					c0.53,1.32,1.46,2.4,1.61,2.56c0.21,0.21,0.36,0.75,0.36,0.75c0.02-0.05,0.12-0.12,0.25-0.11c0.07,0,0.16,0.03,0.25,0.11
					c0.23,0.21,0.36,2.07,0.18,2.56c-0.18,0.49-0.98,0.64-1.4,0.64c-0.42,0-1.56,0-1.81,0.03c-0.26,0.03-0.31,0.57-0.31,0.57
					c0.18-0.18,0.47,0.05,0.47,0.05s-0.26,0.21-0.42,0.36c-0.35,0.35-0.28,0.91-0.28,0.91c0.05-0.28,0.67-0.46,1.19-0.41
					c0.52,0.05,1.45,0.64,1.45,0.64c0.02,0.34,0.46,0.85,0.46,0.85s0.05-0.21,0.13-0.49c0.12-0.44,0.47-0.62,1.09-0.98
					c0.62-0.36,1.06-0.21,1.5-0.23c0.44-0.02,0.8,0.31,0.8,0.31c0.05-0.1,0.13-0.31-0.15-0.52c-0.45-0.33-1.4-1.11-1.5-1.63
					c-0.1-0.52-0.31-2.38-0.21-2.69c0.02-0.06,0.04-0.12,0.07-0.2c0.11-0.35,0.27-0.85,0.27-1.15c0-0.27-0.04-0.53,0.06-1
					c-1.5-1.73-3.39-4.15-3.78-5.56c-0.27-0.25-1.74-1.69-1.74-4.02c0-0.45,0.06-0.92,0.18-1.43c0.04-0.13,0.17-0.21,0.3-0.18
					c0.11,0.03,0.19,0.13,0.19,0.24c0,0.02,0,0.04-0.01,0.06c-0.12,0.47-0.17,0.92-0.17,1.33c0,2.28,1.54,3.6,1.62,3.67l0.06,0.05
					l0.02,0.08c0.46,1.94,4.6,6.52,5.38,7.3c0.06-0.18,0.12-0.51,0.18-0.84l0.02-0.12c0.81-4.29,2.25-7.7,2.69-8.56l0.33-0.58
					c0.46-0.79,0.98-1.68,0.98-3.13c0-0.12,0-0.25-0.01-0.38c-0.1-1.58-0.95-3.36-2.61-5.48c-0.96-1.22-1.91-1-2.6-0.84
					c-0.64,0.15-1.43,0.49-1.87,0.82c-0.91,0.66-0.61,2.13-0.57,2.29c0.1,0.43,0.64,0.65,0.65,0.65l0.38,0.15l-0.3,0.27
					c0,0-0.18,0.16-0.33,0.47c-0.14,0.28-0.11,0.52-0.11,0.52l0.09,0.63l-0.5-0.39c-0.36-0.29-1.56-0.33-2.35-0.36l-0.54-0.02
					c-0.14-0.01-0.24-0.12-0.24-0.26c0.01-0.14,0.13-0.24,0.27-0.24l0.53,0.02c0.95,0.03,1.73,0.08,2.26,0.28
					c0.02-0.12,0.06-0.25,0.13-0.39c0.08-0.16,0.16-0.26,0.23-0.36c-0.25-0.15-0.57-0.42-0.66-0.85c-0.03-0.13-0.09-0.45-0.09-0.85
					c0-0.63,0.16-1.45,0.86-1.96c0.5-0.37,1.35-0.74,2.05-0.9c0.5-0.12,1.24-0.29,2.03,0.1c0.38-0.88,1.24-2.32,0.56-4.19
					c-0.75-2.04-2.5-2.53-3.63-2.61c-1.14-0.08-2.41,0.34-3.12,0.63c-0.71,0.29-1.89,1.05-2.31,1.27c-0.42,0.21-1.48,0.52-2.12,1.37
					c-0.91,1.2-0.68,2.07-0.68,2.07s0,0.01-0.01,0.03c-0.02,0.1-0.11,0.44-0.18,0.63c-0.09,0.22-0.34,1-0.46,1.19
					c-0.12,0.19-0.19,0.44-0.19,0.71c0,0.27,0.11,0.56,0.21,0.49c0.03-0.03,0.1-0.1,0.18-0.19c-0.01,0.02-0.02,0.03-0.03,0.05
					l0.1-0.13c0.13-0.15,0.28-0.33,0.4-0.41c0.22-0.15,1.05-0.81,1.48-1.55c0,0,1.03-0.22,1.49-0.8c0.46-0.58,0.81-1.34,1.24-1.85
					c0.43-0.51,1.65-1.72,3.5-1.63c1.85,0.08,2.35,1.42,2.22,1.99c-0.11,0.5-0.4,1.37-2.17,2.3c-0.29,0.15-0.62,0.31-1,0.46
					c-1.18,0.48-2.1,0.85-2.81,1.15c-0.91,0.39-1.48,0.67-1.81,0.93c-0.6,0.46-2.74,2.02-3.07,4.29c-0.33,2.28,0.3,3.3,0.63,4.23
					c0.17,0.47,0.42,1.01,0.66,1.49c0.1,0.66,0.24,1.11,0.26,1.51c0.02,0.05,0.02,0.13,0,0.27c-0.02,0.11-0.05,0.19-0.09,0.27
					c-0.13,0.13-0.35-0.06-0.48-0.22c-0.18-0.21-0.78-1.19-0.98-1.92c-0.21-0.72-0.31-1.37-0.28-1.89c0.02-0.52,0.08-1.09,0.08-1.09
					c-0.1,0-0.31-0.28-0.31-0.28c0-0.23-0.13-0.62-0.36-0.96c-0.23-0.33-0.88,0-0.88,0c0.24,0.03,0.21,0.24,0.36,0.52
					c0.16,0.29,0.08,1.01,0.08,1.01C57.13,44.74,56.79,44.79,56.49,44.82L56.49,44.82 M74.37,49.71c-0.83-0.87-1.15-1.79-1.26-2.73
					c-0.6,1.29-1.81,4.48-2.49,8.07c0.72,0.02,1.56,0,1.56,0s0.22,1.62,0.74,2.24c0.39,0.47,0.91,0.6,1.44,0.43
					c0.53-0.17,1.12-1.22,0.93-2.31c-0.17-0.95-0.97-2.24-1.58-3c1.22,0.1,2.49-0.14,2.67-0.3c0.18-0.16-0.18-0.44-0.18-0.44
					C75.95,51.32,75.47,50.85,74.37,49.71"/>
			</g>
			<g>
				<path class="st0" d="M59.44,47.68c-0.2-0.37-0.46-0.93-0.64-1.41c-0.03-0.09-0.07-0.19-0.11-0.29c0.02,0.41,0.11,0.9,0.27,1.44
					c0.14,0.48,0.48,1.11,0.71,1.48c-0.02-0.12-0.05-0.25-0.08-0.4C59.54,48.26,59.48,48,59.44,47.68z"/>
				<path class="st0" d="M69.39,60.78c0.37,0.27,0.47,0.66,0.28,1.04l-0.25,0.5l-0.41-0.38c-0.06-0.05-0.27-0.2-0.47-0.2l-0.16,0
					l-0.48-0.01c-0.2,0-0.42,0.02-0.7,0.19c-0.64,0.37-0.83,0.49-0.9,0.73l-0.13,0.48l-0.16,0.64h4.82v1.21
					c0.14-0.08,0.26-0.16,0.35-0.24v0c0.66-0.34,1.2-1.24,1.33-1.65c0.16-0.51-0.38-1.02-0.81-1.4c-0.43-0.38-1.18-0.75-1.61-1.23
					c-0.16-0.18-0.75-0.39-1.47-0.61c-0.02-0.01-0.04-0.02-0.05-0.02c-0.08-0.03-0.2-0.07-0.33-0.11
					C68.48,60.03,68.91,60.43,69.39,60.78z"/>
				<path class="st0" d="M64.94,62.44c-0.36-0.21-0.87-0.47-1.12-0.49c-0.02,0-0.03,0-0.05,0c-0.43,0-0.67,0.09-0.72,0.14L62.26,62
					c-0.01-0.06-0.05-0.48,0.15-0.89l0.08-0.51c0.04-0.43,0.24-0.91,0.68-0.95c0.26-0.03,1.43-0.03,1.85-0.03
					c0.4,0,0.93-0.16,1-0.37c0.01-0.02,0.01-0.07,0.02-0.1c-0.02-0.01-0.07-0.02-0.09-0.02c-0.25-0.07-0.46-0.14-0.58-0.21
					c-0.81-0.38-2.26-0.43-3.06-0.48l-0.23-0.07l-0.01-1.73l-0.22-0.02c-0.6-0.06-1.32-0.03-2,0.12c0,0.18,0,0.29,0,0.46
					c0.55-0.14,1.16-0.13,1.73-0.09c0,0.2,0,0.7,0,1.11l0,0v2.14c-1.11-0.1-2.08,0.42-2.08,0.42c0.27,1.39,3.35,2.44,6.18,3.01h0.2
					l-0.4-0.47C65.36,63.19,65.06,62.82,64.94,62.44z"/>
			</g>
		</g>
		<g>
			<path class="st0" d="M24.74,65.55v0.4h0.64v0.28h-0.64v0.55h-0.32v-1.5h1.04v0.28H24.74z"/>
			<path class="st0" d="M25.95,66.69c-0.11-0.07-0.2-0.16-0.27-0.28c-0.07-0.12-0.1-0.25-0.1-0.4c0-0.15,0.03-0.28,0.1-0.4
				c0.07-0.12,0.16-0.21,0.27-0.28c0.11-0.07,0.24-0.1,0.39-0.1c0.14,0,0.27,0.03,0.39,0.1c0.11,0.07,0.2,0.16,0.27,0.28
				c0.07,0.12,0.1,0.25,0.1,0.4c0,0.15-0.03,0.28-0.1,0.4c-0.07,0.12-0.16,0.21-0.27,0.28c-0.11,0.07-0.24,0.1-0.39,0.1
				C26.19,66.8,26.06,66.76,25.95,66.69z M26.55,66.44c0.07-0.04,0.12-0.1,0.15-0.17c0.04-0.07,0.06-0.16,0.06-0.25
				s-0.02-0.18-0.06-0.25c-0.04-0.07-0.09-0.13-0.15-0.17c-0.07-0.04-0.14-0.06-0.22-0.06c-0.08,0-0.16,0.02-0.22,0.06
				c-0.07,0.04-0.12,0.1-0.15,0.17c-0.04,0.07-0.06,0.16-0.06,0.25s0.02,0.18,0.06,0.25c0.04,0.07,0.09,0.13,0.15,0.17
				c0.07,0.04,0.14,0.06,0.22,0.06C26.42,66.5,26.49,66.48,26.55,66.44z"/>
			<path class="st0" d="M28.21,66.77l-0.27-0.42h-0.02h-0.28v0.42h-0.32v-1.5h0.6c0.12,0,0.23,0.02,0.32,0.07
				c0.09,0.04,0.16,0.11,0.21,0.19c0.05,0.08,0.07,0.18,0.07,0.29c0,0.11-0.02,0.21-0.07,0.29c-0.05,0.08-0.12,0.14-0.21,0.19
				l0.31,0.48H28.21z M28.13,65.62c-0.05-0.04-0.12-0.07-0.22-0.07h-0.26v0.52h0.26c0.1,0,0.17-0.02,0.22-0.07s0.08-0.11,0.08-0.19
				C28.2,65.73,28.18,65.67,28.13,65.62z"/>
			<path class="st0" d="M29.82,65.55h-0.44v-0.28h1.2v0.28h-0.44v1.22h-0.32V65.55z"/>
			<path class="st0" d="M32.02,65.27v1.5H31.7v-0.61h-0.63v0.61h-0.32v-1.5h0.32v0.59h0.63v-0.59H32.02z"/>
			<path class="st0" d="M33.41,66.49v0.28h-1.07v-1.5h1.04v0.28h-0.73v0.33h0.64v0.27h-0.64v0.35H33.41z"/>
			<path class="st0" d="M34.83,66.18l-0.19,0.21v0.38h-0.32v-1.5h0.32v0.7l0.61-0.7h0.35l-0.57,0.67l0.61,0.83h-0.37L34.83,66.18z"
				/>
			<path class="st0" d="M35.78,65.27h0.32v1.5h-0.32V65.27z"/>
			<path class="st0" d="M37.69,65.27v1.5h-0.26l-0.69-0.91v0.91h-0.32v-1.5h0.26l0.69,0.91v-0.91H37.69z"/>
			<path class="st0" d="M38.95,66h0.29v0.61c-0.07,0.06-0.16,0.11-0.26,0.14c-0.1,0.03-0.2,0.05-0.3,0.05
				c-0.14,0-0.27-0.03-0.39-0.1s-0.2-0.16-0.27-0.28c-0.06-0.12-0.1-0.25-0.1-0.4c0-0.15,0.03-0.28,0.1-0.4
				c0.07-0.12,0.16-0.21,0.27-0.28c0.12-0.07,0.25-0.1,0.39-0.1c0.12,0,0.23,0.02,0.33,0.07c0.1,0.04,0.18,0.11,0.25,0.19
				l-0.21,0.21c-0.1-0.11-0.22-0.17-0.36-0.17c-0.09,0-0.17,0.02-0.23,0.06c-0.07,0.04-0.12,0.1-0.16,0.17
				c-0.04,0.07-0.06,0.16-0.06,0.25c0,0.09,0.02,0.18,0.06,0.25c0.04,0.07,0.09,0.13,0.16,0.17c0.07,0.04,0.14,0.06,0.23,0.06
				c0.09,0,0.17-0.02,0.25-0.06V66z"/>
			<path class="st0" d="M39.79,66.43c0.04,0.04,0.05,0.09,0.05,0.15c0,0.03,0,0.06-0.01,0.09c-0.01,0.03-0.02,0.07-0.04,0.13
				l-0.11,0.31h-0.2l0.09-0.34c-0.03-0.01-0.06-0.04-0.08-0.07c-0.02-0.03-0.03-0.07-0.03-0.11c0-0.06,0.02-0.11,0.05-0.15
				c0.04-0.04,0.08-0.06,0.14-0.06C39.71,66.37,39.76,66.39,39.79,66.43z"/>
			<path class="st0" d="M41.12,65.55h-0.44v-0.28h1.2v0.28h-0.44v1.22h-0.32V65.55z"/>
			<path class="st0" d="M43.32,65.27v1.5H43v-0.61h-0.63v0.61h-0.32v-1.5h0.32v0.59H43v-0.59H43.32z"/>
			<path class="st0" d="M44.71,66.49v0.28h-1.07v-1.5h1.04v0.28h-0.73v0.33h0.64v0.27h-0.64v0.35H44.71z"/>
			<path class="st0" d="M45.62,65.27h0.32v1.22h0.69v0.28h-1.01V65.27z"/>
			<path class="st0" d="M47.73,66.45h-0.64l-0.12,0.32h-0.33l0.61-1.5h0.32l0.62,1.5h-0.34L47.73,66.45z M47.63,66.18l-0.22-0.57
				l-0.22,0.57H47.63z"/>
			<path class="st0" d="M50.34,65.27l-0.45,1.5h-0.34l-0.3-1.02l-0.31,1.02h-0.34l-0.45-1.5h0.33l0.31,1.05l0.33-1.05h0.3l0.32,1.06
				l0.32-1.06H50.34z"/>
			<path class="st0" d="M50.71,66.43c0.04,0.04,0.05,0.09,0.05,0.15c0,0.03,0,0.06-0.01,0.09c-0.01,0.03-0.02,0.07-0.04,0.13
				L50.6,67.1H50.4l0.09-0.34c-0.03-0.01-0.06-0.04-0.08-0.07c-0.02-0.03-0.03-0.07-0.03-0.11c0-0.06,0.02-0.11,0.05-0.15
				c0.04-0.04,0.08-0.06,0.14-0.06C50.63,66.37,50.67,66.39,50.71,66.43z"/>
			<path class="st0" d="M52.56,66.45h-0.64l-0.12,0.32h-0.33l0.61-1.5h0.32l0.62,1.5h-0.33L52.56,66.45z M52.46,66.18l-0.22-0.57
				l-0.22,0.57H52.46z"/>
			<path class="st0" d="M54.42,65.27v1.5h-0.26l-0.69-0.91v0.91h-0.32v-1.5h0.26l0.69,0.91v-0.91H54.42z"/>
			<path class="st0" d="M54.75,65.27h0.63c0.15,0,0.28,0.03,0.4,0.09c0.12,0.06,0.2,0.15,0.27,0.26c0.06,0.11,0.1,0.24,0.1,0.39
				s-0.03,0.28-0.1,0.39c-0.06,0.11-0.15,0.2-0.27,0.26c-0.11,0.06-0.25,0.09-0.4,0.09h-0.63V65.27z M55.36,66.48
				c0.14,0,0.25-0.04,0.33-0.12c0.08-0.08,0.12-0.2,0.12-0.34s-0.04-0.26-0.12-0.34c-0.08-0.08-0.19-0.13-0.33-0.13h-0.29v0.93
				H55.36z"/>
			<path class="st0" d="M57.32,65.55h-0.44v-0.28h1.2v0.28h-0.44v1.22h-0.32V65.55z"/>
			<path class="st0" d="M59.52,65.27v1.5H59.2v-0.61h-0.63v0.61h-0.32v-1.5h0.32v0.59h0.63v-0.59H59.52z"/>
			<path class="st0" d="M60.92,66.49v0.28h-1.07v-1.5h1.04v0.28h-0.73v0.33h0.64v0.27h-0.64v0.35H60.92z"/>
			<path class="st0" d="M62.74,65.34c0.09,0.04,0.16,0.11,0.21,0.19c0.05,0.08,0.07,0.18,0.07,0.29c0,0.11-0.02,0.21-0.07,0.29
				c-0.05,0.08-0.12,0.15-0.21,0.19c-0.09,0.04-0.2,0.07-0.32,0.07h-0.28v0.41h-0.32v-1.5h0.6C62.54,65.27,62.65,65.29,62.74,65.34z
				 M62.62,66.01c0.05-0.05,0.08-0.11,0.08-0.19c0-0.08-0.03-0.15-0.08-0.19c-0.05-0.04-0.12-0.07-0.22-0.07h-0.26v0.52h0.26
				C62.5,66.07,62.57,66.05,62.62,66.01z"/>
			<path class="st0" d="M64.32,66.49v0.28h-1.07v-1.5h1.04v0.28h-0.73v0.33h0.64v0.27h-0.64v0.35H64.32z"/>
			<path class="st0" d="M64.85,66.69c-0.11-0.07-0.2-0.16-0.27-0.28c-0.07-0.12-0.1-0.25-0.1-0.4c0-0.15,0.03-0.28,0.1-0.4
				c0.07-0.12,0.16-0.21,0.27-0.28c0.11-0.07,0.24-0.1,0.39-0.1c0.14,0,0.27,0.03,0.39,0.1c0.11,0.07,0.2,0.16,0.27,0.28
				c0.07,0.12,0.1,0.25,0.1,0.4c0,0.15-0.03,0.28-0.1,0.4c-0.07,0.12-0.16,0.21-0.27,0.28c-0.11,0.07-0.24,0.1-0.39,0.1
				C65.09,66.8,64.96,66.76,64.85,66.69z M65.46,66.44c0.07-0.04,0.12-0.1,0.15-0.17c0.04-0.07,0.06-0.16,0.06-0.25
				s-0.02-0.18-0.06-0.25c-0.04-0.07-0.09-0.13-0.15-0.17c-0.07-0.04-0.14-0.06-0.22-0.06c-0.08,0-0.16,0.02-0.22,0.06
				c-0.07,0.04-0.12,0.1-0.15,0.17c-0.04,0.07-0.06,0.16-0.06,0.25s0.02,0.18,0.06,0.25c0.04,0.07,0.09,0.13,0.15,0.17
				c0.07,0.04,0.14,0.06,0.22,0.06C65.32,66.5,65.39,66.48,65.46,66.44z"/>
			<path class="st0" d="M67.15,65.34c0.09,0.04,0.16,0.11,0.21,0.19c0.05,0.08,0.07,0.18,0.07,0.29c0,0.11-0.02,0.21-0.07,0.29
				c-0.05,0.08-0.12,0.15-0.21,0.19c-0.09,0.04-0.2,0.07-0.32,0.07h-0.28v0.41h-0.32v-1.5h0.6C66.95,65.27,67.06,65.29,67.15,65.34z
				 M67.03,66.01c0.05-0.05,0.08-0.11,0.08-0.19c0-0.08-0.03-0.15-0.08-0.19c-0.05-0.04-0.12-0.07-0.22-0.07h-0.26v0.52h0.26
				C66.91,66.07,66.98,66.05,67.03,66.01z"/>
			<path class="st0" d="M67.65,65.27h0.32v1.22h0.69v0.28h-1.01V65.27z"/>
			<path class="st0" d="M69.91,66.49v0.28h-1.07v-1.5h1.04v0.28h-0.73v0.33h0.64v0.27h-0.64v0.35H69.91z"/>
		</g>
	</g>
</g>
</svg>
