<svg id="ECC-Logo" xmlns="http://www.w3.org/2000/svg" xmlns:xlink="http://www.w3.org/1999/xlink" width="96" height="78.617" viewBox="0 0 96 78.617">
  <defs>
    <clipPath id="clip-path">
      <rect id="Rectangle_3" data-name="Rectangle 3" width="96" height="78.617" fill="#fff"/>
    </clipPath>
  </defs>
  <path id="Path_76" data-name="Path 76" d="M3.679,4.961,0,24.236H10.321l.4-2.031H2.788L4.111,15.17h7.041l.4-2H4.514l1.18-6.177h7.473l.4-2.031Z" transform="translate(0 -3.93)" fill="#fff"/>
  <g id="Group_4" data-name="Group 4">
    <g id="Group_3" data-name="Group 3" clip-path="url(#clip-path)">
      <path id="Path_77" data-name="Path 77" d="M63.217,31.123l1.208,7.892c.2,1.573.374,2.632.432,3.4h.086a31.545,31.545,0,0,1,1.468-3.231l4.251-8.064h2.616l-7.73,13.841h-2.36L60.774,31.123Z" transform="translate(-48.061 -24.659)" fill="#fff"/>
      <path id="Path_78" data-name="Path 78" d="M121.512,31.463c-2.274,0-3.971,2.2-4.542,4.375,3.737.03,6.667-.458,6.667-2.6,0-1.144-.862-1.773-2.125-1.773m2.643,11.5a9.62,9.62,0,0,1-4.6,1.087c-3.679,0-5.288-2.488-5.288-5.548,0-4.175,3.1-8.894,7.588-8.894,2.645,0,4.082,1.573,4.082,3.547,0,3.632-4.111,4.6-9.256,4.517a5.678,5.678,0,0,0,.288,2.632,3.162,3.162,0,0,0,3.1,1.859,7.79,7.79,0,0,0,3.736-.972Z" transform="translate(-90.366 -23.455)" fill="#fff"/>
      <path id="Path_79" data-name="Path 79" d="M170.372,43.76l1.7-8.923c.343-1.8.571-3.632.717-4.918h2.1c-.114.972-.232,1.944-.375,3h.086c.891-1.888,2.385-3.318,4.253-3.318a4.823,4.823,0,0,1,.662.057L179.053,32a3.264,3.264,0,0,0-.631-.058c-2.068,0-3.908,2.488-4.511,5.72l-1.151,6.092Z" transform="translate(-134.734 -23.455)" fill="#fff"/>
      <path id="Path_80" data-name="Path 80" d="M207,31.123l1.383,7.463c.314,1.573.486,2.6.631,3.632h.058c.374-.886.774-1.859,1.494-3.375l3.536-7.72h2.531l-5.2,10.524a25.8,25.8,0,0,1-4.8,7.263,8.752,8.752,0,0,1-4.054,2.4L202,49.282a9.324,9.324,0,0,0,2.557-1.344,10.755,10.755,0,0,0,2.674-3.175.974.974,0,0,0,.086-.63l-2.788-13.011Z" transform="translate(-159.747 -24.659)" fill="#fff"/>
      <path id="Path_81" data-name="Path 81" d="M276.609,8.637a4.368,4.368,0,0,0-2.3-.573c-3.333,0-5.922,3.518-5.922,7.207,0,1.658.574,3.4,2.617,3.4,1.84,0,4.051-2.087,4.656-5.2ZM280.6,0l-3.045,15.93a34.409,34.409,0,0,0-.605,4.375h-2.18l.372-2.745h-.057a5.933,5.933,0,0,1-5,3.059c-2.7,0-4.171-2.2-4.171-5.033,0-4.918,3.679-9.437,8.6-9.437a6.329,6.329,0,0,1,2.471.486L278.218,0Z" transform="translate(-210.291)" fill="#fff"/>
      <path id="Path_82" data-name="Path 82" d="M343.167,31.691a6.459,6.459,0,0,0-1.666-.2c-3.593,0-6.524,3.747-6.554,7.58,0,1.543.546,3.06,2.386,3.06,1.983,0,4.342-2.573,5.031-6.263ZM341.619,43.76a35.735,35.735,0,0,1,.314-3.575h-.057c-1.526,2.861-3.422,3.889-5.4,3.889-2.442,0-3.994-1.944-3.994-4.576a9.686,9.686,0,0,1,9.618-9.9,13.047,13.047,0,0,1,3.737.543l-1.4,7.207a31.31,31.31,0,0,0-.606,6.406Z" transform="translate(-262.93 -23.455)" fill="#fff"/>
      <path id="Path_83" data-name="Path 83" d="M393.995,31.123l1.377,7.463c.318,1.573.492,2.6.634,3.632h.057c.371-.886.777-1.859,1.494-3.375l3.537-7.72h2.528l-5.2,10.524a25.783,25.783,0,0,1-4.8,7.263,8.718,8.718,0,0,1-4.051,2.4l-.577-2.031a9.286,9.286,0,0,0,2.559-1.344,10.751,10.751,0,0,0,2.674-3.175.973.973,0,0,0,.085-.63l-2.788-13.011Z" transform="translate(-307.622 -24.659)" fill="#fff"/>
      <path id="Path_84" data-name="Path 84" d="M11.63,182.485a10.735,10.735,0,0,1-3.911.628c-4.539,0-7.445-2.745-7.445-7.149,0-4.09,2.817-7.436,8.047-7.436a10.172,10.172,0,0,1,3.337.544l-.691,3.231a6,6,0,0,0-2.443-.429,3.92,3.92,0,0,0,.086,7.836,6.755,6.755,0,0,0,2.5-.428Z" transform="translate(-0.217 -133.524)" fill="#fff"/>
      <rect id="Rectangle_2" data-name="Rectangle 2" width="4.368" height="20.305" transform="translate(12.684 28.999)" fill="#fff"/>
      <path id="Path_85" data-name="Path 85" d="M92.5,146.809h4.371v13.984H92.5Zm4.514-3.889a2.186,2.186,0,1,1-.684-1.609,2.189,2.189,0,0,1,.684,1.609" transform="translate(-73.061 -111.489)" fill="#fff"/>
      <path id="Path_86" data-name="Path 86" d="M124.679,173.3c0-1.744-.057-3.231-.114-4.461h3.679l.2,1.887h.086a4.884,4.884,0,0,1,4.256-2.2,3.982,3.982,0,0,1,3.851,2.375h.057a6.31,6.31,0,0,1,1.811-1.687,5.1,5.1,0,0,1,2.674-.688c2.7,0,4.742,1.888,4.742,6.064v8.236h-4.253v-7.607c0-2.031-.66-3.2-2.069-3.2a2.138,2.138,0,0,0-2.014,1.515,3.644,3.644,0,0,0-.171,1.115v8.179H133.16v-7.835c0-1.773-.631-2.974-2.014-2.974a2.219,2.219,0,0,0-2.039,1.573,2.884,2.884,0,0,0-.172,1.086v8.151h-4.256Z" transform="translate(-98.509 -133.525)" fill="#fff"/>
      <path id="Path_87" data-name="Path 87" d="M241.858,176.222c-2.3-.028-4.083.514-4.083,2.2a1.566,1.566,0,0,0,1.726,1.658,2.385,2.385,0,0,0,2.271-1.6,3.11,3.11,0,0,0,.086-.743Zm.517,6.606-.26-1.4h-.086a5.067,5.067,0,0,1-4.022,1.715,4.3,4.3,0,0,1-4.542-4.288c0-3.632,3.277-5.377,8.25-5.349v-.2c0-.743-.4-1.8-2.559-1.8a7.94,7.94,0,0,0-3.88,1.057l-.806-2.8a11.655,11.655,0,0,1,5.462-1.23c4.685,0,6.182,2.745,6.182,6.035v4.862a21.651,21.651,0,0,0,.2,3.4Z" transform="translate(-184.629 -133.525)" fill="#fff"/>
      <path id="Path_88" data-name="Path 88" d="M303.97,150.768v4h3.13v3.2h-3.13v5.062c0,1.687.4,2.46,1.723,2.46a7.182,7.182,0,0,0,1.294-.115l.029,3.29a8.624,8.624,0,0,1-2.846.371,4.554,4.554,0,0,1-3.276-1.2c-.806-.83-1.208-2.173-1.208-4.147v-5.72h-1.868v-3.2h1.868v-3.031Z" transform="translate(-235.52 -119.453)" fill="#fff"/>
      <path id="Path_89" data-name="Path 89" d="M353.6,174.25a2.531,2.531,0,0,0-2.474-2.832,2.86,2.86,0,0,0-2.7,2.832Zm-5.148,2.973c.143,1.8,1.925,2.66,3.968,2.66a12.473,12.473,0,0,0,3.88-.571l.574,2.944a13.894,13.894,0,0,1-5.085.858c-4.773,0-7.5-2.745-7.5-7.121,0-3.545,2.214-7.465,7.1-7.465,4.542,0,6.268,3.518,6.268,6.979a10.378,10.378,0,0,1-.143,1.713Z" transform="translate(-272.272 -133.525)" fill="#fff"/>
      <path id="Path_90" data-name="Path 90" d="M11.63,322.106a10.7,10.7,0,0,1-3.911.63c-4.539,0-7.445-2.745-7.445-7.149,0-4.09,2.817-7.435,8.047-7.435a10.177,10.177,0,0,1,3.337.543l-.691,3.231a6,6,0,0,0-2.443-.429,3.92,3.92,0,0,0,.086,7.836,6.726,6.726,0,0,0,2.5-.429Z" transform="translate(-0.217 -244.146)" fill="#fff"/>
      <path id="Path_91" data-name="Path 91" d="M60.637,279.232h4.368v7.979h.057a5.276,5.276,0,0,1,1.726-1.43,4.93,4.93,0,0,1,2.271-.543c2.788,0,4.916,1.915,4.916,6.119v8.179H69.6v-7.693c0-1.83-.631-3.088-2.268-3.088a2.331,2.331,0,0,0-2.188,1.516,2.763,2.763,0,0,0-.142.972v8.293H60.637Z" transform="translate(-47.953 -221.234)" fill="#fff"/>
      <path id="Path_92" data-name="Path 92" d="M136.371,315.442c0,2.4,1.006,4.2,2.874,4.2,1.7,0,2.788-1.688,2.788-4.2,0-2.087-.806-4.2-2.788-4.2-2.1,0-2.874,2.144-2.874,4.2m10.176-.142c0,5.118-3.651,7.463-7.416,7.463-4.111,0-7.274-2.687-7.274-7.206s2.988-7.406,7.5-7.406a6.817,6.817,0,0,1,7.188,7.149" transform="translate(-104.276 -244.146)" fill="#fff"/>
      <path id="Path_93" data-name="Path 93" d="M209.106,286.425h4.368v13.984h-4.368Zm4.51-3.89a2.185,2.185,0,1,1-.683-1.609,2.188,2.188,0,0,1,.683,1.609" transform="translate(-165.272 -222.106)" fill="#fff"/>
      <path id="Path_94" data-name="Path 94" d="M249.219,322.106a10.68,10.68,0,0,1-3.908.63c-4.543,0-7.447-2.745-7.447-7.149,0-4.09,2.817-7.435,8.05-7.435a10.187,10.187,0,0,1,3.337.543l-.691,3.231a6.024,6.024,0,0,0-2.446-.429,3.92,3.92,0,0,0,.086,7.836,6.752,6.752,0,0,0,2.5-.429Z" transform="translate(-188.108 -244.146)" fill="#fff"/>
      <path id="Path_95" data-name="Path 95" d="M302.186,313.868c0-1.057-.457-2.831-2.471-2.831a2.862,2.862,0,0,0-2.7,2.831Zm-5.145,2.976c.145,1.8,1.928,2.659,3.967,2.659a12.452,12.452,0,0,0,3.88-.571l.577,2.946a13.983,13.983,0,0,1-5.091.857c-4.771,0-7.5-2.745-7.5-7.121,0-3.545,2.214-7.463,7.1-7.463,4.542,0,6.265,3.517,6.265,6.977a10.36,10.36,0,0,1-.143,1.719Z" transform="translate(-231.611 -244.146)" fill="#fff"/>
      <path id="Path_96" data-name="Path 96" d="M360.746,318.645a8.543,8.543,0,0,0,3.765,1.059c1.322,0,1.868-.458,1.868-1.172s-.432-1.059-2.072-1.6c-2.9-.972-4.022-2.545-3.994-4.2,0-2.6,2.24-4.576,5.72-4.576a9.467,9.467,0,0,1,3.967.8l-.777,3a6.934,6.934,0,0,0-3.048-.8c-1.063,0-1.665.428-1.665,1.144,0,.657.545,1,2.271,1.6,2.674.915,3.793,2.258,3.823,4.318,0,2.6-2.069,4.518-6.094,4.518a9.993,9.993,0,0,1-4.542-.972Z" transform="translate(-284.672 -244.146)" fill="#fff"/>
    </g>
  </g>
</svg>
