<?xml version="1.0" encoding="utf-8"?>
<!-- Generator: Adobe Illustrator 23.0.1, SVG Export Plug-In . SVG Version: 6.00 Build 0)  -->
<svg version="1.1" id="Layer_1" xmlns="http://www.w3.org/2000/svg" xmlns:xlink="http://www.w3.org/1999/xlink" x="0px" y="0px"
	 viewBox="0 0 253.5 129.3" style="enable-background:new 0 0 253.5 129.3;" xml:space="preserve">
<g>
	<path d="M74.1,45.2C74.1,45.2,74.1,45.1,74.1,45.2c0-0.6-0.4-1-0.8-1.2c-0.3-0.1-0.9-0.1-1.5,0.1c0.1,0.2,0.3,0.3,0.3,0.5l0.1,0.1
		l0.1,0.3c0.1,0.2,0.2,0.5,0.4,0.7H74C74,45.5,74.1,45.3,74.1,45.2L74.1,45.2z"/>
	<path d="M72,45L72,44.9l-0.1-0.2c-0.1-0.2-0.3-0.5-0.5-0.7L71.2,44c-0.3-0.2-1.9-0.4-2.9,0c0.2,0.2,0.3,0.4,0.4,0.6l0.1,0.1
		l0.1,0.2c0.1,0.2,0.2,0.5,0.4,0.7h3C72.2,45.4,72.1,45.2,72,45L72,45z"/>
	<path d="M68.6,45l-0.1-0.2v0l-0.1-0.2c-0.1-0.2-0.3-0.5-0.6-0.7c-0.3-0.2-1.9-0.4-3,0c0.2,0.2,0.3,0.4,0.4,0.6l0.1,0.1l0.1,0.3
		c0.1,0.2,0.2,0.5,0.4,0.7h3C68.7,45.4,68.6,45.2,68.6,45L68.6,45z"/>
	<path d="M65.1,45L65,44.9l-0.1-0.2c-0.1-0.2-0.3-0.5-0.6-0.7c-0.3-0.2-1.9-0.4-3,0c0.2,0.2,0.3,0.4,0.4,0.6l0.1,0.1l0.1,0.3
		c0.1,0.2,0.2,0.5,0.4,0.7h3C65.2,45.4,65.1,45.2,65.1,45L65.1,45z"/>
	<path d="M61.6,45l-0.1-0.2l-0.1-0.2c-0.1-0.2-0.3-0.5-0.6-0.7c-0.3-0.2-1.9-0.4-3,0c0.2,0.2,0.3,0.4,0.4,0.5l0.1,0.1l0.1,0.2
		c0.1,0.2,0.3,0.6,0.6,0.8h2.8C61.8,45.4,61.7,45.2,61.6,45L61.6,45z"/>
	<path d="M58.1,45L58,44.8l-0.1-0.2c-0.1-0.2-0.3-0.5-0.6-0.6L57.2,44c-0.4-0.2-1.1-0.1-1.5,0.3c-0.1,0.1-0.2,0.3-0.2,0.4v0
		c0,0.3,0.1,0.6,0.3,0.9h2.6C58.3,45.4,58.2,45.1,58.1,45L58.1,45z"/>
	<path d="M71.5,23.9c-2.1-2.5-4.6-3.3-6.3-3.5l-0.3-0.6l0.7,0.3v-1l-0.7,0.3l0.3-0.7h-1l0.3,0.7l-0.7-0.3v1l0.7-0.3l-0.3,0.5
		c-1.7,0.1-4.3,1-6.4,3.5c-0.1,0.1-0.2,0.4,0,0.6c0.2,0.2,0.3,0.2,0.4,0.4c0.2,0.2,0.6,1.2,0.7,1.4c0.1,0.3,0.1,0.7,0.1,0.7
		s-0.1,0.5,0.1,0.7c0.2,0.2,0.5,0.1,0.5,0.2c0.1,0.1,0,0.2,0.5,0.1c0.4-0.1,2.2-0.8,4.4-0.8c2.2,0,4,0.7,4.4,0.8
		c0.4,0.1,0.4,0,0.5-0.1c0.1-0.1,0.4-0.1,0.5-0.2c0.2-0.2,0.1-0.7,0.1-0.7s0-0.4,0.1-0.7c0.1-0.3,0.6-1.3,0.7-1.4
		c0.2-0.2,0.3-0.2,0.4-0.4C71.7,24.3,71.6,24,71.5,23.9L71.5,23.9z M64.1,25.5L64.1,25.5c-0.3,0.1-0.6,0.2-0.8,0.2
		c-0.8,0.1-0.9-0.1-1-0.2c-0.2-0.3,0.2-1,0.7-0.8c0,0-0.2-0.9-1-0.3c0,0,0-0.8-0.6-0.9c-0.4,0.5,0,1.1,0,1.1c-1,0-0.6,0.8-0.6,0.8
		c0.3-0.4,1-0.2,1,0.3c0,0.3-0.8,0.5-1.3,0.3c-0.6-0.2-1.1-1.4-0.9-1.6c1-1.6,3.3-2.3,3.6-2.4c0.3-0.1,0.5,0,0.6,0.2
		c0.1,0.1,0.4,0.6,0.6,1.2h-0.4l0.5,1l-1.1-0.5v1.4l1.1-0.5L64.1,25.5L64.1,25.5z M69.1,26L69.1,26c-0.6,0.2-1.3-0.1-1.3-0.3
		c0-0.5,0.7-0.7,1-0.3c0,0,0.4-0.8-0.6-0.8c0,0,0.5-0.6,0-1.1c-0.6,0.1-0.6,0.9-0.6,0.9c-0.9-0.6-1,0.3-1,0.3
		c0.5-0.1,0.9,0.5,0.7,0.8c-0.1,0.1-0.2,0.3-1,0.2c-0.2,0-0.5-0.1-0.8-0.2l-0.3-0.7l1.1,0.5v-1.4l-1.1,0.4l0.5-1h-0.4
		c0.2-0.5,0.5-1,0.6-1.2c0.1-0.2,0.3-0.3,0.6-0.2c0.3,0.1,2.6,0.8,3.6,2.4C70.1,24.6,69.7,25.8,69.1,26L69.1,26z"/>
	<path d="M64.9,28.1h-0.1h-9.5v1c0,0,0.9,0,1.8,0.4c0.7,0.4,1,1.1,1,1.4v10.9h-0.6l1.1,2l1.1-2h-0.6v-1h3v1h-0.6l1.1,2l1.1-2h-0.6
		v-1h3v1h-0.6l1.1,2l1.1-2h-0.6v-1h3v1h-0.6l1.1,2l1.1-2h-0.6V30.9c0.1-0.3,0.4-1,1-1.4c0.8-0.5,1.8-0.4,1.8-0.4v-1H64.9L64.9,28.1z
		 M70.4,33.9L70.4,33.9h-3v-4.4h3V33.9L70.4,33.9z M64.8,29.5L64.8,29.5L64.8,29.5h1.5v4.4h-3v-4.4H64.8L64.8,29.5z M59.2,29.5
		L59.2,29.5h3v4.4h-3V29.5L59.2,29.5z M59.2,35.2L59.2,35.2h3v4.4h-3V35.2L59.2,35.2z M63.3,35.2L63.3,35.2h3v4.4h-3V35.2L63.3,35.2
		z M67.4,35.2L67.4,35.2h3v4.4h-3V35.2L67.4,35.2z"/>
	<path d="M55.5,29.4c0,0.6,0.5,1.1,1.1,1.1c0.6,0,1.1-0.5,1.1-1.1c0-0.6-0.5-1.1-1.1-1.1C55.9,28.4,55.5,28.8,55.5,29.4L55.5,29.4z
		 M55.9,29.4L55.9,29.4c0-0.3,0.3-0.6,0.6-0.6c0.3,0,0.6,0.3,0.6,0.6c0,0.3-0.3,0.6-0.6,0.6C56.2,30.1,55.9,29.8,55.9,29.4
		L55.9,29.4z"/>
	<path d="M55.5,30.7l-0.2,1.8l1.5,0.2l0.3-2l-1.5-0.2L55.5,30.7L55.5,30.7z M56,31L56,31c0.2,0,0.4,0,0.6,0.1c0,0.3-0.1,0.8-0.1,1
		c-0.2,0-0.4,0-0.6-0.1C55.9,31.8,55.9,31.3,56,31L56,31z"/>
	<path d="M55.2,33l-0.1,1.7l1.6,0l0.1-2l-1.6,0L55.2,33L55.2,33z M55.7,33.3L55.7,33.3c0.2,0,0.4,0,0.6,0c0,0.3,0,0.7,0,1
		c-0.2,0-0.4,0-0.6,0C55.7,34,55.7,33.6,55.7,33.3L55.7,33.3z"/>
	<path d="M56.4,35l-1.3,0l0,2l1.6,0l0-2L56.4,35L56.4,35z M56.2,35.4L56.2,35.4c0,0.3,0,0.8,0,1.1c-0.2,0-0.4,0-0.6,0
		c0-0.3,0-0.8,0-1.1C55.8,35.4,56,35.4,56.2,35.4L56.2,35.4z"/>
	<path d="M55.1,37.3l-0.2,1.8l1.5,0.2l0.2-2l-1.5-0.2L55.1,37.3L55.1,37.3z M55.6,37.6L55.6,37.6c0.2,0,0.4,0,0.6,0.1
		c0,0.3-0.1,0.8-0.1,1c-0.2,0-0.4,0-0.6-0.1C55.5,38.4,55.5,37.9,55.6,37.6L55.6,37.6z"/>
	<path d="M54.8,39.4l-0.4,1.7l1.5,0.4l0.5-2l-1.5-0.4L54.8,39.4L54.8,39.4z M55.2,39.8L55.2,39.8c0.2,0,0.4,0.1,0.6,0.1
		c-0.1,0.3-0.2,0.8-0.2,1c-0.2-0.1-0.4-0.1-0.6-0.1C55.1,40.5,55.2,40.1,55.2,39.8L55.2,39.8z"/>
	<path d="M54.3,41.5l-0.8,1.6l1.4,0.7l0.9-1.8l-1.4-0.7L54.3,41.5L54.3,41.5z M54.6,41.9L54.6,41.9c0.2,0.1,0.3,0.2,0.5,0.3
		c-0.1,0.3-0.4,0.7-0.5,0.9c-0.2-0.1-0.3-0.2-0.5-0.3C54.2,42.6,54.5,42.2,54.6,41.9L54.6,41.9z"/>
	<path d="M52.4,44.4c0,0.6,0.5,1.1,1.1,1.1c0.6,0,1.1-0.5,1.1-1.1c0-0.6-0.5-1.1-1.1-1.1C52.9,43.3,52.4,43.8,52.4,44.4L52.4,44.4z
		 M52.9,44.4L52.9,44.4c0-0.3,0.3-0.6,0.6-0.6c0.3,0,0.6,0.3,0.6,0.6c0,0.3-0.3,0.6-0.6,0.6C53.2,45,52.9,44.7,52.9,44.4L52.9,44.4z
		"/>
	<path d="M73.1,28.4c-0.6,0-1.1,0.5-1.1,1.1c0,0.6,0.5,1.1,1.1,1.1c0.6,0,1.1-0.5,1.1-1.1C74.2,28.8,73.7,28.4,73.1,28.4L73.1,28.4z
		 M73.1,30.1L73.1,30.1c-0.3,0-0.6-0.3-0.6-0.6c0-0.3,0.3-0.6,0.6-0.6c0.3,0,0.6,0.3,0.6,0.6C73.7,29.8,73.5,30.1,73.1,30.1
		L73.1,30.1z"/>
	<path d="M74.1,30.5l-1.5,0.2l0.3,2l1.5-0.2l-0.2-1.8L74.1,30.5L74.1,30.5z M73.8,32.1L73.8,32.1c-0.2,0-0.4,0-0.6,0.1
		c0-0.3-0.1-0.8-0.1-1c0.2,0,0.4,0,0.6-0.1C73.7,31.3,73.8,31.8,73.8,32.1L73.8,32.1z"/>
	<path d="M74.4,32.8l-1.6,0l0.1,2l1.6,0L74.4,33L74.4,32.8L74.4,32.8z M74,34.3L74,34.3c-0.2,0-0.4,0-0.6,0c0-0.3,0-0.7,0-1
		c0.2,0,0.4,0,0.6,0C74,33.6,74,34,74,34.3L74,34.3z"/>
	<path d="M73,34.9l0,2l1.6,0l0-2l-1.3,0L73,34.9L73,34.9z M74,35.4L74,35.4c0,0.3,0,0.8,0,1.1c-0.2,0-0.4,0-0.6,0c0-0.3,0-0.8,0-1.1
		C73.7,35.4,73.8,35.4,74,35.4L74,35.4z"/>
	<path d="M74.5,37.1L73,37.2l0.2,2l1.5-0.2l-0.2-1.8L74.5,37.1L74.5,37.1z M74.2,38.6L74.2,38.6c-0.2,0-0.4,0-0.6,0.1
		c0-0.3-0.1-0.8-0.1-1c0.2,0,0.4,0,0.6-0.1C74.1,37.9,74.2,38.4,74.2,38.6L74.2,38.6z"/>
	<path d="M74.8,39.2l-1.5,0.4l0.5,2l1.5-0.4l-0.4-1.7L74.8,39.2L74.8,39.2z M74.7,40.8L74.7,40.8c-0.2,0-0.4,0.1-0.6,0.1
		c-0.1-0.3-0.2-0.8-0.3-1c0.2,0,0.4-0.1,0.6-0.1C74.5,40.1,74.6,40.5,74.7,40.8L74.7,40.8z"/>
	<path d="M75.3,41.3L73.9,42l1,1.8l1.4-0.7l-0.8-1.6L75.3,41.3L75.3,41.3z M75.6,42.9L75.6,42.9c-0.2,0.1-0.3,0.2-0.5,0.3
		c-0.1-0.3-0.4-0.7-0.5-0.9c0.2-0.1,0.3-0.2,0.5-0.3C75.2,42.2,75.4,42.6,75.6,42.9L75.6,42.9z"/>
	<path d="M76.1,43.3c-0.6,0-1.1,0.5-1.1,1.1c0,0.6,0.5,1.1,1.1,1.1c0.6,0,1.1-0.5,1.1-1.1C77.2,43.8,76.7,43.3,76.1,43.3L76.1,43.3z
		 M76.1,45L76.1,45c-0.3,0-0.6-0.3-0.6-0.6c0-0.3,0.3-0.6,0.6-0.6c0.3,0,0.6,0.3,0.6,0.6C76.7,44.7,76.5,45,76.1,45L76.1,45z"/>
	<path d="M35.4,46.3l1.5,0.7l1.1,0.4l1.9,0.8c-0.2-0.5-0.1-0.9-0.1-0.9s0.6,0.4,1.1-0.3c0.6-0.6,0-1.7-0.9-2.5c-0.9-0.9-2-1-3.3-0.5
		c-0.9,0.3-1.5,1.1-2,2C35,46.1,35.2,46.2,35.4,46.3L35.4,46.3z"/>
	<path d="M23.7,68.8c-1.7,1.7-2.4,2.5-2.8,3c0,0-0.6,0.4-0.3,0.7c0.3,0.2,2.2,0.6,4.1,0.5c-0.9,1.2-2.1,3.1-2.4,4.6
		c-0.3,1.7,0.6,3.3,1.4,3.5c0.8,0.3,1.6,0.1,2.2-0.7c0.8-1,1.1-3.4,1.1-3.4s1.3,0,2.4,0c-1-5.5-2.9-10.3-3.8-12.3
		C25.5,66.1,25,67.5,23.7,68.8L23.7,68.8z M50.9,61.4L50.9,61.4c-0.5,0-1-0.1-1.1,0c0,0-0.1-1.1,0.1-1.5c0.2-0.4,0.2-0.7,0.6-0.8
		c0,0-1-0.5-1.3,0c-0.4,0.5-0.5,1.1-0.5,1.5c0,0-0.3,0.4-0.5,0.4c0,0,0.1,0.9,0.1,1.7c0,0.8-0.1,1.8-0.4,2.9
		c-0.3,1.1-1.2,2.6-1.5,2.9c-0.2,0.2-0.5,0.5-0.7,0.3c-0.1-0.1-0.1-0.2-0.1-0.4c0-0.2,0-0.3,0-0.4c0-0.6,0.3-1.3,0.4-2.3
		c0.4-0.7,0.7-1.6,1-2.3c0.5-1.4,1.5-3,1-6.4c-0.5-3.5-3.8-5.8-4.7-6.5c-0.5-0.4-1.4-0.8-2.8-1.4c-1.1-0.5-2.5-1-4.3-1.8
		c-0.6-0.2-1.1-0.5-1.5-0.7c-2.7-1.4-3.1-2.7-3.3-3.5c-0.2-0.9,0.6-2.9,3.4-3c2.8-0.1,4.7,1.7,5.3,2.5c0.6,0.8,1.2,1.9,1.9,2.8
		c0.7,0.9,2.3,1.2,2.3,1.2c0.6,1.1,1.9,2.1,2.2,2.4c0.2,0.1,0.4,0.4,0.6,0.6l0.1,0.2c0,0,0,0,0-0.1c0.1,0.1,0.2,0.2,0.3,0.3
		c0.2,0.1,0.3-0.3,0.3-0.7c0-0.4-0.1-0.8-0.3-1.1c-0.2-0.3-0.6-1.5-0.7-1.8c-0.1-0.3-0.2-0.8-0.3-1c0,0,0,0,0,0s0.4-1.3-1-3.1
		c-1-1.3-2.6-1.8-3.2-2.1c-0.6-0.3-2.4-1.5-3.5-1.9c-1.1-0.4-3-1.1-4.7-1c-1.7,0.1-4.4,0.9-5.5,4c-1,2.8,0.3,5,0.8,6.4
		c1.2-0.6,2.3-0.3,3.1-0.2c1.1,0.2,2.4,0.8,3.1,1.4c1.1,0.8,1.3,2,1.3,3c0,0.6-0.1,1.1-0.1,1.3c-0.1,0.7-0.6,1.1-1,1.3
		c0.1,0.1,0.2,0.3,0.4,0.5c0.1,0.2,0.2,0.4,0.2,0.6c0.8-0.3,2-0.4,3.4-0.4l0.8,0c0.2,0,0.4,0.2,0.4,0.4c0,0.2-0.1,0.4-0.4,0.4
		l-0.8,0c-1.2,0-3,0.1-3.6,0.5l-0.8,0.6l0.1-1c0,0,0.1-0.4-0.2-0.8c-0.2-0.5-0.5-0.7-0.5-0.7L34.2,54l0.6-0.2c0,0,0.8-0.3,1-1
		c0.1-0.3,0.5-2.5-0.9-3.5c-0.7-0.5-1.9-1-2.8-1.2c-1.1-0.2-2.5-0.6-4,1.3c-2.5,3.2-3.8,5.9-4,8.3c0,0.2,0,0.4,0,0.6
		c0,2.2,0.8,3.5,1.5,4.8l0.5,0.9c0.7,1.3,2.9,6.5,4.1,13l0,0.2c0.1,0.5,0.2,1,0.3,1.3c1.2-1.2,7.5-8.1,8.2-11.1l0-0.1l0.1-0.1
		c0.1-0.1,2.5-2.1,2.5-5.6c0-0.6-0.1-1.3-0.3-2c0,0,0-0.1,0-0.1c0-0.2,0.1-0.3,0.3-0.4c0.2,0,0.4,0.1,0.5,0.3C42,60,42,60.8,42,61.5
		c0,3.5-2.2,5.7-2.6,6.1c-0.6,2.1-3.5,5.8-5.7,8.5c0.1,0.7,0.1,1.1,0.1,1.5c0,0.5,0.2,1.2,0.4,1.8c0,0.1,0.1,0.2,0.1,0.3
		c0.2,0.5-0.2,3.3-0.3,4.1c-0.2,0.8-1.6,2-2.3,2.5c-0.4,0.3-0.3,0.6-0.2,0.8c0,0,0.5-0.5,1.2-0.5c0.7,0,1.3-0.2,2.3,0.4
		c0.9,0.5,1.5,0.8,1.7,1.5c0.1,0.4,0.2,0.7,0.2,0.7s0.7-0.8,0.7-1.3c0,0,1.4-0.9,2.2-1c0.8-0.1,1.7,0.2,1.8,0.6c0,0,0.1-0.8-0.4-1.4
		c-0.2-0.2-0.6-0.5-0.6-0.5s0.4-0.4,0.7-0.1c0,0-0.1-0.8-0.5-0.9c-0.4,0-2.1,0-2.8,0c-0.6,0-1.8-0.2-2.1-1c-0.3-0.7-0.1-3.6,0.3-3.9
		c0.1-0.1,0.3-0.2,0.4-0.2c0.2,0,0.4,0.1,0.4,0.2c0,0,0.2-0.8,0.5-1.1c0.2-0.2,1.6-1.9,2.4-3.9c1.5,0,2.8-0.2,3.7-0.8
		c1.3-0.9,2.6-1.7,3.2-1.5c0,0,0.2-1.1-0.4-1.3c0,0,1.1-1.7,1.5-2.5c0.4-0.8,0.9-0.8,0.9-0.4c0,0.4-0.4,2.2,1.8,2
		c0,0-0.4-0.4-0.4-0.8c0-0.5-0.5-4.3-0.2-5c0.3-0.8,0.8-2,1.1-2.1c0.3-0.1,0.5,0,0.7,0.1C51.7,62.2,51.4,61.4,50.9,61.4L50.9,61.4z"
		/>
	<path d="M69.7,33.1c0-0.1-0.1-0.2-0.2-0.3c0-0.1-0.2-0.1-0.3-0.2c-0.1-0.1,0-0.3-0.1-0.3c-0.1-0.1-0.2-0.1-0.3-0.2
		c-0.1-0.1-0.2-0.1-0.3-0.2c-0.1-0.1-0.2-0.1-0.3-0.2c-0.1-0.1-0.2-0.1-0.3-0.2c-0.1,0-0.1-0.1-0.2-0.1v2.2h1.9
		C69.7,33.4,69.7,33.2,69.7,33.1L69.7,33.1z M67.8,36.9L67.8,36.9c0.1,0,0.2-0.1,0.3-0.1c0.1-0.1,0.2-0.1,0.3-0.2
		c0.1-0.1,0.2-0.1,0.3-0.2c0.1-0.1,0.1-0.2,0.2-0.3c0.1-0.1,0.2-0.2,0.2-0.3c0.1-0.1,0.2-0.1,0.3-0.2h-1.6V36.9L67.8,36.9z
		 M65.2,30.6L65.2,30.6c-0.1,0-0.3-0.1-0.4-0.1c-0.1,0-0.2,0-0.3,0c-0.1,0-0.2-0.1-0.3-0.1c-0.1,0-0.2,0.1-0.3,0.1
		c-0.1,0-0.1,0-0.2,0v2.8h2.1v-2.9c-0.1,0-0.1-0.1-0.2-0.1C65.5,30.4,65.4,30.6,65.2,30.6L65.2,30.6z M63.7,37.7L63.7,37.7
		C63.7,37.7,63.7,37.7,63.7,37.7c0.2,0.7,0.2,1.1,0.1,1.5h1.4c0-0.4,0.2-0.9,0.7-1.6c0,0,0,0,0,0v-2h-2.1V37.7L63.7,37.7z
		 M60.3,35.7L60.3,35.7c0.1,0.1,0.2,0.1,0.3,0.2c0.1,0.1,0.2,0.2,0.2,0.2c0.1,0.1,0.1,0.2,0.2,0.3c0.1,0.1,0.2,0.1,0.3,0.2
		c0.1,0.1,0.1,0.2,0.2,0.3c0.1,0,0.1,0,0.2,0v-1.3L60.3,35.7C60.3,35.6,60.3,35.7,60.3,35.7L60.3,35.7z M61.3,31.6L61.3,31.6
		c-0.1,0.1-0.2,0.1-0.3,0.2c-0.1,0.1-0.2,0.1-0.3,0.2c-0.1,0.1-0.1,0.2-0.2,0.3c-0.1,0.1-0.1,0.2-0.1,0.3c-0.1,0.1-0.1,0.2-0.2,0.3
		c-0.1,0.1-0.1,0.2-0.1,0.4c0,0,0,0.1,0,0.1h1.7v-2.1c0,0.1-0.1,0.1-0.1,0.1C61.5,31.5,61.4,31.6,61.3,31.6L61.3,31.6z"/>
	<polygon points="30.2,92.6 31.7,92.6 31.7,93.1 30.7,93.1 30.7,93.6 31.6,93.6 31.6,93.9 30.7,93.9 30.7,94.9 30.2,94.9 30.2,92.6 
			"/>
	<path d="M33,92.6c0.7,0,1.1,0.5,1.1,1.2c0,0.6-0.4,1.2-1.1,1.2c-0.7,0-1.1-0.5-1.1-1.2C31.9,93.1,32.3,92.6,33,92.6L33,92.6z
		 M33,94.5L33,94.5c0.4,0,0.6-0.4,0.6-0.7c0-0.4-0.2-0.8-0.6-0.8c-0.4,0-0.6,0.4-0.6,0.8C32.4,94.1,32.6,94.5,33,94.5L33,94.5z"/>
	<path d="M34.4,92.6h1.2c0.4,0,0.7,0.3,0.7,0.6c0,0.3-0.1,0.5-0.4,0.6v0c0.2,0.1,0.3,0.3,0.3,0.5c0,0.1,0,0.4,0.1,0.5h-0.5
		c-0.1-0.1-0.1-0.4-0.1-0.5c0-0.2-0.1-0.3-0.4-0.3h-0.5v0.9h-0.5V92.6L34.4,92.6z M34.9,93.6L34.9,93.6h0.5c0.2,0,0.3-0.1,0.3-0.3
		c0-0.2-0.1-0.3-0.3-0.3h-0.5V93.6L34.9,93.6z"/>
	<polygon points="38,93.1 37.4,93.1 37.4,92.6 39.2,92.6 39.2,93.1 38.5,93.1 38.5,94.9 38,94.9 38,93.1 	"/>
	<polygon points="39.5,92.6 39.9,92.6 39.9,93.5 40.8,93.5 40.8,92.6 41.3,92.6 41.3,94.9 40.8,94.9 40.8,93.9 39.9,93.9 39.9,94.9 
		39.5,94.9 39.5,92.6 	"/>
	<polygon points="41.8,92.6 43.4,92.6 43.4,93.1 42.2,93.1 42.2,93.5 43.3,93.5 43.3,93.9 42.2,93.9 42.2,94.5 43.4,94.5 43.4,94.9 
		41.8,94.9 41.8,92.6 	"/>
	<path d="M46.5,95.1l-0.3-0.3c-0.1,0.1-0.3,0.1-0.5,0.1c-0.7,0-1.1-0.5-1.1-1.2c0-0.7,0.4-1.2,1.1-1.2c0.7,0,1.1,0.5,1.1,1.2
		c0,0.3-0.1,0.6-0.3,0.8l0.3,0.3L46.5,95.1L46.5,95.1z M45.8,94L45.8,94l0.3,0.2c0.1-0.1,0.1-0.3,0.1-0.5c0-0.4-0.2-0.8-0.6-0.8
		c-0.4,0-0.6,0.4-0.6,0.8c0,0.4,0.2,0.7,0.6,0.7c0.1,0,0.2,0,0.2,0l-0.2-0.2L45.8,94L45.8,94z"/>
	<path d="M48.9,94c0,0.6-0.4,0.9-0.9,0.9c-0.6,0-0.9-0.3-0.9-0.9v-1.4h0.5V94c0,0.2,0.1,0.5,0.5,0.5c0.3,0,0.5-0.1,0.5-0.5v-1.4h0.5
		V94L48.9,94z"/>
	<polygon points="49.4,92.6 51,92.6 51,93.1 49.8,93.1 49.8,93.5 50.9,93.5 50.9,93.9 49.8,93.9 49.8,94.5 51,94.5 51,94.9 
		49.4,94.9 49.4,92.6 	"/>
	<polygon points="51.4,92.6 53,92.6 53,93.1 51.9,93.1 51.9,93.5 52.9,93.5 52.9,93.9 51.9,93.9 51.9,94.5 53.1,94.5 53.1,94.9 
		51.4,94.9 51.4,92.6 	"/>
	<polygon points="53.4,92.6 53.9,92.6 54.8,94.1 54.8,94.1 54.8,92.6 55.3,92.6 55.3,94.9 54.8,94.9 53.8,93.4 53.8,93.4 53.8,94.9 
		53.4,94.9 53.4,92.6 	"/>
	<path d="M55.7,94.4h0.5v0.5c0,0.3-0.2,0.5-0.5,0.5v-0.2c0.1,0,0.2-0.2,0.2-0.3h-0.2V94.4L55.7,94.4z"/>
	<polygon points="57.9,93.1 57.2,93.1 57.2,92.6 59.1,92.6 59.1,93.1 58.4,93.1 58.4,94.9 57.9,94.9 57.9,93.1 	"/>
	<polygon points="59.3,92.6 59.8,92.6 59.8,93.5 60.7,93.5 60.7,92.6 61.2,92.6 61.2,94.9 60.7,94.9 60.7,93.9 59.8,93.9 59.8,94.9 
		59.3,94.9 59.3,92.6 	"/>
	<polygon points="61.6,92.6 63.3,92.6 63.3,93.1 62.1,93.1 62.1,93.5 63.2,93.5 63.2,93.9 62.1,93.9 62.1,94.5 63.3,94.5 63.3,94.9 
		61.6,94.9 61.6,92.6 	"/>
	<polygon points="64.5,92.6 65,92.6 65,94.5 66.1,94.5 66.1,94.9 64.5,94.9 64.5,92.6 	"/>
	<path d="M66.9,92.6h0.5l0.8,2.2h-0.5l-0.2-0.5h-0.8l-0.2,0.5h-0.5L66.9,92.6L66.9,92.6z M66.9,94L66.9,94h0.6l-0.3-0.8h0L66.9,94
		L66.9,94z"/>
	<polygon points="70.5,94.9 70,94.9 69.7,93.4 69.7,93.4 69.3,94.9 68.8,94.9 68.2,92.6 68.7,92.6 69,94.2 69.1,94.2 69.4,92.6 
		69.9,92.6 70.3,94.2 70.3,94.2 70.6,92.6 71.1,92.6 70.5,94.9 	"/>
	<path d="M71.1,94.4h0.5v0.5c0,0.3-0.2,0.5-0.5,0.5v-0.2c0.1,0,0.2-0.2,0.2-0.3h-0.2V94.4L71.1,94.4z"/>
	<path d="M73.4,92.6h0.5l0.8,2.2h-0.5l-0.2-0.5h-0.8l-0.2,0.5h-0.5L73.4,92.6L73.4,92.6z M73.4,94L73.4,94H74l-0.3-0.8h0L73.4,94
		L73.4,94z"/>
	<polygon points="75,92.6 75.5,92.6 76.4,94.1 76.4,92.6 76.8,92.6 76.8,94.9 76.4,94.9 75.4,93.4 75.4,93.4 75.4,94.9 75,94.9 
		75,92.6 	"/>
	<path d="M77.3,92.6h1c0.6,0,1,0.4,1,1.1c0,0.6-0.3,1.1-1,1.1h-1V92.6L77.3,92.6z M77.8,94.5L77.8,94.5h0.4c0.3,0,0.5-0.2,0.5-0.7
		c0-0.4-0.2-0.7-0.6-0.7h-0.4V94.5L77.8,94.5z"/>
	<polygon points="80.9,93.1 80.3,93.1 80.3,92.6 82.1,92.6 82.1,93.1 81.4,93.1 81.4,94.9 80.9,94.9 80.9,93.1 	"/>
	<polygon points="82.3,92.6 82.8,92.6 82.8,93.5 83.7,93.5 83.7,92.6 84.2,92.6 84.2,94.9 83.7,94.9 83.7,93.9 82.8,93.9 82.8,94.9 
		82.3,94.9 82.3,92.6 	"/>
	<polygon points="84.6,92.6 86.3,92.6 86.3,93.1 85.1,93.1 85.1,93.5 86.2,93.5 86.2,93.9 85.1,93.9 85.1,94.5 86.3,94.5 86.3,94.9 
		84.6,94.9 84.6,92.6 	"/>
	<path d="M87.5,92.6h1c0.6,0,0.8,0.4,0.8,0.7c0,0.4-0.2,0.7-0.8,0.7H88v0.8h-0.5V92.6L87.5,92.6z M88,93.7L88,93.7h0.4
		c0.2,0,0.4,0,0.4-0.3c0-0.3-0.2-0.3-0.4-0.3H88V93.7L88,93.7z"/>
	<polygon points="89.6,92.6 91.3,92.6 91.3,93.1 90.1,93.1 90.1,93.5 91.2,93.5 91.2,93.9 90.1,93.9 90.1,94.5 91.3,94.5 91.3,94.9 
		89.6,94.9 89.6,92.6 	"/>
	<path d="M92.6,92.6c0.7,0,1.1,0.5,1.1,1.2c0,0.6-0.4,1.2-1.1,1.2c-0.7,0-1.1-0.5-1.1-1.2C91.5,93.1,91.9,92.6,92.6,92.6L92.6,92.6z
		 M92.6,94.5L92.6,94.5c0.4,0,0.6-0.4,0.6-0.7c0-0.4-0.2-0.8-0.6-0.8c-0.4,0-0.6,0.4-0.6,0.8C92,94.1,92.2,94.5,92.6,94.5L92.6,94.5
		z"/>
	<path d="M94,92.6h1c0.6,0,0.8,0.4,0.8,0.7c0,0.4-0.2,0.7-0.8,0.7h-0.5v0.8H94V92.6L94,92.6z M94.5,93.7L94.5,93.7h0.4
		c0.2,0,0.4,0,0.4-0.3c0-0.3-0.2-0.3-0.4-0.3h-0.4V93.7L94.5,93.7z"/>
	<polygon points="96.1,92.6 96.6,92.6 96.6,94.5 97.7,94.5 97.7,94.9 96.1,94.9 96.1,92.6 	"/>
	<polygon points="97.9,92.6 99.6,92.6 99.6,93.1 98.4,93.1 98.4,93.5 99.5,93.5 99.5,93.9 98.4,93.9 98.4,94.5 99.6,94.5 99.6,94.9 
		97.9,94.9 97.9,92.6 	"/>
	<path d="M100.8,90.4H28.3v6.7h72.8v-6.7H100.8L100.8,90.4z M100.4,96.3L100.4,96.3H29.1v-5.1h71.3V96.3L100.4,96.3z"/>
	<path d="M109.7,72.6L109.7,72.6c0-0.4-0.3-0.6-0.4-0.7c-0.3-0.4-0.8-0.9-1.7-1.9l-1-1.1c-1.3-1.4-1.8-2.9-1.9-4.6l0.4-0.7
		c0.8-1.3,1.7-3,1.6-5.7c-0.2-2.5-1.5-5.4-4.1-8.7c-0.4-0.6-0.9-0.9-1.3-1.2c0.1-0.2,0.2-0.5,0.2-0.5c0.4-1,1.1-2.3,1.1-3.9
		c0-0.7-0.1-1.5-0.4-2.3c-1.2-3.4-4.2-4.1-5.8-4.2c-1.8-0.1-3.9,0.6-4.9,1c-0.8,0.3-1.8,0.9-2.6,1.4l-0.9,0.5l-0.5,0.2
		c-0.8,0.4-2,0.9-2.9,2c-1,1.3-1.1,2.3-1.1,2.9c0,0.2,0,0.3,0,0.4c0,0-0.3,0.9-0.3,0.9l-0.2,0.4c-0.1,0.4-0.4,1.1-0.5,1.3
		C82.1,48.6,82,49,82,49.5c0,0.3,0.1,0.9,0.4,1.1c0.1,0.1,0.3,0.1,0.4,0c0,0,0.2-0.2,0.3-0.3l0,0l0.1-0.2c0,0,0.5-0.6,0.5-0.6
		c0.4-0.3,1.6-1.2,2.3-2.3c0.3-0.1,1.7-0.4,2.3-1.3l1-1.5l0.9-1.4c0.5-0.6,2.3-2.5,5-2.4c1.5,0.1,2.2,0.7,2.6,1.2
		c0.3,0.4,0.5,0.9,0.5,1.2c0,0.1,0,0.1,0,0.2c-0.1,0.5-0.4,1.8-2.8,3.1c-0.4-0.8-1.1-2-2.3-2.4c-1.5-0.5-2.7-0.3-3.6,0.6
		c-1.2,1.1-1.5,2.3-0.9,3c0.3,0.4,0.7,0.5,1,0.5c0,0.2-0.1,0.6-0.3,0.9c-1.5,0.7-2.3,1.1-2.8,1.5l-0.1,0.1c-1.1,0.9-4.2,3.2-4.7,6.6
		c-0.1,0.7-0.1,1.3-0.1,1.9c0,0.7,0.1,1.3,0.2,1.8c-0.1-0.1-0.2-0.2-0.2-0.2c0-0.4-0.2-1-0.6-1.5c-0.5-0.7-1.6-0.2-1.8-0.1L79,59.5
		l0.5,0.3c0,0,0.1,0.2,0.1,0.2l0.2,0.4c0.1,0.1,0.1,0.5,0.1,0.8c0,0.1,0,0.1,0,0.2c-0.2,0-0.4,0-0.6,0l-0.2,0c-0.7,0.1-1,1-1,1
		l0.2,0.1c0.1,0,0.4,0.2,0.6,0.2c0.2,0.2,0.7,1.3,0.9,1.8l0,0.1c0.2,0.4,0.1,1.9-0.2,4.5l0,0.4c0,0.3-0.3,0.6-0.3,0.6l-0.6,0.5
		l0.8,0.1c0.8,0.1,1.4-0.1,1.8-0.5c0.4-0.4,0.4-0.9,0.4-1.3c0-0.1,0-0.3,0-0.4c0.1,0.1,0.1,0.2,0.2,0.3c0.3,0.7,1,1.8,1.3,2.3
		c-0.3,0.3-0.3,0.7-0.3,1.1c0,0.2,0,0.3,0,0.4l0.1,0.4l0.4-0.1c0.5-0.2,2,0.8,2.9,1.4c0.9,0.6,2.1,0.9,3.7,0.9
		c0.8,1.9,2.2,3.5,2.4,3.8c0.2,0.2,0.4,0.7,0.5,1l0.2,0.8c0,0,0.3-0.5,0.4-0.7c0.1,0,0.3,0.1,0.3,0.1c0.2,0.3,0,2.9-0.2,3.5
		c0.2,0,0.5,0.2,0.7,0.2c0.2-0.9,0.4-3.8-0.1-4.3l-0.6-0.3c-0.1,0-0.1,0-0.2,0c-0.1-0.3-0.3-0.7-0.5-0.9c-0.2-0.2-1.6-1.8-2.4-3.8
		l-0.1-0.2l-0.2,0c-1.5,0-2.7-0.2-3.5-0.8c-1.3-0.9-2.4-1.5-3.1-1.5c0,0,0,0,0,0c0-0.3,0.1-0.6,0.3-0.7l0.4-0.2l-0.2-0.3
		c0,0-1.1-1.7-1.5-2.5c-0.3-0.8-0.8-0.9-1.1-0.9c-0.2,0-0.4,0.2-0.4,0.6c0,0,0,0,0,0.1l0,0.1c0,0.1,0,0.3,0,0.4c0,0.3,0,0.6-0.2,0.8
		c-0.1,0.1-0.4,0.2-0.6,0.2c0.1-0.1,0.1-0.3,0.1-0.4l0-0.4c0.1-1.3,0.3-2.6,0.3-3.6c0-0.5,0-1-0.1-1.2l0-0.1
		c-0.6-1.5-0.9-2.1-1.3-2.2c0,0,0,0,0,0c0,0,0,0,0,0l0.2,0c0.2,0,0.6-0.1,0.7,0l0.5,0.4l0.1-0.6c0-0.1,0-0.3,0-0.6
		c0-0.4,0-0.8-0.2-1.1l-0.1-0.3c0,0-0.1-0.1-0.1-0.1c0.2,0,0.4,0,0.4,0c0.3,0.5,0.5,1,0.5,1.3V61l0.1,0.1c0.2,0.2,0.3,0.3,0.4,0.4
		c0,0.3-0.1,1.4-0.1,1.4c0,0.1,0,0.2,0,0.3c0,0.8,0.2,1.7,0.5,2.7c0.3,1.1,1.3,2.7,1.6,3c0.3,0.3,0.6,0.5,0.8,0.5l0.4-0.2l0.2-0.6
		l0-0.6v0l0,0.1l-0.2-1.1l-0.2-1.2l0-0.1l-1-2.2l-0.3-0.7c-0.5-1.2-1.1-2.7-0.7-5.6c0.5-3.2,3.3-5.4,4.4-6.2l0.1-0.1
		c0.4-0.3,1.2-0.7,2.7-1.4l3.2-1.3l1.1-0.4l1.5-0.7c2.7-1.4,3.3-2.7,3.5-3.7c0.1-0.4,0-1.2-0.6-2c-0.5-0.6-1.4-1.4-3.1-1.4
		c-3-0.1-4.9,1.8-5.6,2.6l-1,1.4l-0.9,1.4c-0.6,0.8-2.1,1.1-2.1,1.1l-0.1,0l-0.1,0.1c-0.6,1.1-1.8,2-2.1,2.2l-0.7,0.7
		c0,0,0,0-0.1,0.1c0-0.1,0-0.1,0-0.2c0-0.3,0.1-0.7,0.2-0.9c0.1-0.2,0.3-0.8,0.6-1.4l0.2-0.4l0.3-1.1l0-0.1c0,0,0-0.1,0-0.3
		c0-0.5,0.1-1.4,1-2.5c0.7-1,1.9-1.4,2.6-1.8l0.5-0.2l0.9-0.5c0.8-0.5,1.8-1.1,2.5-1.4c1-0.4,2.9-1.1,4.6-0.9
		c1.5,0.1,4.1,0.7,5.2,3.8c0.9,2.4,0,4.3-0.6,5.6l-0.2,0.5c-1.1-0.4-2.1-0.2-2.8,0c-1.1,0.2-2.3,0.8-3.1,1.4c-1.1,0.8-1.3,2-1.3,2.9
		c0,0.6,0.1,1.1,0.1,1.3c0.1,0.7,0.7,1.1,1,1.3c-0.1,0.2-0.2,0.3-0.4,0.6c-0.1,0.2-0.2,0.5-0.2,0.7c-0.9-0.3-2.2-0.4-3.5-0.5l-0.8,0
		c0,0-0.3,0-0.3,0.3c0,0.4,0.3,0.4,0.3,0.4l0.8,0c1.2,0,3,0.1,3.6,0.6l0.7,0.5l-0.1-0.9c0,0-0.1-0.4,0.2-0.8
		c0.2-0.5,0.5-0.7,0.5-0.7l0.4-0.4l-0.5-0.2c0,0-0.9-0.3-1-1c-0.1-0.3-0.5-2.5,0.9-3.5c0.7-0.5,1.9-1,2.9-1.3c1.1-0.2,2.5-0.6,4,1.3
		c2.5,3.2,3.8,5.9,4,8.3c0,0.2,0,0.4,0,0.6c0,2.2-0.8,3.6-1.5,4.8l-0.5,0.9c-0.7,1.3-2.9,6.5-4.1,13l0,0.2c-0.1,0.6-0.2,1.1-0.3,1.3
		c-1-1-7.5-8.2-8.2-11.2l0-0.1l-0.1-0.1c-0.1-0.1-2.5-2.1-2.5-5.6c0-0.6,0.1-1.3,0.3-2c0,0,0.1-0.3-0.2-0.4
		c-0.3-0.1-0.4,0.2-0.4,0.2c-0.2,0.8-0.3,1.5-0.3,2.2c0,3.6,2.3,5.8,2.6,6.1c0.5,2,3.2,5.5,5.4,8.1l0,0.1c-0.2,0.7-0.2,1.2-0.1,1.5
		l0,0.3c0,0.4-0.3,1.3-0.4,1.6l0,0.1l-0.1,0.2c0,0.1-0.1,0.4-0.1,0.6c0,1.1,0.2,3,0.4,3.4c0.2,0.7,0.9,1.2,0.9,1.2
		c0.3,0.1,0.1-0.5,0.4-0.4c-0.1-0.2-0.4-0.5-0.6-1c-0.1-0.4-0.5-2.5-0.5-3.3c0-0.2,0-0.3,0-0.4c0,0,0.1-0.3,0.1-0.3
		c0.2-0.7,0.4-1.4,0.4-1.9l0-0.3c0-0.1,0-0.2,0-0.3c0-0.2,0-0.4,0.1-0.7c1.4,1.6,2.5,2.7,2.6,2.8c0.2,0.1,0.4,0.1,0.5,0.1
		c0.4-0.2,0.5-0.7,0.7-1.9c0.8,0,1.7,0,2.2,0c0.1,0.7,0.5,2.5,1.2,3.3c0.7,0.8,1.6,1.1,2.6,0.8c0.9-0.3,1.7-1.7,1.7-3.2
		c0-0.2,0-0.5-0.1-0.7c-0.2-1.3-1.2-2.9-2.1-4.1c1.6,0,3.2-0.3,3.6-0.6C109.6,72.9,109.7,72.8,109.7,72.6L109.7,72.6z M82.6,63.2
		L82.6,63.2l0.2,0.6c0,0,0.9,2,1,2.3c0,0.1,0.2,1.2,0.2,1.2l0.2,1l0,0.1l0,0.2c0,0,0,0.1,0,0.1c-0.1,0-0.1-0.1-0.2-0.2
		c-0.2-0.3-1.1-1.7-1.4-2.8c-0.3-1-0.4-1.8-0.4-2.5c0-0.1,0-0.2,0-0.2c0,0,0-0.5,0.1-1C82.3,62.4,82.4,62.8,82.6,63.2L82.6,63.2z
		 M93.8,47.3L93.8,47.3l-1.1,0.4l-2.4,1c0.1-0.3,0.2-0.7,0.2-0.8c0-0.1,0-0.2,0-0.2l-0.1-0.5L90,47.4c-0.1,0-0.4,0.2-0.7-0.2
		c-0.4-0.5,0.1-1.4,0.8-2c0.8-0.8,1.7-0.9,2.9-0.4c0.7,0.3,1.4,1,1.9,2.1C94.5,47,93.8,47.3,93.8,47.3L93.8,47.3z M105.2,72.9
		L105.2,72.9l-0.8-0.1l0.5,0.6c1,1.2,2.1,3.1,2.3,4.4c0.3,1.5-0.6,2.9-1.2,3.1c-0.7,0.2-1.3,0-1.8-0.5c-0.6-0.7-1-2.6-1.1-3.2l0-0.3
		l-0.3,0c0,0-1.3,0-2.3,0c1-4.9,2.6-9.3,3.5-11.4c0.2,1.3,0.7,2.7,1.9,3.9l1,1.1c1,1,1.4,1.5,1.7,1.9l0,0l0,0c0.1,0,0.1,0.1,0.2,0.2
		C108.6,72.7,107,73.1,105.2,72.9L105.2,72.9z"/>
	<path d="M66.3,85c0.9,0.5,1.4,0.4,1.4,0.4c0.2-0.3,0-1.3,0-1.3c-0.4,0.4-1-0.1-1-0.1C66.9,84.7,66.3,85,66.3,85L66.3,85z
		 M49.2,58.4L49.2,58.4l0.7,0v-1.2c0-5.9,0-10.1,0-11.3H65h15.1c0,1.2,0,5.4,0,11.3v1.3l0.7,0c0-7.6,0-12.8,0-12.9l0-0.3h-0.3H65
		H49.2v0.3C49.2,45.6,49.2,50.7,49.2,58.4L49.2,58.4z M76.9,77.2L76.9,77.2v-2.7c0-0.1,0-0.2,0.3-0.2c0,0,0,0,0,0
		c0-0.1,0-0.1-0.1-0.2c-0.4-0.7-0.6-1.7-0.7-1.7c0,0-0.3-5.8-0.3-5.8c0-0.5,0.5-1.2,0.6-1.4v-1.7c0,0-0.1-0.1-0.1-0.1h-0.5
		c-0.1,0-0.1,0.1-0.1,0v0.1l-0.1,0l-0.2,0l-0.1,0c0,0,0-0.2-0.1-0.2l-0.6,0V64h-0.8v-0.2l0-0.6l-0.7,0l0,0.2l-0.1,0l-0.2,0l-0.1,0
		l0-0.1c0,0,0-0.1-0.1-0.1l-0.4,0c-0.1,0-0.2,0.1-0.2,0.1v1.7c0.1,0.1,0.5,0.8,0.5,0.8l-0.7,0c0,0-0.2,0-0.3,0v0.7h-1.2v-0.2l0-0.6
		h-1c0,0-0.1,0-0.1,0v0.7l-1.2,0v-0.2v-2.7c0-0.5,0.4-1.4,0.4-1.4v-1.8c0-0.2-0.2-0.3-0.2-0.3h-1.1c-0.2,0-0.2,0.1-0.2,0.2V61h-0.4
		v-0.8c0-0.1-0.1-0.1-0.1-0.1l-1,0.1V61h-1.2v-0.2l-0.1-0.7h-0.9c0,0-0.1,0-0.1,0.1V61h-0.4v-0.6c0-0.1,0-0.2-0.2-0.2l-1,0
		c0,0-0.3,0.1-0.3,0.3l0,1.7c0,0,0.4,1,0.4,1.5v2.8h-1.2v-0.2l0-0.6l-0.1,0l-1,0v0.7h-1.2v-0.2l0-0.6l-0.7,0l-0.3,0
		c0,0,0.4-0.7,0.5-0.8v-1.7c0,0-0.1-0.1-0.1-0.1h-0.5c-0.1,0-0.1,0.1-0.1,0v0.1l-0.1,0l-0.2,0l-0.1,0c0,0,0-0.2-0.1-0.2l-0.6,0V64
		h-0.8v-0.2l0-0.6l-0.6,0l0,0.2l-0.1,0l-0.2,0l-0.1,0l0-0.1c0,0,0-0.1-0.1-0.1l-0.5,0c-0.1,0-0.2,0.1-0.2,0.1v1.7
		c0.1,0.1,0.6,0.8,0.6,1.4v0c0,0-0.3,5.8-0.3,5.9c0,0-0.3,1-0.6,1.7c0,0.1-0.1,0.2-0.1,0.3c0.3,0,0.3,0.2,0.3,0.2v2.7H58v-0.8h2.3
		c0-0.3,0-2,0-2s0,0,0,0h1.9v0.5H62l0.6,1l0.6-1h-0.3v-0.5h1.9v0.5h-0.3l0.6,1l0.6-1h-0.3v-0.5h1.9v0.5H67l0.6,1l0.6-1h-0.3v-0.5h2
		c0,0,0,0.1,0,0.1c0,0,0,1.7,0,2h2.3v0.8H76.9L76.9,77.2z M62.3,73.7L62.3,73.7h-1.7c0.2-0.4,0.5-1,0.9-1.5h0.8V73.7L62.3,73.7z
		 M62.3,71.6L62.3,71.6H62c0.1-0.1,0.2-0.2,0.3-0.2V71.6L62.3,71.6z M64.8,73.7L64.8,73.7h-1.9v-1.5h1.9V73.7L64.8,73.7z M64.8,71.6
		L64.8,71.6h-1.9v-0.7c0.5-0.3,1.2-0.6,1.9-0.7V71.6L64.8,71.6z M67.3,73.7L67.3,73.7h-1.9v-1.5h1.9V73.7L67.3,73.7z M67.3,71.6
		L67.3,71.6h-1.9v-1.5c0.7,0.1,1.4,0.4,1.9,0.7V71.6L67.3,71.6z M67.9,71.2L67.9,71.2c0.2,0.1,0.3,0.3,0.4,0.4h-0.4V71.2L67.9,71.2z
		 M67.9,73.7L67.9,73.7v-1.5h1c0.4,0.5,0.7,1.1,0.9,1.5H67.9L67.9,73.7z M68.2,81.1L68.2,81.1c-0.2-0.3-1,0-1.2,0.1l-0.4,0.1
		L66.3,81c0-0.1,0-0.2,0-0.4c0.1-0.1,0.2-0.2,0.4-0.2c0.2,0,1.1-0.2,1.1-0.6c0-0.3-0.3-0.9-0.8-1.2c-0.5-0.4-1.1-0.5-1.4-0.4
		c-0.3,0.1-0.3,0.9-0.3,1.2c0,0.2,0,0.4-0.1,0.5C65.1,79.9,65,80,64.9,80l-0.3-0.2l-0.1-0.4c0.1-0.2,0.1-1.1-0.2-1.2
		c-0.3-0.1-0.9,0-1.4,0.4c-0.5,0.4-0.8,0.9-0.8,1.2c0,0.4,0.8,0.6,1,0.6l0.4,0.2l0.1,0.4c0,0.1-0.1,0.2-0.2,0.3
		c-0.1,0.1-0.3,0-0.5-0.1c-0.2-0.1-1-0.4-1.2-0.1c-0.2,0.2-0.2,0.9-0.1,1.5c0.2,0.6,0.6,1.1,0.9,1.2c0.3,0.1,0.8-0.6,0.9-0.8
		c0.1-0.2,0.2-0.3,0.4-0.3c0.1,0,0.2,0,0.3,0.1c0,0,0.2,0.3,0.2,0.3S64,83.3,64,83.3c-0.2,0.1-0.5,0.6-0.5,0.9c0,0.1,0,0.1,0,0.2
		c0.2,0.2,0.8,0.5,1.4,0.5h0c0.6,0,1.2-0.2,1.4-0.5c0,0,0-0.1,0-0.2c0-0.3-0.4-0.8-0.5-0.9L65.6,83l0.2-0.3c0.1-0.1,0.2-0.1,0.3-0.1
		c0.2,0,0.3,0.2,0.4,0.3c0.1,0.2,0.6,0.9,0.9,0.8c0.3-0.1,0.7-0.6,0.9-1.2C68.4,81.9,68.4,81.3,68.2,81.1L68.2,81.1z M65.6,82.4
		L65.6,82.4c-0.5,0.4-1.2,0.3-1.6-0.3c-0.4-0.5-0.3-1.2,0.3-1.6c0.5-0.4,1.2-0.2,1.6,0.3C66.2,81.3,66.1,82,65.6,82.4L65.6,82.4z
		 M52.6,60L52.6,60c0.2-0.1,0.4-0.2,0.4-0.4c0.2,0,0.4,0,0.7,0c0.3-0.1,2.4-1,3.5-1.4c0,0,0,0,0,0c0.4,0.7,1.1,1.5,1.7,1.8
		c0.8,0.5,1.2,0.3,1.4,0c0.2-0.3-0.1-0.8-0.8-1.1c-0.4-0.2-0.9-0.7-1.3-1.1c0,0,0,0,0,0c0.5-0.3,1.6-0.8,2.7-1.4c0,0-0.1,0-0.1-0.1
		c-0.1,0-0.1-0.1-0.1-0.1c-0.1-0.2-0.2-0.5-0.2-0.6c0,0,0,0,0-0.1c0-0.1,0-0.3,0-0.3s-0.1-0.2-0.1-0.5c-1.3,0.6-2.4,1.1-3,1.4
		c0,0,0,0,0,0c-0.1-0.6-0.1-1.3,0-1.7c0.2-0.7-0.1-1.2-0.4-1.3c-0.3-0.1-0.7,0.1-0.8,1.1c-0.1,0.7,0.1,1.7,0.4,2.5c0,0,0,0,0,0
		c-1,0.5-3.1,1.6-3.3,1.8c-0.2,0.2-0.4,0.4-0.5,0.5c-0.2,0-0.4,0-0.6,0.1c-0.4,0.2-0.6,0.6-0.5,0.8C51.8,60.1,52.2,60.2,52.6,60
		L52.6,60z M58.6,49.8L58.6,49.8c-0.1-0.4-0.5-0.2-0.5-0.2c-0.5-0.7-1.4-0.9-1.4-0.9c-0.1-0.1-0.3-0.3-0.5-0.4
		c-0.1-0.7-0.5-1.3-1.1-1.5c-0.9-0.4-2,0-2.6,1c-0.1-0.1-0.1-0.1-0.2-0.2c-0.3-0.1-0.6,0-0.7,0.2c-0.1,0.3,0,0.6,0.3,0.7
		c0.1,0,0.2,0.1,0.3,0.1c-0.3,1.1,0.1,2.2,1,2.6c0.6,0.3,1.3,0.2,1.9-0.2c0.2,0.1,0.5,0.1,0.7,0.1c0,0,0.8,0.5,1.6,0.4
		c0,0,0.1,0.4,0.4,0.2c0,0,0.5,0.7,1.3,0.5c0,0,0.3,0.1,0.7,0.3C59.9,52.3,60,52,60,52c0.3-0.4,0.7-0.7,1-1
		c-0.7-0.3-1.1-0.5-1.1-0.5C59.5,49.8,58.6,49.8,58.6,49.8L58.6,49.8z M54.9,49.1L54.9,49.1c-0.3,0-0.4-0.5-0.1-0.7
		c0,0-0.5-0.3-0.6,0.4c0,0-0.4-0.3-0.7-0.1c0.1,0.4,0.6,0.5,0.6,0.5c-0.5,0.5,0.1,0.7,0.1,0.7c0-0.3,0.4-0.5,0.6-0.4
		c0.2,0.2,0.1,0.6-0.2,0.8c-0.3,0.3-0.7,0.3-1,0.2c-0.6-0.2-0.7-1.1-0.4-1.9c0.4-0.8,1.1-1.3,1.7-1c0.3,0.1,0.5,0.5,0.5,0.9
		C55.4,48.7,55.2,49.1,54.9,49.1L54.9,49.1z M69.3,52L69.3,52l0,0.1c3.9-1.9,7.3-3.6,7.6-3.8c0.7-0.4,1.2-1.2,1.2-1.2
		s-0.9-0.2-1.7,0.2c-0.3,0.1-4,1.8-8.1,3.7C68.7,51.4,69,51.7,69.3,52L69.3,52z M102.2,87.6L102.2,87.6c-0.7-0.6-1.8-1.1-2.4-1.9
		c-0.2-0.3-1.1-0.6-2.2-0.9c0,0-0.1,0-0.1,0c-0.3-0.1-0.8-0.3-1.4-0.4c0.3,0.8,1.6,1.9,2.2,2.3c0.4,0.3,0.3,0.6,0.2,0.8
		c0,0-0.5-0.5-1.2-0.5c-0.7,0-1.3-0.2-2.3,0.4c-0.9,0.5-1.5,0.8-1.6,1.5c-0.1,0.4-0.2,0.7-0.2,0.7s-0.7-0.8-0.7-1.3
		c0,0-1.4-0.9-2.2-1c-0.8-0.1-1.7,0.2-1.8,0.6c0,0-0.1-0.8,0.4-1.4c0.2-0.2,0.6-0.5,0.6-0.5s-0.4-0.4-0.7-0.1c0,0,0.1-0.8,0.5-0.9
		c0.4,0,2.1,0,2.8,0c0.6,0,1.9-0.2,2.1-1c0,0,0-0.1,0-0.2c-0.3-0.1-0.6-0.1-0.7-0.2c-0.4-0.1-0.7-0.2-0.9-0.3
		c-1.2-0.6-3.4-0.7-4.7-0.7l-0.4-0.1l0-2.6l-0.3,0c-1.6-0.2-3.8,0-5.2,1l-0.1,0h0c-1.1-0.3-2.3-0.5-4-1c0,0-0.5-0.2-0.8-0.2
		c1.7-2.2,3.1-5,3.5-8.4l-0.7,0C78.6,81.8,68.1,86.2,65,86.9c-3.2-0.7-14.1-5.3-15.1-16.3h-0.7c0.3,3.8,1.8,6.9,3.8,9.4
		c-1.5,0.2-3.6,0.7-4.3,0.9c-0.3,0.1-0.5,0.2-0.8,0.2c0,0-0.1,0-0.1,0c-1.2-1.3-3.7-1.7-5.5-1.5l-0.3,0l0,3.2c-1.3,0-2.6,0-3.1,0.1
		c-0.5,0-1.4,0.4-2.2,0.8c0.3,0.2,0.8,0.3,1.3,0.3c0,0,2.8,0,2.8,0c0.6,0.1,0.9,0.7,0.9,1.3c0,0,0,0.4,0.1,0.8
		c0.2,0.4,0.3,0.8,0.3,1.1c0,0.1,0,0.2,0,0.2l-0.3,0.9L41,87.6c-0.1-0.1-0.7-0.3-1.3-0.3c-0.4,0-1.3,0.5-1.8,0.8
		c-0.2,0.6-0.6,1.2-0.8,1.3l-0.7,0.8l-0.4-1.7c-0.1-0.4-0.4-0.6-1.3-1.1l-0.2-0.1c-0.6-0.3-1-0.3-1.5-0.3c0,0-0.6,0-0.6,0
		c-0.4,0-0.7,0.2-0.8,0.3l-0.5,0.5l-0.3-0.6c-0.3-0.5-0.1-1.1,0.4-1.5c0.3-0.2,0.6-0.4,0.8-0.7c-0.1,0-0.1,0-0.2,0
		c-0.8,0.2-2.8,1.4-3.9,1.8c-1.1,0.4-2.9,1.3-2.8,1.9c0.1,0.6,1.3,2.6,2.8,3c0.2,0,0.3,0.1,0.5,0.1v-1.2h7.9c4.3-0.9,9-2.5,9.4-4.6
		c0,0-1.5-0.8-3.2-0.6v-2.8c0,0,0,0,0,0c0-0.5,0-2,0-2.4c1.4-0.1,3.2,0.2,4.3,1c0,0,0,0,0.1,0.1c0.1,0.1,0.6,0.8,0.6,1.2v7.7
		c0,0-0.1,0.2-0.3,0.5h5.3v0h29.1l0,0l0.1,0h0.2c-0.2-0.3-0.3-0.5-0.3-0.5v-7.7c0-0.2,0.2-0.6,0.3-0.8c1-1,3-1.3,4.6-1.2
		c0,0.3,0,1.1,0,1.7l0,0v3.2c-1.7-0.1-3.2,0.6-3.2,0.6c0.4,2.1,5.1,3.7,9.4,4.6h7.9v1.8c0.2-0.1,0.4-0.2,0.5-0.4v0
		c1-0.5,1.8-1.9,2-2.5C103.7,88.9,102.8,88.1,102.2,87.6L102.2,87.6z M77.9,60.1L77.9,60.1c0.2-0.1,0.4-0.3,0.4-0.3
		c0-0.1,0-0.4,0-0.5c-0.5-1.2-2-1.2-2-1.2c-0.2-0.3-0.6-0.1-0.6-0.1c-1.2-1.2-2.7-1.5-2.7-1.5c-0.4-0.5-0.9-0.2-0.9-0.2
		c-1.1-0.5-2.2-0.9-3.2-1.4c0,0.2-0.1,0.5-0.1,0.5c0,0.1,0,0.1-0.1,0.2c0,0,0,0.2,0,0.2c0,0.2,0,0.4-0.2,0.7c1,0.4,2,0.9,2.9,1.3
		c0,0,0.1,0.5,0.8,0.5c0,0,1.2,0.9,2.9,1c0,0,0.1,0.4,0.5,0.4C75.7,59.4,76.7,60.5,77.9,60.1L77.9,60.1z M62,83.9L62,83.9
		c-0.2,1,0.1,1.4,0.1,1.4c0.4,0.1,1.3-0.4,1.3-0.4c-0.5-0.3-0.2-1-0.2-1C62.4,84.4,62,83.9,62,83.9L62,83.9z M64.9,78.3L64.9,78.3
		c0.3-0.8,0.9-0.6,0.9-0.6c-0.4-0.9-0.9-1.1-0.9-1.1c-0.3,0.2-0.8,1.1-0.8,1.1C64.7,77.6,64.9,78.3,64.9,78.3L64.9,78.3z M60.3,79.9
		L60.3,79.9c0.1,0.4,0.8,1.1,0.8,1.1c0.1-0.6,0.8-0.5,0.8-0.5c-0.6-0.5-0.3-1.1-0.3-1.1C60.6,79.5,60.3,79.9,60.3,79.9L60.3,79.9z
		 M68.7,81.1L68.7,81.1c0.8-0.7,0.8-1.2,0.8-1.2c-0.3-0.3-1.3-0.4-1.3-0.4c0.3,0.5-0.4,0.9-0.4,0.9C68.6,80.5,68.7,81.1,68.7,81.1
		L68.7,81.1z M60.5,52.4L60.5,52.4c-0.1,0.1-0.1,0.3,0,0.4c0.1,0.1,0.2,0.1,0.3,0.2c0.1,0.1,0.4,1.8,0.4,2c0.1,0.2,0.1,0.4,0.1,0.4
		s0,0.3,0.1,0.4c0.1,0.1,0.3,0.1,0.3,0.1c0,0.1,0,0.1,0.3,0.1c0.3-0.1,1.4-0.5,2.7-0.5c1.3,0,2.4,0.4,2.7,0.5c0.3,0.1,0.3,0,0.3-0.1
		c0-0.1,0.2,0,0.3-0.1c0.1-0.1,0.1-0.4,0.1-0.4s0-0.2,0.1-0.4c0.1-0.2,0.4-1.9,0.5-2c0.1-0.1,0.2-0.1,0.3-0.2c0.1-0.1,0-0.3,0-0.4
		c-1.3-1.5-2.8-2-3.9-2.1l-0.2-0.4l0.4,0.2v-0.6l-0.4,0.2l0.2-0.4h-0.6l0.2,0.4l-0.4-0.2v0.6l0.4-0.2l-0.2,0.3
		C63.3,50.3,61.8,50.9,60.5,52.4L60.5,52.4z M64.8,52.8L64.8,52.8l0.3-0.6h-0.2c0.1-0.3,0.3-0.8,0.4-0.9c0-0.1,0.2-0.2,0.4-0.1
		c0.2,0.1,1.6,0.5,2.2,1.5c0.1,0.1-0.2,1-0.6,1.1c-0.4,0.1-0.8,0-0.8-0.2c0-0.3,0.4-0.4,0.6-0.2c0,0,0.3-0.5-0.4-0.5
		c0,0,0.3-0.4,0-0.7c-0.4,0.1-0.4,0.6-0.4,0.6c-0.5-0.4-0.6,0.2-0.6,0.2c0.3-0.1,0.5,0.3,0.4,0.5c0,0.1-0.1,0.2-0.6,0.2
		c-0.1,0-0.3-0.1-0.5-0.1l-0.2-0.4l0.7,0.3v-0.9L64.8,52.8L64.8,52.8z M64.5,52.8L64.5,52.8l-0.7-0.3v0.9l0.7-0.3l-0.2,0.4
		c-0.2,0.1-0.4,0.1-0.5,0.1c-0.5,0-0.5-0.1-0.6-0.2C63,53.4,63.3,53,63.6,53c0,0-0.1-0.5-0.6-0.2c0,0,0-0.6-0.4-0.7
		c-0.3,0.3,0,0.8,0,0.8c-0.6,0-0.4,0.5-0.4,0.5c0.2-0.2,0.6-0.1,0.6,0.2c0,0.2-0.5,0.3-0.8,0.2c-0.4-0.1-0.6-1-0.6-1.1
		c0.6-1,2-1.4,2.2-1.5c0.2-0.1,0.3,0,0.4,0.1c0,0.1,0.2,0.5,0.4,0.9h-0.2L64.5,52.8L64.5,52.8z"/>
	<path d="M64.7,0C28.9,0,0,28.9,0,64.7c0,35.7,28.9,64.7,64.7,64.7c35.7,0,64.7-28.9,64.7-64.7C129.3,28.9,100.4,0,64.7,0L64.7,0z
		 M64.7,116.7L64.7,116.7c-28.7,0-52.1-23.3-52.1-52.1c0-28.7,23.3-52.1,52.1-52.1c28.7,0,52.1,23.3,52.1,52.1
		C116.7,93.4,93.4,116.7,64.7,116.7L64.7,116.7z"/>
	<path d="M156.4,31.1h16.2l11.7,46h-13l-2.4-11.7h-8.6l-2.4,11.7h-13L156.4,31.1L156.4,31.1z M161.5,56.7L161.5,56.7h6l-2.2-11
		c-0.1-0.6-0.3-1.5-0.5-2.5c-0.2-1.7-0.3-2.5-0.3-4.7c-0.1,2.2-0.2,3.1-0.4,4.7c-0.2,0.9-0.3,1.8-0.4,2.5L161.5,56.7L161.5,56.7z"/>
	<path d="M214.1,40.5c-2.1-0.7-3.6-1-5.3-1c-6.3,0-9,4.5-9,14.9c0,9.9,2.8,14.3,9.1,14.3c2,0,4.1-0.4,6.6-1.6l1.1,8.8
		c-3.9,1.3-7.3,2-10.7,2c-12.3,0-19.3-8.6-19.3-23.6c0-15,7.1-23.9,19.1-23.9c3.3,0,6.6,0.6,9.9,1.8L214.1,40.5L214.1,40.5z"/>
	<polygon points="220.9,31.1 253.5,31.1 253.5,39.8 243.6,40.7 243.6,77.1 230.7,77.1 230.7,40.7 220.9,39.8 220.9,31.1 	"/>
	<path d="M154.5,84.8c-1.2-0.8-2.2-1.2-3.3-1.2c-1.3,0-2.4,0.7-3,1.8c-0.6,1.1-0.8,2.6-0.8,5.1c0,2.3,0.2,3.5,0.8,4.7
		c0.6,1.2,1.7,1.8,3.2,1.8c0.9,0,1.6-0.2,2.5-0.6v-5.2h-3.5v-1.7h5.8v8.1c-2.2,0.9-3.5,1.2-5,1.2c-4.2,0-6.3-2.8-6.3-8.3
		c0-5.8,2.1-8.8,6.2-8.8c1.6,0,2.9,0.5,4.3,1.4L154.5,84.8L154.5,84.8z"/>
	<path d="M163.1,86.9c3.3,0,5,2.1,5,6c0,4-1.7,6-5,6c-3.3,0-5-2.1-5-6C158.2,88.9,159.8,86.9,163.1,86.9L163.1,86.9z M160.4,92.9
		L160.4,92.9c0,2.9,0.9,4.4,2.7,4.4c1.7,0,2.6-1.5,2.6-4.4c0-2.9-0.9-4.4-2.6-4.4C161.4,88.5,160.4,90,160.4,92.9L160.4,92.9z"/>
	<path d="M171,86.9l2.5,8.6c0.1,0.3,0.2,0.8,0.3,1.4c0.1-0.6,0.2-1.2,0.3-1.4l2.5-8.3h2.2l-3.7,11.5h-2.8l-3.7-11.5L171,86.9
		L171,86.9z"/>
	<path d="M181.8,93.6c0.2,2.3,1.5,3.5,3.7,3.5c0.8,0,1.6-0.2,2.7-0.6l0.4,1.6c-1.2,0.4-2.4,0.6-3.5,0.6c-3.6,0-5.6-2.3-5.6-6.1
		c0-3.6,1.8-5.9,4.9-5.9c3,0,4.6,2.1,4.6,5.7c0,0.2,0,0.5,0,1H181.8L181.8,93.6z M181.6,92.1L181.6,92.1h5.2v0
		c0-2.3-0.9-3.6-2.5-3.6C182.6,88.5,181.6,89.8,181.6,92.1L181.6,92.1z"/>
	<path d="M190.8,87.2l2.2-0.1V88c1-0.8,1.7-1,2.9-1l-0.2,2.1c-0.3-0.1-0.5-0.1-0.7-0.1c-0.7,0-1.3,0.2-1.9,0.6v9.1h-2.2V87.2
		L190.8,87.2z"/>
	<path d="M197.2,87.2l2.1-0.3v1.1c1.2-0.8,2.2-1.1,3.3-1.1c1.1,0,2,0.3,2.7,1c0.7,0.6,0.9,1.4,0.9,2.9v8h-2.1v-7.5
		c0-0.4,0-0.8-0.1-1c-0.2-0.9-1-1.4-2-1.4c-0.8,0-1.7,0.3-2.6,1v9h-2.2V87.2L197.2,87.2z"/>
	<path d="M208.8,87.2l2.2-0.2v0.9c1.1-0.7,2-1,2.9-1c1,0,1.9,0.3,2.4,0.9c0.2,0.2,0.3,0.3,0.5,0.6c1.2-0.9,2.3-1.4,3.5-1.4
		c1,0,2,0.4,2.6,1c0.6,0.7,0.8,1.3,0.8,2.9v7.9h-2.1v-7.4c0-0.5,0-0.8-0.1-1.1c-0.2-0.9-1-1.5-1.9-1.5c-0.8,0-1.5,0.3-2.3,1v9h-2.1
		v-7.4c0-0.6,0-0.9,0-1.1c-0.1-0.9-1-1.5-2-1.5c-0.8,0-1.4,0.3-2.2,0.9v9.1h-2.2V87.2L208.8,87.2z"/>
	<path d="M228.2,93.6c0.2,2.3,1.5,3.5,3.7,3.5c0.8,0,1.6-0.2,2.7-0.6l0.4,1.6c-1.2,0.4-2.4,0.6-3.5,0.6c-3.6,0-5.6-2.3-5.6-6.1
		c0-3.6,1.8-5.9,4.9-5.9c3,0,4.6,2.1,4.6,5.7c0,0.2,0,0.5,0,1H228.2L228.2,93.6z M228,92.1L228,92.1h5.2v0c0-2.3-0.9-3.6-2.5-3.6
		C229,88.5,228,89.8,228,92.1L228,92.1z"/>
	<path d="M237.3,87.2l2.1-0.3v1.1c1.2-0.8,2.2-1.1,3.3-1.1c1.1,0,2,0.3,2.7,1c0.7,0.6,0.9,1.4,0.9,2.9v8h-2.1v-7.5
		c0-0.4,0-0.8-0.1-1c-0.2-0.9-1-1.4-2-1.4c-0.8,0-1.7,0.3-2.6,1v9h-2.1V87.2L237.3,87.2z"/>
	<path d="M247.7,87.1h1.4v-1.9l2.2-0.3v2.2h2.3v1.4l-2.2,0.2v6.9c0,0.4,0,0.6,0,0.8c0,0.5,0.4,0.8,1,0.8c0.4,0,0.7-0.1,1.2-0.2v1.6
		c-0.6,0.2-1.2,0.3-1.9,0.3c-0.9,0-1.6-0.2-2-0.7c-0.4-0.4-0.5-0.9-0.5-1.9v-7.5l-1.4-0.1V87.1L247.7,87.1z"/>
</g>
</svg>
