<?xml version="1.0" encoding="utf-8"?>
<!-- Generator: Adobe Illustrator 23.0.1, SVG Export Plug-In . SVG Version: 6.00 Build 0)  -->
<svg version="1.1" id="Layer_1" xmlns="http://www.w3.org/2000/svg" xmlns:xlink="http://www.w3.org/1999/xlink" x="0px" y="0px"
	 viewBox="0 0 200 200" style="enable-background:new 0 0 200 200;" xml:space="preserve">
<style type="text/css">
	.st0{fill:#FFFFFF;}
</style>
<g>
	<rect x="0.5" y="0.5" width="199" height="199"/>
	<path d="M199,1v198H1V1H199 M200,0H0v200h200V0L200,0z"/>
</g>
<g id="g10" transform="matrix(1.3333333,0,0,-1.3333333,0,369.45333)">
	<g id="g12" transform="scale(0.1)">
		<path id="path14" class="st0" d="M211,2103l-31-163.5h87.1l3.4,17.2h-66.9l11.2,59.7h59.4l3.4,17h-59.4l10,52.4h63.1l3.4,17.2H211
			"/>
		<path id="path16" class="st0" d="M307.9,2057l10.2-66.9c1.7-13.3,3.2-22.3,3.6-28.9h0.7c2.4,6.3,5.6,14.1,12.4,27.4l35.9,68.4
			h22.1l-65.2-117.4h-19.9L287.3,2057H307.9"/>
		<path id="path18" class="st0" d="M465.1,1946.4c-8.7-5.1-23-9.2-38.8-9.2c-31,0-44.6,21.1-44.6,47c0,35.4,26.2,75.4,64,75.4
			c22.3,0,34.4-13.3,34.4-30.1c0-30.8-34.7-39-78.1-38.3c-1-5.1-0.2-16,2.4-22.3c4.6-10.4,14.1-15.8,26.2-15.8
			c13.8,0,24.2,4.4,31.5,8.2L465.1,1946.4z M442.8,2043.9c-19.2,0-33.5-18.7-38.3-37.1c31.5-0.3,56.3,3.9,56.3,22.1
			C460.7,2038.5,453.5,2043.9,442.8,2043.9"/>
		<path id="path20" class="st0" d="M480.7,1939.6l14.3,75.7c2.9,15.3,4.8,30.8,6,41.7h17.7c-1-8.2-1.9-16.5-3.2-25.5h0.7
			c7.5,16,20.1,28.1,35.9,28.1c1.7,0,4.1-0.2,5.6-0.5l-3.9-19.9c-1.2,0.3-3.1,0.5-5.3,0.5c-17.5,0-33-21.1-38.1-48.5l-9.7-51.7
			H480.7"/>
		<path id="path22" class="st0" d="M578.7,2057l11.7-63.3c2.6-13.3,4.1-22.1,5.3-30.8h0.5c3.2,7.5,6.5,15.8,12.6,28.6l29.8,65.5H660
			l-43.9-89.3c-12.6-25.5-24.5-46.1-40.5-61.6c-13.1-13.3-27.4-18.9-34.2-20.4l-4.8,17.2c5.1,1.9,13.6,5.1,21.6,11.4
			c7.8,6.1,16.2,15.5,22.6,26.9c1,1.9,1,3.4,0.7,5.3L557.8,2057H578.7"/>
		<path id="path24" class="st0" d="M773.3,2111.8l-25.7-135.1c-2.4-12.1-4.4-25.7-5.1-37.1H724l3.1,23.3h-0.5
			c-10.6-16.7-25.4-25.9-42.2-25.9c-22.8,0-35.2,18.7-35.2,42.7c0,41.7,31,80,72.5,80c7.5,0,15.8-1.7,20.8-4.1l10.4,56.3
			L773.3,2111.8z M739.6,2038.5c-4.1,2.7-10.9,4.9-19.4,4.9c-28.1,0-50-29.8-50-61.1c0-14.1,4.8-28.9,22.1-28.9
			c15.5,0,34.2,17.7,39.3,44.1L739.6,2038.5"/>
		<path id="path26" class="st0" d="M843.9,1939.6c0,7,1.2,18.2,2.7,30.3h-0.5c-12.9-24.3-28.9-33-45.6-33
			c-20.6,0-33.7,16.5-33.7,38.8c0,40.7,30.1,83.9,81.2,83.9c11.2,0,23.5-1.9,31.5-4.6l-11.9-61.1c-3.9-20.4-5.6-41.2-5.1-54.3H843.9
			z M857,2041.9c-2.9,0.7-7.3,1.7-14.1,1.7c-30.3,0-55.1-31.8-55.3-64.3c0-13.1,4.6-25.9,20.1-25.9c16.7,0,36.6,21.8,42.4,53.1
			L857,2041.9"/>
		<path id="path28" class="st0" d="M908.8,2057l11.6-63.3c2.7-13.3,4.1-22.1,5.4-30.8h0.5c3.1,7.5,6.6,15.8,12.6,28.6l29.8,65.5H990
			l-43.9-89.3c-12.6-25.5-24.5-46.1-40.5-61.6c-13.1-13.3-27.4-18.9-34.2-20.4l-4.9,17.2c5.1,1.9,13.6,5.1,21.6,11.4
			c7.8,6.1,16.2,15.5,22.6,26.9c1,1.9,1,3.4,0.7,5.3L887.9,2057H908.8"/>
		<path id="path30" class="st0" d="M276.3,1696.5c-6.6-2.9-18.9-5.3-33-5.3c-38.3,0-62.8,23.3-62.8,60.6c0,34.7,23.8,63.1,67.9,63.1
			c9.7,0,20.4-1.7,28.2-4.6l-5.8-27.4c-4.4,1.9-10.9,3.6-20.6,3.6c-19.4,0-32-13.8-31.8-33.2c0-21.8,14.5-33.2,32.5-33.2
			c8.8,0,15.5,1.4,21.1,3.6L276.3,1696.5"/>
		<path id="path32" class="st0" d="M287,1865.8h36.9v-172.2H287V1865.8"/>
		<path id="path34" class="st0" d="M382.1,1845.2c0-10.2-7.8-18.4-19.9-18.4c-11.6,0-19.4,8.2-19.2,18.4
			c-0.2,10.7,7.5,18.7,19.4,18.7C374.3,1863.9,381.9,1855.9,382.1,1845.2 M344,1812.2h36.9v-118.6H344V1812.2"/>
		<path id="path36" class="st0" d="M400.8,1774.4c0,14.8-0.5,27.4-1,37.8h31l1.7-16h0.7c5.1,7.5,15.5,18.7,35.9,18.7
			c15.3,0,27.4-7.8,32.5-20.1h0.5c4.4,6.1,9.7,10.9,15.3,14.3c6.6,3.9,13.8,5.8,22.6,5.8c22.8,0,40-16,40-51.4v-69.8h-35.9v64.5
			c0,17.2-5.6,27.2-17.5,27.2c-8.5,0-14.6-5.8-17-12.8c-1-2.7-1.4-6.6-1.4-9.5v-69.4h-35.9v66.5c0,15-5.3,25.2-17,25.2
			c-9.4,0-15-7.3-17.2-13.3c-1.2-2.9-1.4-6.3-1.4-9.2v-69.1h-35.9V1774.4"/>
		<path id="path38" class="st0" d="M667.2,1693.6l-2.2,11.9h-0.7c-7.8-9.5-19.9-14.5-33.9-14.5c-24,0-38.3,17.5-38.3,36.4
			c0,30.8,27.6,45.6,69.6,45.4v1.7c0,6.3-3.4,15.3-21.6,15.3c-12.1,0-25-4.1-32.7-9l-6.8,23.8c8.2,4.6,24.5,10.4,46.1,10.4
			c39.5,0,52.2-23.3,52.2-51.2v-41.2c0-11.4,0.5-22.3,1.7-28.9H667.2z M662.9,1749.7c-19.4,0.2-34.4-4.4-34.4-18.7
			c0-9.5,6.3-14.1,14.6-14.1c9.2,0,16.7,6.1,19.2,13.6c0.5,1.9,0.7,4.1,0.7,6.3V1749.7"/>
		<path id="path40" class="st0" d="M757.5,1846.2v-34H784v-27.2h-26.4v-42.9c0-14.3,3.4-20.9,14.5-20.9c4.6,0,8.3,0.5,10.9,1
			l0.2-27.9c-4.8-1.9-13.6-3.1-24-3.1c-11.9,0-21.8,4.1-27.6,10.2c-6.8,7-10.2,18.4-10.2,35.2v48.5h-15.8v27.2h15.8v25.7
			L757.5,1846.2"/>
		<path id="path42" class="st0" d="M822.8,1741.2c1.2-15.3,16.2-22.6,33.5-22.6c12.6,0,22.8,1.7,32.7,4.8l4.8-25
			c-12.1-4.9-26.9-7.3-42.9-7.3c-40.3,0-63.3,23.3-63.3,60.4c0,30.1,18.7,63.3,59.9,63.3c38.3,0,52.9-29.8,52.9-59.2
			c0-6.3-0.7-11.9-1.2-14.5H822.8z M866.3,1766.4c0,9-3.9,24-20.9,24c-15.5,0-21.8-14.1-22.8-24H866.3"/>
		<path id="path44" class="st0" d="M276.3,1450.6c-6.6-2.9-18.9-5.3-33-5.3c-38.3,0-62.8,23.3-62.8,60.6c0,34.7,23.8,63.1,67.9,63.1
			c9.7,0,20.4-1.7,28.2-4.6l-5.8-27.4c-4.4,1.9-10.9,3.6-20.6,3.6c-19.4,0-32-13.8-31.8-33.2c0-21.8,14.5-33.2,32.5-33.2
			c8.8,0,15.5,1.4,21.1,3.6L276.3,1450.6"/>
		<path id="path46" class="st0" d="M287,1619.9h36.9v-67.7h0.5c3.9,5.1,8.7,9,14.6,12.1c5.4,2.9,12.4,4.6,19.2,4.6
			c23.5,0,41.5-16.2,41.5-51.9v-69.4h-36.9v65.2c0,15.5-5.3,26.2-19.1,26.2c-9.7,0-15.8-6.3-18.5-12.9c-1-2.4-1.2-5.6-1.2-8.2v-70.3
			H287V1619.9"/>
		<path id="path48" class="st0" d="M536.7,1508.3c0-43.4-30.8-63.3-62.6-63.3c-34.7,0-61.4,22.8-61.4,61.1
			c0,38.3,25.2,62.8,63.3,62.8C512.4,1569,536.7,1544,536.7,1508.3 M450.8,1507.1c0-20.4,8.5-35.7,24.2-35.7
			c14.3,0,23.5,14.3,23.5,35.7c0,17.7-6.8,35.6-23.5,35.6C457.4,1542.8,450.8,1524.6,450.8,1507.1"/>
		<path id="path50" class="st0" d="M587.9,1599.3c0-10.2-7.8-18.4-19.9-18.4c-11.7,0-19.4,8.2-19.2,18.4
			c-0.2,10.7,7.5,18.7,19.4,18.7C580.1,1618,587.7,1610,587.9,1599.3 M549.8,1566.3h36.9v-118.6h-36.9V1566.3"/>
		<path id="path52" class="st0" d="M695.6,1450.6c-6.5-2.9-18.9-5.3-33-5.3c-38.3,0-62.8,23.3-62.8,60.6c0,34.7,23.8,63.1,67.9,63.1
			c9.7,0,20.4-1.7,28.2-4.6l-5.8-27.4c-4.4,1.9-10.9,3.6-20.6,3.6c-19.4,0-32-13.8-31.8-33.2c0-21.8,14.6-33.2,32.5-33.2
			c8.8,0,15.5,1.4,21.1,3.6L695.6,1450.6"/>
		<path id="path54" class="st0" d="M732.1,1495.2c1.2-15.3,16.3-22.5,33.5-22.5c12.6,0,22.8,1.7,32.7,4.8l4.9-25
			c-12.1-4.8-26.9-7.3-43-7.3c-40.3,0-63.3,23.3-63.3,60.4c0,30.1,18.7,63.3,59.9,63.3c38.3,0,52.9-29.8,52.9-59.2
			c0-6.3-0.7-11.9-1.2-14.6H732.1z M775.5,1520.5c0,9-3.9,24-20.8,24c-15.5,0-21.8-14.1-22.8-24H775.5"/>
		<path id="path56" class="st0" d="M821.9,1480c6.8-4.1,20.9-9,31.8-9c11.2,0,15.8,3.9,15.8,9.9c0,6.1-3.6,9-17.5,13.6
			c-24.5,8.2-33.9,21.6-33.7,35.6c0,22.1,18.9,38.8,48.3,38.8c13.8,0,26.2-3.1,33.5-6.8l-6.6-25.5c-5.3,2.9-15.5,6.8-25.7,6.8
			c-9,0-14.1-3.6-14.1-9.7c0-5.6,4.6-8.5,19.2-13.6c22.6-7.8,32-19.1,32.3-36.6c0-22.1-17.5-38.3-51.4-38.3
			c-15.5,0-29.3,3.4-38.3,8.2L821.9,1480"/>
	</g>
</g>
</svg>
